<svg xmlns="http://www.w3.org/2000/svg" viewBox="0 0 31 83"><defs><style>.cls-1{fill:#617f40;}.cls-2{fill:#e3706a;}.cls-3{fill:#527033;}.cls-4{fill:#e16660;}.cls-5{fill:#fdf9f9;}.cls-6{fill:#36541b;}.cls-7{fill:#d23b35;}.cls-8{fill:#b91f1b;}.cls-9{fill:#d9443e;}.cls-10{fill:#c02522;}.cls-11{fill:#3f5d21;}.cls-12{fill:#bb2420;}.cls-13{fill:#a52422;}.cls-14{fill:#a92422;}.cls-15{fill:#ab2521;}.cls-16{fill:#ac2522;}.cls-17{fill:#a01d1b;}.cls-18{fill:#a4201d;}.cls-19{fill:#afc297;}.cls-20{fill:#ba2623;}.cls-21{fill:#b32f2c;}.cls-22{fill:#93ab76;}.cls-23{fill:#a92724;}.cls-24{fill:#df605a;}.cls-25{fill:#d9524d;}.cls-26{fill:#6a8749;}.cls-27{fill:#ae2d2a;}.cls-28{fill:#ae2c29;}.cls-29{fill:#4e6c2f;}.cls-30{fill:#415f24;}.cls-31{fill:#d1443f;}.cls-32{fill:#7a935c;}.cls-33{fill:#db4f49;}.cls-34{fill:#b83834;}.cls-35{fill:#526e35;}.cls-36{fill:#99b07b;}.cls-37{fill:#68804a;}.cls-38{fill:#86a067;}.cls-39{fill:#bd2b28;}.cls-40{fill:#2f4a19;}.cls-41{fill:#435f28;}.cls-42{fill:#a1201e;}.cls-43{fill:#a62522;}.cls-44{fill:#d34e4a;}.cls-45{fill:#de5953;}.cls-46{fill:#d45e5a;}.cls-47{fill:#cf433f;}.cls-48{fill:#a0b682;}.cls-49{fill:#759154;}.cls-50{fill:#5d7b3d;}.cls-51{fill:#d4453f;}.cls-52{fill:#223b0f;}.cls-53{fill:#dd5c56;}.cls-54{fill:#688547;}.cls-55{fill:#b32c29;}.cls-56{fill:#b9302e;}.cls-57{fill:#49652e;}.cls-58{fill:#b3c699;}.cls-59{fill:#a01d1a;}.cls-60{fill:#6e8a4d;}.cls-61{fill:#a72724;}.cls-62{fill:#aec292;}.cls-63{fill:#c53e3b;}.cls-64{fill:#be3c39;}.cls-65{fill:#b42320;}.cls-66{fill:#c7423f;}.cls-67{fill:#bc2c29;}.cls-68{fill:#a71e1c;}.cls-69{fill:#a51e1b;}.cls-70{fill:#3c5722;}.cls-71{fill:#749054;}.cls-72{fill:#446029;}.cls-73{fill:#aec293;}.cls-74{fill:#ad2826;}.cls-75{fill:#dd5953;}.cls-76{fill:#961210;}.cls-77{fill:#dc4d46;}.cls-78{fill:#9f1210;}.cls-79{fill:#8d0e0c;}.cls-80{fill:#8fa671;}.cls-81{fill:#92100f;}.cls-82{fill:#931110;}.cls-83{fill:#dd4d46;}.cls-84{fill:#b12b27;}.cls-85{fill:#91100d;}.cls-86{fill:#e15c55;}.cls-87{fill:#cc5751;}.cls-88{fill:#d8443b;}.cls-89{fill:#779257;}.cls-90{fill:#bb3e38;}.cls-91{fill:#850c0b;}.cls-92{fill:#bb3e3a;}.cls-93{fill:#5a7739;}.cls-94{fill:#be3a35;}.cls-95{fill:#c04843;}.cls-96{fill:#8a0d0c;}.cls-97{fill:#c2443f;}.cls-98{fill:#8b0f0d;}.cls-99{fill:#b63936;}.cls-100{fill:#d5483e;}.cls-101{fill:#869f67;}.cls-102{fill:#88100e;}.cls-103{fill:#c42f2a;}.cls-104{fill:#dc534d;}.cls-105{fill:#b73c37;}.cls-106{fill:#c13834;}.cls-107{fill:#9c1513;}.cls-108{fill:#e26b66;}.cls-109{fill:#a41f1d;}.cls-110{fill:#839d64;}.cls-111{fill:#799559;}.cls-112{fill:#da4842;}.cls-113{fill:#ce3f37;}.cls-114{fill:#6c894c;}.cls-115{fill:#6b874a;}.cls-116{fill:#5e7b3e;}.cls-117{fill:#de514a;}.cls-118{fill:#a51b18;}.cls-119{fill:#d74740;}.cls-120{fill:#738f53;}.cls-121{fill:#708d50;}.cls-122{fill:#9a1412;}.cls-123{fill:#456328;}.cls-124{fill:#436126;}.cls-125{fill:#678346;}.cls-126{fill:#a51715;}.cls-127{fill:#4e6c30;}.cls-128{fill:#e06761;}.cls-129{fill:#48662b;}.cls-130{fill:#759054;}.cls-131{fill:#dd534d;}.cls-132{fill:#839c64;}.cls-133{fill:#49672b;}.cls-134{fill:#1b440d;}.cls-135{fill:#143207;}.cls-136{fill:#ca3834;}.cls-137{fill:#c82c28;}.cls-138{fill:#bc2521;}.cls-139{fill:#bd221e;}.cls-140{fill:#c62a26;}.cls-141{fill:#c32a27;}.cls-142{fill:#c7302b;}.cls-143{fill:#18400a;}.cls-144{fill:#3a581e;}.cls-145{fill:#be2b28;}.cls-146{fill:#ad2927;}.cls-147{fill:#a72522;}.cls-148{fill:#aa2522;}.cls-149{fill:#aa211f;}.cls-150{fill:#b62a28;}.cls-151{fill:#9e1716;}.cls-152{fill:#b32625;}.cls-153{fill:#ba2f2c;}.cls-154{fill:#b62b28;}.cls-155{fill:#b12c29;}.cls-156{fill:#b02422;}.cls-157{fill:#b52522;}.cls-158{fill:#b0201d;}.cls-159{fill:#b52926;}.cls-160{fill:#bccca5;}.cls-161{fill:#b6c89e;}.cls-162{fill:#c3d2ad;}.cls-163{fill:#b7c99e;}.cls-164{fill:#b2c598;}.cls-165{fill:#a64e3f;}.cls-166{fill:#bc3935;}.cls-167{fill:#b8322f;}.cls-168{fill:#b5312d;}.cls-169{fill:#ab2825;}.cls-170{fill:#7b945d;}.cls-171{fill:#da4a44;}.cls-172{fill:#de5751;}.cls-173{fill:#627f42;}.cls-174{fill:#112c06;}.cls-175{fill:#b3332f;}.cls-176{fill:#bc302c;}.cls-177{fill:#c13935;}.cls-178{fill:#b93b37;}.cls-179{fill:#c64844;}.cls-180{fill:#87a167;}.cls-181{fill:#94ac76;}.cls-182{fill:#7e995e;}.cls-183{fill:#b92e2c;}.cls-184{fill:#d3403b;}.cls-185{fill:#d7443d;}.cls-186{fill:#cf3c38;}.cls-187{fill:#cd3a35;}.cls-188{fill:#a5ba89;}.cls-189{fill:#be3230;}.cls-190{fill:#c63834;}.cls-191{fill:#981210;}.cls-192{fill:#900f0e;}.cls-193{fill:#950f0d;}.cls-194{fill:#9c1412;}.cls-195{fill:#991412;}.cls-196{fill:#9b1312;}.cls-197{fill:#db4740;}.cls-198{fill:#99100d;}.cls-199{fill:#a01512;}.cls-200{fill:#950e0b;}.cls-201{fill:#8c0a08;}.cls-202{fill:#910b08;}.cls-203{fill:#880a08;}.cls-204{fill:#961310;}.cls-205{fill:#93110e;}.cls-206{fill:#e2675f;}.cls-207{fill:#890c0b;}.cls-208{fill:#991513;}.cls-209{fill:#bc3e3a;}.cls-210{fill:#be3530;}.cls-211{fill:#8b0a08;}.cls-212{fill:#c5d2b1;}.cls-213{fill:#d9463f;}.cls-214{fill:#c2322d;}.cls-215{fill:#df524b;}.cls-216{fill:#cd3b35;}.cls-217{fill:#d5443e;}.cls-218{fill:#dc4f49;}.cls-219{fill:#d6645e;}.cls-220{fill:#c34a44;}.cls-221{fill:#d35753;}.cls-222{fill:#da6560;}.cls-223{fill:#b6322e;}.cls-224{fill:#b23330;}.cls-225{fill:#4d6b2f;}.cls-226{fill:#527133;}.cls-227{fill:#cc504b;}.cls-228{fill:#bb2a25;}.cls-229{fill:#bb302a;}.cls-230{fill:#c53834;}.cls-231{fill:#c6322e;}.cls-232{fill:#89a26a;}.cls-233{fill:#b8221d;}.cls-234{fill:#ad1b18;}.cls-235{fill:#b21e19;}.cls-236{fill:#c22b27;}.cls-237{fill:#ca2e29;}.cls-238{fill:#c8312d;}.cls-239{fill:#cb322d;}.cls-240{fill:#ba3130;}.cls-241{fill:#b72928;}.cls-242{fill:#b92624;}.cls-243{fill:#bf312e;}.cls-244{fill:#c24d4a;}.cls-245{fill:#a71c19;}.cls-246{fill:#a8201d;}.cls-247{fill:#a41a17;}.cls-248{fill:#a21816;}.cls-249{fill:#b42524;}.cls-250{fill:#aa1c1a;}.cls-251{fill:#c23f3b;}.cls-252{fill:#b62623;}.cls-253{fill:#bc312d;}.cls-254{fill:#b0211d;}.cls-255{fill:#ab1f1c;}.cls-256{fill:#b92623;}.cls-257{fill:#ab1b18;}.cls-258{fill:#ac1f1c;}.cls-259{fill:#bb3734;}.cls-260{fill:#b4c69c;}.cls-261{fill:#d84942;}.cls-262{fill:#a25846;}.cls-263{fill:#c03835;}.cls-264{fill:#c6413e;}.cls-265{fill:#c6423f;}.cls-266{fill:#cb4d4a;}.cls-267{fill:#c33e3b;}.cls-268{fill:#d03833;}.cls-269{fill:#d33a34;}.cls-270{fill:#d0d4bb;}.cls-271{fill:#a2b486;}.cls-272{fill:#9f1614;}.cls-273{fill:#900c0a;}.cls-274{fill:#a51917;}.cls-275{fill:#9a100d;}.cls-276{fill:#950b09;}.cls-277{fill:#9d120f;}.cls-278{fill:#a21513;}.cls-279{fill:#aa1916;}.cls-280{fill:#8f0908;}.cls-281{fill:#970e0c;}.cls-282{fill:#9d1412;}.cls-283{fill:#c44e49;}.cls-284{fill:#c64c48;}.cls-285{fill:#c14843;}.cls-286{fill:#bdcea6;}.cls-287{fill:#d8433c;}.cls-288{fill:#c9332f;}.cls-289{fill:#c83732;}.cls-290{fill:#be2f29;}.cls-291{fill:#d53a34;}.cls-292{fill:#d23832;}.cls-293{fill:#cd342f;}.cls-294{fill:#d85e59;}.cls-295{fill:#df6f69;}.cls-296{fill:#c84946;}.cls-297{fill:#bd2622;}.cls-298{fill:#bd2520;}.cls-299{fill:#c12622;}.cls-300{fill:#b8221f;}.cls-301{fill:#b31e1a;}.cls-302{fill:#c72e2a;}.cls-303{fill:#c42f2b;}.cls-304{fill:#ce322d;}.cls-305{fill:#b2211f;}.cls-306{fill:#9e1412;}.cls-307{fill:#9b110f;}.cls-308{fill:#c33632;}.cls-309{fill:#e2e6d5;}.cls-310{fill:#a01716;}.cls-311{fill:#a91a18;}.cls-312{fill:#c85450;}.cls-313{fill:#fcfdfb;}.cls-314{fill:#ae1d1b;}</style></defs><title>deco04工作區域 1</title><g id="圖層_5" data-name="圖層 5"><g id="_4poU0S" data-name="4poU0S"><path class="cls-1" d="M3.48,4.92,3.14,8.28a.75.75,0,0,0,1.24-.21,1.54,1.54,0,0,0,.17-.51c0-.46.09-.92.15-1.38a4.36,4.36,0,0,0,0-.52C4.74,5,4.79,4.35,4,4,3.42,4.05,3.79,4.7,3.48,4.92Z"/><path class="cls-2" d="M25.56,81.94l0,.21,1.05.11c.26-.16.71,0,.74-.52-.16-.35-.61-.36-.78-.71a1.71,1.71,0,0,0-.13-.23c-.26-.33-.66-.33-1-.45a.72.72,0,0,0-.29,0c-.5.31-1,0-1.48,0-.08.57.14.86.73,1a3.37,3.37,0,0,1,1,.5C25.46,81.75,25.65,81.69,25.56,81.94Z"/><path class="cls-3" d="M4.24,8c-.26.47-.69.36-1.1.32l0,.21.22.24c.22.28.05.7.32,1a.8.8,0,0,0,.45.14.61.61,0,0,0,.46-.2C4.66,9.05,4.93,8.41,4.24,8Z"/><path class="cls-4" d="M26.26,81.17a1.29,1.29,0,0,0,1,.54c.49.13.61-.31.86-.56l.05-.42a1.13,1.13,0,0,1-.81-.3c-.14,0-.39,0-.38.1C27.14,81.21,26.5,80.94,26.26,81.17Z"/><path class="cls-5" d="M28.16,81.15c-.39,0-.51.47-.86.56l-.73.55a1.49,1.49,0,0,1,.21,0C27.83,82.63,28.29,82.25,28.16,81.15Z"/><path class="cls-6" d="M7.38,1.93c-.13.35-.44.09-.64.18.61.85,1.27,1,1.87.35L8.43,2Z"/><path class="cls-7" d="M15.25,68.4A2.92,2.92,0,0,0,16.16,70a1.64,1.64,0,0,0,.93.09,8.93,8.93,0,0,1,1.55,0c.85.1,1,.71,1.1,1.41,0,.31,0,.63,0,.94a.81.81,0,0,0,.58.67.66.66,0,0,0,.84-.44,6.06,6.06,0,0,0-1.61-4.41c-.18-.61-.06-1.45-1.07-1.45-.1,0-.23.14-.2.18.24.32,0,.56-.12.81-.28.51-.83.69-1.28,1-.22.13-.11-.38-.37-.36A1.27,1.27,0,0,0,15.25,68.4Z"/><path class="cls-8" d="M18.35,27.62V27.4c-.44-.35-.9-.19-1.37-.07s-.48,1-1.18.58c-.16-.05-.42-.16-.48-.05-.42.68-1.2.46-1.77.76-.26.71.28,1,.71,1.27a3.49,3.49,0,0,1,1.62.83c.61.32,1.37.1,2,.63.28.25,1,.09.94-.44s.44-.67.39-1.09h0A1.74,1.74,0,0,1,18.35,27.62Z"/><path class="cls-9" d="M21.18,72.6c-1,.47-1.33.27-1.16-.77a2.25,2.25,0,0,0-.69-2c-.2-.24-.39-.27-.61,0,0,.31-.18.59-.17.9.73.84-.17,1.65-.06,2.49,0,.06-.24,0-.38.06s-.28.09-.2.29.19.61.55.69c.94.67,1.9,1.08,2.94.2,0-.42.23-.8.19-1.23C21.45,73,21.31,72.81,21.18,72.6Z"/><path class="cls-10" d="M16.87,27.47l1.47-.07c0-.13,0-.19-.15-.23-.21-.26-.24-.65-.6-.78a.87.87,0,0,0-.28-.05,2.51,2.51,0,0,0-1.68.41.93.93,0,0,1-.9.09,2.3,2.3,0,0,0-.51-.1c-.62,0-1.26,0-1.54.63s.48.79.75,1.17l.15.08c.27,0,.54.07.82.07s.83.31.8-.49c0-.42.35,0,.54,0A2.32,2.32,0,0,0,16.87,27.47Z"/><path class="cls-11" d="M8.61,2.46c-.73.47-1.26-.16-1.87-.35-1.25.23-2.41.57-2.78,2a1.47,1.47,0,0,1,.51,1.54c.26.09.34-.11.45-.28s.29-.6.4-.93c-.12-.77.19-1,.92-.73a4.58,4.58,0,0,1,1.52.15c.75.1,1.1-.21,1-1C8.78,2.73,8.83,2.54,8.61,2.46Z"/><path class="cls-12" d="M19.17,29.82c-.12.33-.71.34-.54.89a.35.35,0,0,1-.38.47c-.22,0-.44.05-.68-.26s-1.09-.23-1.65-.37c-.17.25-.05.46.08.68a.69.69,0,0,0,.22.16c.41.09.52.44.68.75a.79.79,0,0,0,.22.18,3.39,3.39,0,0,1,1.31.53,1.69,1.69,0,0,0,.27.12c.94.13.94.13.9-1.19h0a3.49,3.49,0,0,1-.25-1.36C19.34,30.2,19.4,30,19.17,29.82Z"/><path class="cls-13" d="M18.05,44.75l-.9-3.28a1.1,1.1,0,0,1-1.31.41c-.53,0-.49.68-.88.87a.66.66,0,0,0-.18.23.57.57,0,0,0,0,.29.51.51,0,0,0,.61.3c.34-.1.5-.17.38.31-.06.28.22.4.46.48a2.07,2.07,0,0,1,.86.37,1.56,1.56,0,0,0,.66.28C17.9,45,18,44.88,18.05,44.75Z"/><path class="cls-14" d="M17.22,40.89l.84-1.79c.14-.31-.13-.42-.3-.58-.33-.67-.35-1.6-1.4-1.68a.88.88,0,0,0-.28,0c-1,.58.24,1.26-.09,1.79-.14.22,1,.09,0,.21-.42,0-.46.34-.34.69a.58.58,0,0,0,.18.23A2.31,2.31,0,0,1,17.22,40.89Z"/><path class="cls-15" d="M17.85,44.94l-.6-.28c-.79-.12-1.48-.55-2.24-.74a.58.58,0,0,0-.41.63,1.05,1.05,0,0,0,.44.65c.69.34,1.54.49,1.66,1.5,0,.18.29.28.48.37a1.86,1.86,0,0,0,1.42.18c.28-.22.12-.37-.08-.51l-.36-.34c-.07,0-.15,0-.17,0s.06-.1.13-.12c0-.42.27-.86-.06-1.27-.08,0-.07.18-.19.14A.12.12,0,0,0,17.85,44.94Z"/><path class="cls-16" d="M19.93,49.17a.84.84,0,0,0-.44-1.12c-.34-.21-.51-.07-.6.28a1.24,1.24,0,0,1-.51.77,9.41,9.41,0,0,1-.91.42c-.63.63-.14,1,.31,1.39.95,0-.2.42.1.56a.41.41,0,0,0,.33.46.78.78,0,0,0,.58,0c.38-.31.2-.9.61-1.19.16-.19.33-.37.21-.65A.73.73,0,0,1,19.93,49.17Z"/><path class="cls-17" d="M17.22,40.89c.18-1.12-.66-1.11-1.37-1.24a2,2,0,0,0-.58,1.22A1.39,1.39,0,0,1,15.82,42c.68.44,1.25.6,1.33-.51C17.17,41.28,17.2,41.08,17.22,40.89Z"/><path class="cls-18" d="M20.3,58.1c.13-.33.39-.62.35-1a.93.93,0,0,0,0-1.07c-.3-.34-.71,0-1.06.12a4.91,4.91,0,0,1-.51.15c-.38.11-.79.2-1,.63-.23,1.42.26,1.89,1.68,1.64.36-.48-.51-.63-.25-1.09C19.82,57.63,19.88,58.1,20.3,58.1Z"/><path class="cls-19" d="M12.56,17.69a.75.75,0,0,0-.88.33c-.27.14-.72.19-.37.67.18.23.5.37.52.73a6.7,6.7,0,0,1-.08.77.73.73,0,0,0,.08.25,3.11,3.11,0,0,0,.54.35,1.19,1.19,0,0,1,.36.52c.24.34.28.81.69,1.05a.47.47,0,0,0,.43-.07.89.89,0,0,0-.16-1.06c-.7-.83-.73-1.93-1.21-2.84C12.34,18.13,12.85,18,12.56,17.69Z"/><path class="cls-20" d="M19.6,31.78c-.14.49.11,1.36-.93.95.11.34-.15.3-.34.34a2.1,2.1,0,0,0-.57.62c-.19.86.5.89,1,1.08.23-.19.5.17.72-.05l.05-.21a2.68,2.68,0,0,0,.17-1.65C19.71,32.49,19.88,32.12,19.6,31.78Z"/><path class="cls-21" d="M19.39,61c.43-.29.08-.47-.09-.67h-.14c-.41.08-.74.39-1.18.35s-.69-.12-.56-.61a.48.48,0,0,0-.23-.61c-.51.08-.69.54-1,.85a.58.58,0,0,0,.12.71c.13.11.35.13.44.26a1.49,1.49,0,0,0,2.4.4C19.32,61.47,19.19,61.16,19.39,61Z"/><path class="cls-22" d="M12.56,17.69c-.46.92,0,1.75.28,2.57s1,1.21.95,2a.17.17,0,0,0,0,.25.41.41,0,0,0,.29,0c.43-.38.22-.85.17-1.3a.59.59,0,0,0-.17-.24,3,3,0,0,1-.8-2.55c0-.3.14-.61-.11-.88C13,17.57,12.73,17.46,12.56,17.69Z"/><path class="cls-23" d="M19.89,58.28c-1.34.34-1.69,0-1.55-1.43-.32-.13-.46.07-.58.32-.23.68.49,1.34.07,2a1.38,1.38,0,0,0-.17.25c-.22,1.11.56.67,1.05.67a.63.63,0,0,0,.47-.33c-.14-.44.25-.5.49-.66s.3-.55.46-.82A.18.18,0,0,0,19.89,58.28Z"/><path class="cls-24" d="M22.8,79.77l.41,0c.78.36,1.7,0,2.45.46.52.11,1.06.27,1.43-.31l-.18-.22c-.28-.1-.3-.13-.19-.24l-.17-.23a6.68,6.68,0,0,0-3.09-.48,1.2,1.2,0,0,0-.24.15C23.06,79.2,22.73,79.38,22.8,79.77Z"/><path class="cls-25" d="M26.1,78.78a28.05,28.05,0,0,1-2.65-3.21l-.13.09a.74.74,0,0,0-.07.72c.46.1.11.58.36.78a1.18,1.18,0,0,1,.33,1,.46.46,0,0,0,.18.21,1.87,1.87,0,0,1,.77.47C25.24,79.11,25.71,79.36,26.1,78.78Z"/><path class="cls-26" d="M7.15,8.05l.5-.8c-.56-1.21-1.14-.2-1.72,0A2,2,0,0,0,5.44,8a4,4,0,0,0-.29,1.09.76.76,0,0,0,.14.46.44.44,0,0,0,.44.09c.14-.57,1.32-.62.78-1.53C6.74,8.19,7,8.24,7.15,8.05Z"/><path class="cls-27" d="M20.94,56.27a3.39,3.39,0,0,0,.43-2.51c-.23-.51-.59-.58-1-.28-.13.66-.61,1.29-.15,2a1.3,1.3,0,0,0,.18.23A1.19,1.19,0,0,1,20.94,56.27Z"/><path class="cls-28" d="M18.85,51.82l-.63-.06a.75.75,0,0,0-.24.64.79.79,0,0,0,.4.57c.56.13,1.15.16,1.72.27s1,.08,1-.63c0-.21.05-.45-.17-.61-.6-.19-1.31.44-1.85-.24A.32.32,0,0,0,18.85,51.82Z"/><path class="cls-29" d="M7.93,6.64c.12-.18.34-.31.31-.57.08-.73.54-1.59-.61-1.93-.8.38-.89,1.13-1,1.88A1.73,1.73,0,0,0,7.93,6.64Z"/><path class="cls-30" d="M7.57,4.28c1,.3.33,1.24.67,1.79.54-1,1.17-2,.54-3.17a.83.83,0,0,1-1.14.75A.44.44,0,0,0,7.57,4.28Z"/><path class="cls-31" d="M18.39,66.81c.72.18.95.78,1.18,1.38a10.71,10.71,0,0,0-.74-3.66.89.89,0,0,0-.25.14C17.87,65.33,18.18,66.07,18.39,66.81Z"/><path class="cls-32" d="M13.21,17.54a4.64,4.64,0,0,0,.12,2.83.82.82,0,0,0,.78.69.14.14,0,0,0,.09-.15c0-.07,0-.1,0-.1l-.36-.63a6.73,6.73,0,0,0,0-2.79C13.63,17.42,13.37,17.28,13.21,17.54Z"/><path class="cls-33" d="M23.45,75.57a5.52,5.52,0,0,0-.93-1.37c-.26.09-.41.34-.67.43-.43.19-1-.12-1.35.27a.25.25,0,0,0,.05.27c0,.24.68-.18.38.47-.16.34.45.5.84.44s.72-.21,1.09-.26a1.16,1.16,0,0,0,.54-.21Z"/><path class="cls-34" d="M21.14,52.61a.79.79,0,0,1-1.08.37,4.09,4.09,0,0,0-1.73-.16c-.5-.23-.53,0-.46.42a.74.74,0,0,0,.16.27.82.82,0,0,0,.42.17c.5,0,1.12-.39,1.42.39.37.12.35-.24.49-.4.37-.35.69-.11,1,.09A2.09,2.09,0,0,0,21.14,52.61Z"/><path class="cls-35" d="M13.85,17.39a4.74,4.74,0,0,0,0,2.79c.38.08.58-.28.88-.38a4.62,4.62,0,0,0-.38-2.57C14.14,17.25,14,17.19,13.85,17.39Z"/><path class="cls-36" d="M8.68,16.45a5.84,5.84,0,0,0-.53-1.52,2.22,2.22,0,0,0-1.78.64.48.48,0,0,0,.35.59c.64,0,1.11.59,1.76.57C8.64,16.7,8.78,16.65,8.68,16.45Z"/><path class="cls-37" d="M14.16,20.81a2.21,2.21,0,0,1-.05.25v.19c.39.48.05,1.14.41,1.62.63.43,1.09,1.24,2.05,1a2.19,2.19,0,0,1-.46-1.31.39.39,0,0,0-.23-.15c-.56,0-.78-.39-.92-.86s-.11-.72-.62-.66A.39.39,0,0,1,14.16,20.81Z"/><path class="cls-38" d="M6.42,15.6a8.85,8.85,0,0,0,1.73-.67l-.87-1.38a.75.75,0,0,0-.75.36c0,.34.2.75-.27,1a.53.53,0,0,0-.13.26A.45.45,0,0,0,6.42,15.6Z"/><path class="cls-39" d="M19.49,34.72c-.2.05-.37-.28-.6-.06s-.72.13-.81.57a1.32,1.32,0,0,0,.13.76.67.67,0,0,0,.53.32,1.71,1.71,0,0,0,.91-.28C20.25,35.51,19.38,35.18,19.49,34.72Z"/><path class="cls-40" d="M15.39,17c-.26-.16-.43.08-.64.15-.15.83-.26,1.65.64,2.16.18-.37.69-.5.72-1C16.26,17.65,15.66,17.4,15.39,17Z"/><path class="cls-41" d="M15.39,19.28c-.53-.62-.35-1.46-.64-2.16-.18-.06-.35-.11-.45.11a5.8,5.8,0,0,0,.38,2.57A1.14,1.14,0,0,0,15.39,19.28Z"/><path class="cls-42" d="M18.85,51.82l.21,0c.63,0,1.27.12,1.74-.45,0-.17,0-.35-.16-.45a1.47,1.47,0,0,0-1.45-.36A1.07,1.07,0,0,0,18.85,51.82Z"/><path class="cls-43" d="M19.19,50.58a3.82,3.82,0,0,0,1.45.36c.06-.71-.76-1.06-.71-1.77-.65.2-.77.47-.51,1C19.53,50.45,19.22,50.43,19.19,50.58Z"/><path class="cls-44" d="M16.57,23.83c-.79-.11-1.27-.81-2-1.07-.14-.22-.28-.42-.59-.27h-.22a1.11,1.11,0,0,0-.75-.16c-.36.54.05.71.43.84s.61,0,.88.19a2.84,2.84,0,0,1,.54.5,1,1,0,0,0,.39.26,1.38,1.38,0,0,0,1.28-.06Z"/><path class="cls-45" d="M26.1,78.78c-.47.31-.88.39-1.08-.28s-.65-.28-1-.31c-.54,0-.71.3-.72.77,1.1-.11,2.15.39,3.25.3A.88.88,0,0,0,26.1,78.78Z"/><path class="cls-46" d="M17.59,26.49c.16.26.28.56.6.68.06-1.31-.77-2.13-1.61-2.94-.37.4-.07.74.08,1.09.08.12.16.23.25.34A4.18,4.18,0,0,0,17.59,26.49Z"/><path class="cls-47" d="M16.88,25.34a2.36,2.36,0,0,1-.3-1.11.57.57,0,0,0,0-.18l-1.44-.15c-.33.51.38.67.36,1.07C15.85,25.44,16.28,25.73,16.88,25.34Z"/><path class="cls-48" d="M8.68,16.45l-.25.2-.14,0c-.87.75-.17,1.35.18,2a.87.87,0,0,0,.77.09.59.59,0,0,0,.31-.69L9.38,18c-.26-.15-.47-.32-.36-.67A1.45,1.45,0,0,0,8.68,16.45Z"/><path class="cls-49" d="M7.15,8.05A1.86,1.86,0,0,0,5.76,9.6.49.49,0,0,0,6,9.81a.74.74,0,0,0,.77-.1C6.9,9.16,7,8.6,7.15,8.05Z"/><path class="cls-50" d="M7.93,6.64c-.23-.54-.72-.49-1.17-.53A1,1,0,0,0,6,7.31c.55.09,1-.86,1.62-.06C7.75,7.05,7.84,6.84,7.93,6.64Z"/><path class="cls-51" d="M22,74.81a.66.66,0,0,0,.49-.61,2.23,2.23,0,0,0-.93-1c-.16.36-.64.67-.15,1.12C21.46,74.7,21.55,75,22,74.81Z"/><path class="cls-52" d="M15.39,17c-.17.67.66.8.72,1.33a.81.81,0,0,0,.44-1.19C16.31,16.59,15.82,16.74,15.39,17Z"/><path class="cls-12" d="M18.35,27.62c-.63,1.23-.36,2,.82,2.2C18.91,29.08,18.32,28.46,18.35,27.62Z"/><path class="cls-43" d="M20.8,51.39l-1.74.45c.54,1.21,1.26.22,1.91.16C21,51.78,21,51.55,20.8,51.39Z"/><path class="cls-53" d="M27.09,80a2.8,2.8,0,0,1-1.57.09c-.19.06-.33.16-.25.39h0c.24.36.93-.14,1,.53a1.49,1.49,0,0,0,0,.21c.74.31.72-.55,1.14-.74Z"/><path class="cls-54" d="M7.11,13.11a6.89,6.89,0,0,0-.45-1.73.19.19,0,0,0-.25-.05.66.66,0,0,0-.12.27c0,.65,0,1.34-.56,1.83a.34.34,0,0,0,.07.29.72.72,0,0,0,.6.14C6.7,13.67,7.16,13.63,7.11,13.11Z"/><path class="cls-55" d="M18.48,49.24c.55,0,.57-.51.64-.86s.15-.32.37-.33c-.75-.12-.33-1.1-1-1.31l.15.39a3.47,3.47,0,0,0-.45,1.6A.73.73,0,0,0,18.48,49.24Z"/><path class="cls-56" d="M17.42,38.75c.27,0,.53,0,.64.35a2.7,2.7,0,0,0,.71-1.49.39.39,0,0,0-.3-.1C17.78,37.63,17.23,37.88,17.42,38.75Z"/><path class="cls-57" d="M14.34,20.85c.39.19.29.59.42.88.19.44.32,1.18,1.13.77.1-.14,0-.25-.07-.36a2.41,2.41,0,0,1-.65-.8C15.13,20.77,15,20.46,14.34,20.85Z"/><path class="cls-58" d="M11.41,18.65c-.21-.34.15-.43.27-.63l-.85,0c-.45.25-1,.41-1.21,1a.28.28,0,0,0,.1.26.67.67,0,0,0,.42.06C10.53,19,11.27,19.45,11.41,18.65Z"/><path class="cls-59" d="M19.89,58.28l.24,0c.11,0,.2-.07.17-.21-.09-.52-.61-.71-.87-1.11C19.54,57.44,18.57,58.27,19.89,58.28Z"/><path class="cls-60" d="M6.43,11.37h.23c0-.56.07-1.11.11-1.67L6,9.63C6,10.24,5.52,11,6.43,11.37Z"/><path class="cls-61" d="M20.94,56.27a.6.6,0,0,0-.56-.7c-.7-.07-1.18.13-1.16,1,.51,0,.82-.5,1.39-.42l0,1C21,56.9,20.86,56.55,20.94,56.27Z"/><path class="cls-62" d="M9.67,19.11,10.83,18l-1.28.08c-.09.2-.18.39-.26.58C9.07,19.08,9.23,19.21,9.67,19.11Z"/><path class="cls-63" d="M18.79,64.73l0-.2L19,63.27a.61.61,0,0,0-.68-.21c-.36.09,0,.48-.25.62.07.32.36.53.44.84C18.53,64.65,18.61,64.76,18.79,64.73Z"/><path class="cls-64" d="M19.39,61c-.25.13-.23.38-.26.61-.46.3-.86.64-.72,1.28.7.35.66-.27.83-.63Z"/><path class="cls-65" d="M18.6,37.6h.17l.06-.62a.75.75,0,0,0-.21-.26c-.38-.21-.65-.14-.78.3S18.07,37.78,18.6,37.6Z"/><path class="cls-66" d="M19.24,62.24c-.24.26-.35.73-.87.55-.22-.13-.36,0-.49.15s0,.28.24.25l.83.08A1.29,1.29,0,0,0,19.24,62.24Z"/><path class="cls-67" d="M18.66,37l.17,0c.17-.41.7-.51.82-1a1.34,1.34,0,0,0-.9.1.6.6,0,0,0-.22.4A.84.84,0,0,0,18.66,37Z"/><path class="cls-68" d="M18.12,46.23c-.17-.06-.34-.32-.53-.08a.34.34,0,0,0,.11.52c.25.14.34-.11.46-.27A.21.21,0,0,0,18.12,46.23Z"/><path class="cls-69" d="M17.85,44.94c-.05.24-.49.31-.28.65a.27.27,0,0,0,.25.08c.3-.15.17-.47.24-.71v-.21Z"/><path class="cls-39" d="M19.71,32.86c-.06.55-.11,1.1-.17,1.65A1.68,1.68,0,0,0,19.71,32.86Z"/><path class="cls-20" d="M19.35,30.41a1.11,1.11,0,0,0,.25,1.36A2.37,2.37,0,0,0,19.35,30.41Z"/><path class="cls-70" d="M15.7,22.26l.19.24.22,0c.48-.7-.39-.6-.54-.93C15.29,21.88,15.5,22.07,15.7,22.26Z"/><path class="cls-71" d="M7.11,13.11a1.38,1.38,0,0,1-.71.59l-.09.1,0,.13a.2.2,0,0,0,.25,0l.68-.38C7.27,13.38,7.31,13.2,7.11,13.11Z"/><path class="cls-72" d="M15.7,22.26c0-.22-.09-.45-.13-.67s-.25-.19-.4-.25C15.18,21.74,15.2,22.14,15.7,22.26Z"/><path class="cls-73" d="M9,17.34c-.58.6-.07.61.36.67Z"/><path class="cls-21" d="M19.11,59.68a.43.43,0,0,1-.44.17c-.12.21,0,.37.13.51a.48.48,0,0,0,.42,0l.08,0c0-.2,0-.41,0-.61S19.18,59.61,19.11,59.68Z"/><path class="cls-74" d="M19.11,59.68l.18,0,.38-.57C19.39,59.21,18.93,59.13,19.11,59.68Z"/><path class="cls-75" d="M26.72,79.49c-.18.08-.59-.17-.52.17s.47,0,.71.07Z"/><path class="cls-76" d="M7.5,46.67c.61.6.52,1.48.88,2.18.34.4.48,1.13,1.27.79a2.16,2.16,0,0,1,.91-.11c.89-.08,1.28.32,1.24,1.2a1.22,1.22,0,0,0,.17.89.56.56,0,0,0,.52.23A4,4,0,0,0,13,50.38c-.43-.61,0-1.27-.1-1.9-.65-.18-.43-.76-.53-1.19s.09-.94-.52-1.11a2.65,2.65,0,0,0-1.09,1.18c-.05.25.25.38.23.63-.29.11-.52-.12-.79-.08s-.76.61-1.24.16a3.78,3.78,0,0,1-.17-.35,1.51,1.51,0,0,1-.07-1.18,1.73,1.73,0,0,0-.16-1.35c-.37-.19-.68-.15-.74.31S7.46,46.25,7.5,46.67Z"/><path class="cls-77" d="M22,74.81c-.33,0-.38-.33-.59-.48-1,.68-2,0-3-.09l.05.21c.12.07-.06,0,.07.07.3.09.59.17.45.58a4.74,4.74,0,0,1,1.68,2.16,2.06,2.06,0,0,0,1,1.1,1.81,1.81,0,0,0,.52.07c1.25.15,1.47-.12,1-1.36-.09-.24,0-.47-.1-.7-.34-.19-.21-.58-.37-.85a5.71,5.71,0,0,1-1,.3c-.29,0-.86.38-.56-.48.11-.31-.5-.15-.75-.26a.31.31,0,0,1-.16.12c0-.1,0-.07.08-.06s-.06,0,.08-.06C21,74.64,21.59,75.25,22,74.81Z"/><path class="cls-78" d="M2.5,37.59c.49.6.26,1.51.87,2.06.58-.22.37-.79.51-1.2,0-1.28-.61-2.57.09-3.84.18-.73,0-1.56.67-2.14a.9.9,0,0,0,0-1.54.79.79,0,0,0-1.36.22.71.71,0,0,0-.07.32c.06.48.33.63.73.51a1,1,0,0,0-.78,1c.11.84-.55,1.31-.92,1.92C2.34,35.81,2.42,36.7,2.5,37.59Z"/><path class="cls-79" d="M3.87,40.78a1.47,1.47,0,0,0,.5.7c.59.37,1.18-.27,1.77,0a.65.65,0,0,0,.35-.24c.31-.65.31-1.51,1.34-1.6.32,0,.45-.49.46-.86a.65.65,0,0,0-.18-.44,1.37,1.37,0,0,0-1.42.07c-.16.12.21.65-.39.45a1.69,1.69,0,0,0-1.11,0A6,6,0,0,0,3.87,40.78Z"/><path class="cls-80" d="M3.27,21.42a1,1,0,0,0-1,1.07c.06.59.63.59,1.16.48a1.29,1.29,0,0,1,1.16.33c.55,0,.59-.45.77-.79.12-.52.7-.59,1-1a.58.58,0,0,0,.05-.29,1.18,1.18,0,0,0-.86-1c-.53.07-.22.75-.69.92s-.81.42-1.27.14A.32.32,0,0,0,3.27,21.42Z"/><path class="cls-81" d="M12.5,51.81l-.4-.25a.51.51,0,0,0-.2.21c-.18.82-.6,1-1.34.57a9.06,9.06,0,0,1-1.51-1.09.26.26,0,0,0-.27,0,3.73,3.73,0,0,0,.57,2.39c.08.16.23.35.39.27,1-.51,2-.29,3-.57a.55.55,0,0,0,.36-.49,3.22,3.22,0,0,0-.38-1A.2.2,0,0,0,12.5,51.81Z"/><path class="cls-82" d="M7.5,46.67a1,1,0,0,0,.51-1c-.1-.48.22-.38.49-.37a.37.37,0,0,0,.54.1c.24-.18,0-.37-.09-.5a11.43,11.43,0,0,1-.78-.94c-.57-.32-.25-1.14-.83-1.45a.61.61,0,0,0-.44,0,.58.58,0,0,0-.36.45,2.61,2.61,0,0,0,.33.81c.12.22.31.37.48.64-.3.18-.77.08-.93.48Z"/><path class="cls-83" d="M18.15,73.36c.23.29.52.37.77.07a.38.38,0,0,0-.13-.61c-.2-.1-.29-.28-.09-.37,1.47-.67,0-1.2-.06-1.8-.17-.26-.11-.81-.63-.66a.86.86,0,0,0-.59,1.08c.15.34.6.15.77.52-.37.07-1,0-.81.71l.18.36A2.1,2.1,0,0,0,18.15,73.36Z"/><path class="cls-84" d="M10.22,55.81l0,.22c.25.66.62.77,1.12.24.28-.3.52-.65,1-.65a1.79,1.79,0,0,1,1.46.23.66.66,0,0,0,.28,0c.48-.36.52-.75,0-1.1a1,1,0,0,1-.39-.8.55.55,0,0,0-.18-.22,2.18,2.18,0,0,0-1.75.78,3.06,3.06,0,0,1-.76.72A2.51,2.51,0,0,0,10.22,55.81Z"/><path class="cls-85" d="M3.87,40.78c.48-.55,1.11-1,1.24-1.79a.74.74,0,0,0,.44-1,3,3,0,0,0-1-1.08,2.3,2.3,0,0,0-.72,1.49c.28.71-.47,1.37-.11,2.09Z"/><path class="cls-86" d="M5.14,22.26a1.59,1.59,0,0,1-.56,1c-.37,1-.74,2-1.1,3a.36.36,0,0,0,.39.11,1,1,0,0,0,.49-.66,1.18,1.18,0,0,1,.38-.53,1.64,1.64,0,0,0,.51-.63.89.89,0,0,0,.07-.28,3,3,0,0,0,0-.42c0-.55.37-.75.84-.85s.77-.13.69-.68A.71.71,0,0,0,6.56,22,1.45,1.45,0,0,0,5.14,22.26Z"/><path class="cls-87" d="M12.36,62c.26.43.76.67.87,1.2a.74.74,0,0,0,.29-.12c1.47-.52,1.85-1,1.82-2.37a.45.45,0,0,0-.22-.21c-.71.12-.66,1-1.3,1.22.06-.46,0-1,.45-1.31s0-.47-.19-.63a.45.45,0,0,0-.28,0,1.17,1.17,0,0,0-.86,1.17C13,61.35,12.5,61.57,12.36,62Z"/><path class="cls-88" d="M2.35,34.9a1.7,1.7,0,0,0,1-1.8c-.13-.25-.07-.55-.22-.79s-.2-.47-.53-.37a4.23,4.23,0,0,0-.55,3.39C2.27,35.26,2.17,35,2.35,34.9Z"/><path class="cls-89" d="M3,17.6c-.07,1.14.8,1.75,1.44,2.48.36.16.72.36,1-.1a.61.61,0,0,0,0-.42c-.57-.32-.13-1-.55-1.4-.55.11-.59-.52-1-.67A.84.84,0,0,0,3,17.6Z"/><path class="cls-90" d="M13.3,62.92l-.07.23c.29.31.11.69.18,1a2,2,0,0,0,1.54.38,1.11,1.11,0,0,0,.3-.08c.47-.43.15-1.19.65-1.61a2.1,2.1,0,0,0-.43-1.07c-.07,0-.17,0-.19,0C15,62.86,14.16,62.93,13.3,62.92Z"/><path class="cls-91" d="M8.78,51.22l.17,0c.29.71,1,.68,1.6.94.31.14.58-.1.63-.47a.53.53,0,0,0-.09-.3,3.42,3.42,0,0,1-.66-.75c-.41-.59-.94-1.12-1.79-.72C8.68,50.37,8.73,50.79,8.78,51.22Z"/><path class="cls-92" d="M10.79,57.59l.66,2,.13,0,.3-.25c.36-.11.76,0,1.11-.14.2-.38.67-.55.8-1-.14-.33-.45-.35-.74-.41-.47.06-.69-.37-1.05-.54A1.56,1.56,0,0,1,10.79,57.59Z"/><path class="cls-93" d="M5.79,13.42c1.22-.28.52-1.19.62-1.84A.3.3,0,0,0,6,11.47a1.31,1.31,0,0,1-1.14.65,2.59,2.59,0,0,0-.67.2c-.17.11-.11.35-.23.49l.33.88A1.68,1.68,0,0,1,5.79,13.42Z"/><path class="cls-94" d="M14.2,66.39c0,.27.05.54.35.65.31-.15.73-.14.83-.56a1.87,1.87,0,0,1,1-1.16.72.72,0,0,0,.44-.66.56.56,0,0,0-.58-.38c-.31.08-.65-.08-1,.1h0C14.36,64.77,14.63,65.76,14.2,66.39Z"/><path class="cls-95" d="M13.74,58.29c-.26.23-1.08,0-.71.78a1.18,1.18,0,0,1-.24.44,2,2,0,0,0-.6,2c-.07.19.08.3.17.43.55-.21,1-.49.81-1.2-.12-.53.5-.6.63-1,0-.16,0-.32,0-.49s.11-.42.12-.64a1.22,1.22,0,0,0-.06-.26Z"/><path class="cls-96" d="M8.64,49.94c.67.2,1.58.06,1.58,1.22,0,.32.53.23.83.29.41-1.17-.19-2-1.49-2.06-.73.56-.63-.69-1.18-.54A1.81,1.81,0,0,0,8.64,49.94Z"/><path class="cls-97" d="M14.2,66.39c.33-.39,1-.6.64-1.34-.12-.28.3-.42.41-.67l-1.84-.19A6.67,6.67,0,0,0,14.2,66.39Z"/><path class="cls-98" d="M6.62,43l.25-.4,0-.13a.86.86,0,0,0-.5-1,.27.27,0,0,0-.26,0c-.62-.72-1.17.18-1.77.06a4.53,4.53,0,0,0,1,1.35c.26.11-.13-.73.4-.27C6,42.76,6.17,43.18,6.62,43Z"/><path class="cls-99" d="M10.79,57.59c.38,0,.41.29.57.61l.58-.94c.14-.18,0-.34,0-.5A.74.74,0,0,1,12,56c.11-.13.26-.23.38-.36a.2.2,0,0,0,0-.23c-.53-.15-.82.19-1.06.57-.34.53-.69.55-1.08.06A3.8,3.8,0,0,0,10.79,57.59Z"/><path class="cls-100" d="M3.85,26.36l-.37,0-.13.58a2.07,2.07,0,0,0-.12,1.3,1.58,1.58,0,0,1-.44,1.21,1.63,1.63,0,0,0-.13,2.17c.7-.27.81-.9.89-1.52.05-.42.09-.83.13-1.25a7.23,7.23,0,0,1,.24-1.66A1.3,1.3,0,0,0,4,26.83.63.63,0,0,0,3.85,26.36Z"/><path class="cls-101" d="M5.35,19.94c-.26.32-.62-.1-.89.14,0,.53-.56.59-.73,1,.06.14.21.11.31.17a.92.92,0,0,0-.54.24c.17.53.54.46.9.26.53-.3,1.3-.41,1.11-1.32.22.19.38.14.48-.13A.5.5,0,0,0,5.35,19.94Z"/><path class="cls-102" d="M6.62,43c-.54-.2-.72-1-1.44-.88l.18.76c.24.45.49.9.74,1.35.57.48.63.44.87-.56A.64.64,0,0,0,6.62,43Z"/><path class="cls-103" d="M15.25,68.4l1.48.15c0-.37-.42-.87.33-1,.12-.3-.11-.44-.28-.62a1.34,1.34,0,0,0-1-.23c-.84-.13-.84.46-.87,1C15,68,15.15,68.18,15.25,68.4Z"/><path class="cls-104" d="M23.14,76.4c-.13.21-.64.29-.18.69a.8.8,0,0,1,.31,1c-.21.47-.56.07-.85.11s-.46.11-.69.17c.06.27.31.23.49.3.31.29.61.6,1.08.3h0l.72-.77L24,78c-.13-.29-.13-.63-.34-.88s.14-.65-.35-.68A.13.13,0,0,0,23.14,76.4Z"/><path class="cls-105" d="M12.19,61.52c.05-.88.67-1.52,1-2.3,0,0-.07-.1-.12-.15-.49,0-1-.3-1.49.06a.77.77,0,0,0,.41.25,1,1,0,0,0-.42.15l-.08,0A8.93,8.93,0,0,0,12.19,61.52Z"/><path class="cls-106" d="M14.94,67.73c.12-.11.37-.27.35-.33-.27-.75.29-.38.54-.42.12-.32-.05-.75.38-.93A2.93,2.93,0,0,0,17,65.6c.19-.26.37-.53.19-.87a.38.38,0,0,0-.45,0A6.59,6.59,0,0,0,14.55,67Z"/><path class="cls-107" d="M12.79,53.11a18.18,18.18,0,0,0-3.44.5c-.09.44.36.46.54.7.31.5.67.23,1,.08l.24-.15a2.29,2.29,0,0,1,1-.51C12.45,53.64,12.85,53.6,12.79,53.11Z"/><path class="cls-108" d="M25.27,80.43l.25-.39c-.7-.7-1.53-.25-2.31-.24l.41.47A1.06,1.06,0,0,0,25.27,80.43Z"/><path class="cls-109" d="M10.22,55.81c.35.06.55-.25.84-.33.32-.42.75-.78.63-1.38-.28-.27-.48,0-.71.1h0a2.74,2.74,0,0,1-1.07.52C9.68,55.18,10,55.48,10.22,55.81Z"/><path class="cls-110" d="M4.89,18.2c.28.4-.77,1.3.5,1.32l.08-.08c0-.09,0-.17,0-.25.18-.43.61-.35.94-.49a.43.43,0,0,0,.2-.22.61.61,0,0,0-.31-.67.57.57,0,0,0-.61.05l-.38-.06A.53.53,0,0,0,4.89,18.2Z"/><path class="cls-111" d="M5.74,17.86l.66.07.1-.11a20.37,20.37,0,0,0-.82-2.73A.4.4,0,0,0,5.4,15c-.3.13-.56.28-.48.67,0,.16,0,.34.15.43a3.37,3.37,0,0,1,.54,1.13C5.68,17.44,5.86,17.62,5.74,17.86Z"/><path class="cls-112" d="M17.52,71.17l0-.2c.15-.84.52-.92,1.09-.32,0-.28.91-.47.08-.84a3.38,3.38,0,0,0-1.7,0c-.13.37.14.72.08,1.08l.07.2A.22.22,0,0,0,17.52,71.17Z"/><path class="cls-113" d="M3.44,28.63c-.22,1,0,2.11-.78,3l0,.35.39.48c.44-.25,0-.75.32-1l0-.2a7.51,7.51,0,0,0,.53-1.28A3.58,3.58,0,0,0,4,29.45,1.71,1.71,0,0,0,4,29a.79.79,0,0,0-.24-.36A.29.29,0,0,0,3.44,28.63Z"/><path class="cls-114" d="M3,17.6l1.07.1c.41.24.72.19.87-.3l-.76-.55c-.38-.16-.74.06-1.1.09S2.78,17.35,3,17.6Z"/><path class="cls-115" d="M6.38,13.9a1.36,1.36,0,0,0,0-.2l-.63-.07c-.57-.16-1.09-.18-1.33.52a1.24,1.24,0,0,0,.33.88c.73.12.88-.56,1.27-.91A.63.63,0,0,0,6.38,13.9Z"/><path class="cls-98" d="M7,43.62c-.37.06-.15,1-.87.56-.17.35.23.43.32.66l1.51-.27Z"/><path class="cls-116" d="M4.44,14.15c.35-.41.91-.3,1.33-.52a1.49,1.49,0,0,0,0-.21c-.62-.65-1.08-.41-1.47.27C4.26,13.87,4.22,14,4.44,14.15Z"/><path class="cls-117" d="M17.52,71.17l-.35,0c.23.37-.08.82.21,1.17.12-.72.86-.29,1.18-.65C18.33,71.27,18.12,70.8,17.52,71.17Z"/><path class="cls-118" d="M2.35,34.9l-.28.43a8.77,8.77,0,0,0,.43,2.26A5.23,5.23,0,0,0,2.35,34.9Z"/><path class="cls-119" d="M17.1,70.93c.56-.4.18-.73-.08-1.08a1.43,1.43,0,0,0-.86.13C16.39,70.38,16.59,70.8,17.1,70.93Z"/><path class="cls-120" d="M5,17.4a1.3,1.3,0,0,1-.87.3c.21.25-.18.62.13.81s.44-.22.67-.31a.75.75,0,0,0,.47-.4C5.27,17.62,5.21,17.42,5,17.4Z"/><path class="cls-45" d="M23.3,79l-1.08-.3c.1.42-.16,1,.58,1.11C23,79.54,23.35,79.37,23.3,79Z"/><path class="cls-121" d="M6,13.86C5.32,14,5.49,15,4.77,15c0,.23-.13.49.15.65l.5-.6C6.13,14.91,6.3,14.5,6,13.86Z"/><path class="cls-122" d="M3.68,40.54c-.13-.72.76-1.34.21-2.1-.06-.11-.12-.11-.2,0-.14.4-.06.86-.32,1.23A.86.86,0,0,0,3.68,40.54Z"/><path class="cls-123" d="M4.06,9.65,3.64,9.6a.15.15,0,0,0-.23,0c.08.29-.22.62.12.87a.63.63,0,0,0,.26.16.45.45,0,0,0,.52-.26A.74.74,0,0,0,4.06,9.65Z"/><path class="cls-124" d="M3.67,11.1a1.17,1.17,0,0,0,.19.85.57.57,0,0,0,.63-.11c.3-.45.18-.75-.34-.9A.61.61,0,0,0,3.67,11.1Z"/><path class="cls-125" d="M3.1,16.94c.41.49.73-.09,1.1-.09C3.81,16.58,3.41,16.24,3.1,16.94Z"/><path class="cls-126" d="M9.91,54.72A.81.81,0,0,0,11,54.2c-.37-.1-.69.45-1.09.11Z"/><path class="cls-127" d="M3.41,9.58l.23,0c0-.32.23-.73-.3-.87C3.32,9,3.08,9.32,3.41,9.58Z"/><path class="cls-128" d="M25.56,81.94l.49-.07c0-.09,0-.23-.06-.25a.5.5,0,0,0-.66.12Z"/><path class="cls-129" d="M4.27,11.78,3.86,12c-.18.32.21.55.13.86l.21-.4C4.52,12.23,4.62,12,4.27,11.78Z"/><path class="cls-130" d="M5.61,17.24a1,1,0,0,0-.54-1.13A1.46,1.46,0,0,0,5.61,17.24Z"/><path class="cls-131" d="M19,75.1c.31-.6-.1-.63-.52-.65A.83.83,0,0,0,19,75.1Z"/><path class="cls-132" d="M3.5,21.45c.26,0,.53,0,.69-.27L3.73,21l-.46.38Z"/><path class="cls-86" d="M3.23,28.21l.12-1.3A1.2,1.2,0,0,0,3.23,28.21Z"/><path class="cls-133" d="M3.67,11.1l.45,0c.2-.39-.2-.46-.35-.67H3.53C3.59,10.66,3.38,10.93,3.67,11.1Z"/><path class="cls-117" d="M18.15,73.36a1.21,1.21,0,0,0-.59-.7,1.15,1.15,0,0,0,.35.89Z"/><path class="cls-134" d="M5.36,9.16l.3-1.06C5.53,7.4,6,6.66,5.52,6c-.22-.3-.27-.74-.78-.7a.49.49,0,0,1-.27.39l0,.43a2.71,2.71,0,0,1-.13,1.44L4.24,8c.28.54,0,1.16.23,1.72-.26.23,0,.5-.07.76.16.52,0,1.24.88,1.32a.49.49,0,0,0,.22-.23,1.64,1.64,0,0,0-.07-.93C5.4,10.12,5.12,9.65,5.36,9.16Z"/><path class="cls-135" d="M4.31,7.53a1.34,1.34,0,0,0,.13-1.44C4.4,6.57,4.36,7.05,4.31,7.53Z"/><path class="cls-4" d="M26.28,81c.23-.2.18-.36-.09-.41a9.25,9.25,0,0,0-.92-.12C25.48,80.86,26.07,80.54,26.28,81Z"/><path class="cls-133" d="M4.61,10.34c-.05-.22-.1-.44-.14-.66l-.41,0,.15.65A.27.27,0,0,0,4.61,10.34Z"/><path class="cls-136" d="M16.67,67.06l.38.46a1,1,0,0,0,1.23.34c.08-.51.42-.29.71-.17,0-.5-.73-.37-.6-.88.36-.65-.45-1.52.4-2.08l-.17-.22c-.19-.15-.34,0-.5.06a1,1,0,0,0-.29.3c-.15.38-.74.48-.63,1,.1.14.31.11.39.25a1.46,1.46,0,0,0-.75-.09C16.18,66.29,16.54,66.69,16.67,67.06Z"/><path class="cls-137" d="M18.28,67.86a4,4,0,0,0-1.23-.34c-.34-.1-.52.06-.68.36s.35.39.36.67-.35.37-.15.73C17.1,68.72,17.94,68.61,18.28,67.86Z"/><path class="cls-10" d="M14.31,29.75c-.25-.37-.8-.56-.73-1.13h0a.88.88,0,0,0-.53-.29c-.24,0-.51,0-.66.14s.14.47.22.7.66.59.77,1,.54.59,1,.29A.65.65,0,0,0,14.31,29.75Z"/><path class="cls-138" d="M14.31,29.75l-.09.84a3.32,3.32,0,0,0,1.85.61l-.15-.65C15.61,29.83,15,29.78,14.31,29.75Z"/><path class="cls-139" d="M16.87,27.47c-.55,0-.77.47-1.13.73C16.53,28.6,16.81,28.2,16.87,27.47Z"/><path class="cls-140" d="M12.88,29.18c.07-.3-.23-.41-.49-.68l1.19.12a.68.68,0,0,0-.21-.56c-.2-.18-.73-.12-.57-.57s.53-.45.86-.49a8.54,8.54,0,0,1,1.13,0c.13-.26.23-.51,0-.77a1.59,1.59,0,0,0-.27-.12,2.87,2.87,0,0,0-1.2-.06c-.71.64-1.85.87-2,2.06a1,1,0,0,0,0,.5,1.76,1.76,0,0,0,.85,1A1.06,1.06,0,0,0,12.88,29.18Z"/><path class="cls-141" d="M14.86,26.42a.56.56,0,0,0-.07.62c.13.22.35.32.53.18a4.85,4.85,0,0,1,2.08-.76A1.8,1.8,0,0,0,14.86,26.42Z"/><path class="cls-142" d="M14.86,26.42c.85-.11,1.7-.51,2.54,0l.19,0a1.46,1.46,0,0,0-.52-.92c-.46-.18-.95.06-1.42-.06a7.74,7.74,0,0,0-.83.07c-.51.17-.6.44-.17.81Z"/><path class="cls-143" d="M4.74,5.27c.51.66,1.14,1.28.58,2.24-.06.09.22.39.34.59.13-.26.25-.53.37-.79s.48-.8.73-1.2l.81-1.83c0-.21,0-.42.07-.63-.44-.56-1,0-1.47-.14a2.48,2.48,0,0,0-1,1A1.12,1.12,0,0,0,4.74,5.27Z"/><path class="cls-144" d="M5.22,4.46c.42-.21.83-.43,1-1-.3-.17-.63-.46-.94-.17A.78.78,0,0,0,5.22,4.46Z"/><path class="cls-67" d="M18.2,35.23l.69-.57c-.39-.23-1-.27-1-.94,0-.32.24-.46.48-.59.37,0,.34-.16.26-.4l-.21,0c-.43-.31-1.05-.14-1.43-.57h0c-.3-.21-.58-.45-.86-.69a.82.82,0,0,0-.52-.2,2.27,2.27,0,0,1-1.76.29c-.26.14-.57.21-.71.52a.53.53,0,0,0,.3.35,8.13,8.13,0,0,0,1.7.26c.35,0,.36.34.56.5a.69.69,0,0,0,.51,0c.65-.2.95,0,.72.68s.79.78.83,1.38A.32.32,0,0,0,18.2,35.23Z"/><path class="cls-145" d="M13.24,32c.3,0,.61.07.67-.35.47-.76,1.18.06,1.72-.25a.44.44,0,0,1,.4.25c.38.05.35-.15.25-.4l-.21,0a2.83,2.83,0,0,0-1.85-.61c-.14-.22-.65,0-.58-.48-.86,0-1.17.36-1.3,1.52A.85.85,0,0,0,13.24,32Z"/><path class="cls-20" d="M16.28,31.22a.45.45,0,0,1-.25.4,1.17,1.17,0,0,0,1,.52C17,31.64,17,31.12,16.28,31.22Z"/><path class="cls-20" d="M17,32.14c.28.68.83.69,1.43.57C18.18,32,17.53,32.27,17,32.14Z"/><path class="cls-146" d="M14.71,44.62,15,44c0-.3-.35-.53-.12-.86l0-.21c-.24-.5-.56-.47-.86-.09a8.89,8.89,0,0,0-1.35,1.81.74.74,0,0,0,.37.91A4.48,4.48,0,0,1,14.71,44.62Z"/><path class="cls-147" d="M14.86,43.15c-.33.34-.46.65.12.86.71.37,1.34,1,2.27.65-.11-.13-.21-.37-.32-.37-1,0-1.13-.55-.67-1.35C15.68,42.77,15.43,43.94,14.86,43.15Z"/><path class="cls-148" d="M12.8,44.64a10.4,10.4,0,0,0,1.28-1.56c.28-.52.5-.31.8-.14l.21,0c.22-.45.63-.89,0-1.36a3.88,3.88,0,0,0-1.57.94c-.17.25-.22.55-.38.8s-.61.67-.47,1.18Z"/><path class="cls-147" d="M15,41.68c.53.4,0,.86.08,1.28.56-.09.35-.76.73-1,.56-.72.21-1-.52-1.11l-.13,0a.49.49,0,0,0-.43.28A.43.43,0,0,0,15,41.68Z"/><path class="cls-149" d="M15.87,39.44c-.25-.75.67-.17.64-.7-.51,0-.16-.48-.26-.76s-.71-.6-.13-1a.52.52,0,0,0-.19-.2c-.29-.09-.49-.42-.86-.35a5.75,5.75,0,0,0-.44.54c-.87.76.11,1.17.31,1.72C15.16,39,15.14,39.67,15.87,39.44Z"/><path class="cls-150" d="M15.91,36.9l.21,0,.21,0a2.43,2.43,0,0,0,1.7,0c.25-.32.43,0,.63.06l0-.42a.88.88,0,0,0-.33-.24c-.18-.08-.39-.09-.57-.17a1.22,1.22,0,0,0,.55-.26l-.15-.65-.42,0c-.41-.32-.66,0-.93.23-.1.32-.39.26-.64.35C15.66,36,15.36,36.35,15.91,36.9Z"/><path class="cls-151" d="M15.87,39.44c-.61,0-.47-.64-.76-.92-.87.13-1,.44-.77,1.61.11.51.19,1.08,1,.74h0a3.73,3.73,0,0,0,.55-1.22A1.49,1.49,0,0,1,15.87,39.44Z"/><path class="cls-152" d="M18,36.91c-.58-.51-1.13.24-1.7,0,.87.29,1,1,1.09,1.8,0-.81.67-.89,1.18-1.15Q17.89,37.6,18,36.91Z"/><path class="cls-153" d="M17.24,46.78c-.21,0-.5-.13-.48-.31.19-1.39-1-1.07-1.67-1.39a1,1,0,0,0-1.26.31c-.31.32.13.66.27,1s0,1.09.65,1.28c.65-1.06,1.6-.57,2.47-.47A.27.27,0,0,0,17.24,46.78Z"/><path class="cls-154" d="M17.24,46.78l0,.42s0,.09,0,.13c0,.43-.69.88.07,1.27a1.65,1.65,0,0,0,.94.28l.12-.08a2.87,2.87,0,0,0,.36-1.67A2.5,2.5,0,0,1,17.24,46.78Z"/><path class="cls-155" d="M14.33,46.27c-.88-1.11.35-.89.76-1.19a.73.73,0,0,0-.38-.46c-.81-.2-1.41,0-1.58.9-.12.45.29.56.51.79a.71.71,0,0,0,.57.06Z"/><path class="cls-156" d="M18,51.73l0-.21c-.43-.88-.7-.93-2-.38-.34.18-.49.53-.75.79-.25.51-1.14.43-1.12,1.21a1.64,1.64,0,0,0,1.08.23,1.32,1.32,0,0,0,.7-.34c.51-.39.82-1.09,1.67-.9C17.73,52.16,17.92,51.93,18,51.73Z"/><path class="cls-157" d="M17.89,50.87c0-.46-1-.69-.29-1.3a.19.19,0,0,0,0-.26.61.61,0,0,0-.3,0c-.51.39-1.18-.37-1.67.23C16.25,50.94,16.3,51,17.89,50.87Z"/><path class="cls-158" d="M17.89,50.87c-1.21.2-1.66-.7-2.18-1.49.07-.32-.13-.33-.36-.32a.44.44,0,0,0-.2.39,1.18,1.18,0,0,0,.16.42,5.85,5.85,0,0,1,.55,1.32l.08.12c.7,0,1.49-.77,2.09.21C17.89,51.33,18.81,50.89,17.89,50.87Z"/><path class="cls-159" d="M18,51.73c-.36,0-.66.55-1.1.05-.16-.17-.57,0-.55.35s-.43.39-.57.65c.88.45,1.58-.25,2.37-.4l.06-.62Z"/><path class="cls-154" d="M17.62,49.36l0,.21a.74.74,0,0,0,.88-.33.45.45,0,0,0-.17-.44h0C18.09,49,17.78,49.09,17.62,49.36Z"/><path class="cls-27" d="M19.22,56.52c.2-.55.69-.74,1.16-1h0c-.36-.39-.82-.23-1.24-.2a1.38,1.38,0,0,0-.61.11c-.06.52-.58.57-.87.84a1.51,1.51,0,0,0-.4.82.65.65,0,0,0,.1.45c.4.21.37-.2.52-.36a.73.73,0,0,1,.46-.38Z"/><path class="cls-160" d="M12.85,21.13a.38.38,0,0,0-.37-.46.68.68,0,0,0-.84-.05c-1,.74-1,.74-1.7-.11-1.2-.61-2.11-.19-2.12,1,.49.92,1.47,1,2.3,1.31.28.07.43-.13.61-.28.26-.31.69-.19,1-.36A12.11,12.11,0,0,1,12.85,21.13Z"/><path class="cls-73" d="M11.87,20.39l0-.21a2.53,2.53,0,0,0-.82-.87,1.17,1.17,0,0,0-.88-.06c-.19.11-.24.46-.57.36a10.42,10.42,0,0,1-1.14-.18c-.42,0-.88,0-.77.63.82.36,1.83,0,2.56.7A1.67,1.67,0,0,0,11.87,20.39Z"/><path class="cls-161" d="M11.87,20.39l-1.51.27a.3.3,0,0,0-.42,0c-.13.71.44.89.87.81s1.18.38,1-.61c0-.15,0-.15.63-.15C12.35,20.4,12.1,20.42,11.87,20.39Z"/><path class="cls-162" d="M12.85,21.13c-.7-.1-.91.42-1.15.91a.67.67,0,0,0,.43.32,2.2,2.2,0,0,0,1.24-.15A2.23,2.23,0,0,0,12.85,21.13Z"/><path class="cls-163" d="M10.07,19.36l1,.11a.51.51,0,0,0,.86-.13c.15-.5-.23-.58-.56-.69-.27.62-1.06-.14-1.32.5a.13.13,0,0,0-.07.14S10.05,19.36,10.07,19.36Z"/><path class="cls-164" d="M12,19.34a1.41,1.41,0,0,1-.86.13,1,1,0,0,0,.78.71A.68.68,0,0,0,12,19.34Z"/><path class="cls-165" d="M13.37,22.21l-1.25-.06a.19.19,0,0,0,0,.26.91.91,0,0,0,.26.13.58.58,0,0,0,.55-.13l.85.07a1,1,0,0,1,0-.17Z"/><path class="cls-39" d="M18.41,33.13c-.32.06-.8,0-.48.59Z"/><path class="cls-166" d="M15.5,61.86A1,1,0,0,0,15.82,63a1.42,1.42,0,0,0,1.35.52.75.75,0,0,0,.61-.46c-.48-.68-.5-1.66-1.33-2.11-.23-.18-.16-.42-.15-.65a2.21,2.21,0,0,0,.84-1.4.43.43,0,0,0-.42-.14.92.92,0,0,0-.43.42c-.12.21-.2.44-.33.64-.43.54-.27,1.24-.51,1.83A.27.27,0,0,0,15.5,61.86Z"/><path class="cls-167" d="M16.45,60.9c.62.55.36,1.66,1.27,2,.07.09.14.11.21,0l.44-.16.76-1.2c-.36.09-.85-.39-1.07.36-.07.28-.35-.14-.52-.26C17.17,61.44,17.06,60.82,16.45,60.9Z"/><path class="cls-74" d="M18.84,60.29l-.17-.44c-.41.07-1.11.57-.79-.5-.28-.23-.49-.14-.65.14,0,.1.09.24.05.3-.67.92-.17,1.08.66,1.05C18.2,60.6,18.62,60.6,18.84,60.29Z"/><path class="cls-168" d="M17.23,59.49l.65-.14h0a4.64,4.64,0,0,0-.46-1.75l0-.41a.22.22,0,0,0-.24-.09.7.7,0,0,0-.33.26,2.06,2.06,0,0,0-.24.64c0,.37.22.59.43.84l-.78,1.41C16.85,60.29,16.84,59.65,17.23,59.49Z"/><path class="cls-169" d="M18.84,60.29c-.39,0-.79.05-.9.55a1.23,1.23,0,0,0,1.28-.49Z"/><path class="cls-170" d="M14,22.49l.59.27c-.26-.47.21-1.17-.48-1.51C14,21.66,14.36,22.11,14,22.49Z"/><path class="cls-74" d="M17.42,57.6c-.29.7.16,1.2.46,1.75.3-.16.85-.16.36-.74-.33-.39-.13-1-.36-1.38Z"/><path class="cls-171" d="M23.14,76.4l.21,0c0-.27,0-.54,0-.81l-.6-.09C22.47,76,22.19,76.43,23.14,76.4Z"/><path class="cls-172" d="M23.7,77.1c0,.33-.22.75.34.88C24.42,77.5,24.13,77.27,23.7,77.1Z"/><path class="cls-173" d="M5.22,10.6l.16.87a.43.43,0,0,0,.61.07l.42,0a1.49,1.49,0,0,1,0-.21c-.54-.48-.13-1.21-.46-1.74l-.21,0-.39,0A1.13,1.13,0,0,0,5.22,10.6Z"/><path class="cls-174" d="M5.22,10.6l.15-1c0-.13,0-.27,0-.4A1.31,1.31,0,0,0,5.22,10.6Z"/><path class="cls-175" d="M19.1,55.65a3.92,3.92,0,0,1,1.28-.08c-.49-.63.22-1.27,0-1.9L19.9,54c-.6-.24-.52.2-.53.53s.39.66-.26.72C19,55.3,19,55.53,19.1,55.65Z"/><path class="cls-176" d="M18.16,52.38c-.87-.34-1.55.46-2.37.4a.75.75,0,0,1-.46.38c-.57.21-1.24-.06-1.75.38a.23.23,0,0,0,0,.28h0c.6.63,1.3.09,1.95.16.86-.24,1.68-.6,2.55-.77-.08-.24-.11-.44.26-.4Z"/><path class="cls-177" d="M18.07,53.22c-1-.42-1.75.33-2.6.59a2.19,2.19,0,0,1-1.21.23.46.46,0,0,0-.43.4.31.31,0,0,0,.27.38c.42.09.48.84,1.09.58.37-.33.61-.82,1.14-.95a11,11,0,0,1,1.5-.83.67.67,0,0,0,.22-.19Z"/><path class="cls-178" d="M19.1,55.65c.74-.3.26-1.2.8-1.61.06-1.54-.94-.41-1.43-.56A2,2,0,0,1,18,55.33c.08.19.2.34.45.26Z"/><path class="cls-179" d="M18.07,55.34c.74-.49,1.07-1.07.4-1.86l-.42,0-.21,0c-.32.22-.8.38-.32.88.12.13.6.16.15.46-.29.19-.67.21-.9.51a.27.27,0,0,0,.07.27,1,1,0,0,0,.75.16A.58.58,0,0,0,18.07,55.34Z"/><path class="cls-180" d="M6.4,17.93l.14.65a.5.5,0,0,0,.41.2c.74-.12,1.15-.45.73-1.26-.34-.45-.11-1.26-.88-1.46a.73.73,0,0,1-.38-.46l-.17-.44a.21.21,0,0,0-.26,0c-.47.84.34,1.43.43,2.17,0,.23.23.43,0,.64Z"/><path class="cls-181" d="M6.8,16.06c.42.43.29,1.11.69,1.56.38.12.39-.23.41-.41,0-.35.29-.44.53-.56h0C7.86,16.54,7.54,15.73,6.8,16.06Z"/><path class="cls-71" d="M6.05,15.14h.2l0-.2c.44-.31.35-.68.1-1.05h0l-.42,0c0,.48,0,1-.54,1.22l.21,0A.28.28,0,0,0,6.05,15.14Z"/><path class="cls-182" d="M6.38,13.91A2,2,0,0,1,6.28,15c1-.06.69-.54.31-1Z"/><path class="cls-183" d="M18.35,35.88a1.06,1.06,0,0,0-.91.21c.31.48.82.38,1.26.46l.05-.42A.42.42,0,0,1,18.35,35.88Z"/><path class="cls-184" d="M14.92,23.67a.69.69,0,0,0-.37-.46c-.62,0-1.22.25-1.75-.45-.3-.37-.85-.12-.89.52.56.4.37,1,.54,1.58a2.68,2.68,0,0,0,1.87.1A8.88,8.88,0,0,0,14.92,23.67Z"/><path class="cls-185" d="M12,23.37c.17-.57.58-.86.94-.29.56.9,1.05.51,1.62.13-.37-.62-1.43.18-1.62-.8l-.63-.06c-.24.19-.5,0-.76,0a.75.75,0,0,0-.26.05c-.36.2-.58.59-1,.73a.42.42,0,0,0-.08.28.92.92,0,0,0,.5.57C11.26,24,11.8,24,12,23.37Z"/><path class="cls-186" d="M14.92,23.67c-.43.2-.82.42-.52,1a.73.73,0,0,0,.42.27.69.69,0,0,0,.63-.16c.38-.48-.54-.47-.34-.88Z"/><path class="cls-187" d="M15.45,24.78l-.63-.06c-.25.27-.12.51,0,.75a.81.81,0,0,0,.91.19c.45.32.87.07,1.29-.09l-.19-.23C16.29,25.45,15.9,25,15.45,24.78Z"/><path class="cls-188" d="M7.68,20c.28-.45.65-.41,1.07-.22s.71.32,1.06,0c.16-.26,0-.45-.14-.65h0a.38.38,0,0,1-.38-.46l-.84-.09c-.53-.17-1,.16-1.52.18s-.35.45-.3.77a1.33,1.33,0,0,0,.42.71C7.33,20.3,7.61,20.4,7.68,20Z"/><path class="cls-36" d="M6.94,18.83a2.1,2.1,0,0,0,1.51-.27c.11-.63-.76-1.26,0-1.91-1-.32-.55.72-.94,1,.29.58,0,.84-.53,1-.07,0-.1.09-.08.14S6.92,18.83,6.94,18.83Z"/><path class="cls-62" d="M9.67,19.11l.14.65c.37,0,.34-.16.26-.4a1.49,1.49,0,0,1,0-.21Z"/><path class="cls-189" d="M17.93,63l-.21,0-.46.38c-.1.68-.93.61-1.17,1.15.23,0,.48,0,.6.27l.42,0a.72.72,0,0,0,.84.08l.23-.19c.24-.38-.42-.68-.1-1.07.73-.07-.1-.29,0-.41Z"/><path class="cls-190" d="M18.08,63.6c-1,.46.16.71.1,1.07l.44-.16C18.82,64,18.3,63.88,18.08,63.6Z"/><path class="cls-191" d="M8,43.94a2.11,2.11,0,0,0,.8,1.12c.12.09.27.15,0,.21a.76.76,0,0,1-.3,0c-.14.41.14.86-.13,1.26a.36.36,0,0,0,.4.1c.58-.78,1.54-.77,2.33-1.1.17-.39-.13-.67-.23-1a1,1,0,0,0-.55-.53A8.19,8.19,0,0,1,8,43.94Z"/><path class="cls-192" d="M9.56,49.39c.9.4,1.65.9,1.49,2.06h0a.65.65,0,0,0,1,.32l0-.21c-.3-.42.09-.85,0-1.3-.18-.67-.32-1.2-1.2-1C10.45,49.4,10,49.05,9.56,49.39Z"/><path class="cls-193" d="M11,45.52c-.93,0-1.88-.14-2.23,1l.09.12c.45.19,1,.29,1.22.79a.62.62,0,0,0,.72-.07c.24-.46.9-.57,1-1.17S11.63,45.37,11,45.52Z"/><path class="cls-194" d="M11,45.52c.4.08.53.46.77.71a1.85,1.85,0,0,1,.33,1.8c-.34,1.34.35.52.72.43,0-.05.05-.09.07-.14,0-.41-.05-.81,0-1.23a2.6,2.6,0,0,0-2.21-2.46Z"/><path class="cls-191" d="M10.82,47.4,10,47.32a.91.91,0,0,0-.7-.09,2.53,2.53,0,0,0-.63.59c0,.14,0,.28,0,.42.58.33,1-.2,1.51-.27a1.14,1.14,0,0,0,1.38.21C11.44,47.73,11,47.73,10.82,47.4Z"/><path class="cls-194" d="M12.84,48.46c-.14.63-.83,1.28,0,1.9.11.15.18.35.43.23a.63.63,0,0,0,.17-.37,1.71,1.71,0,0,0-.24-1.62c-.1-.12-.21-.21-.37-.15Z"/><path class="cls-195" d="M8.66,47.82a.6.6,0,0,0,.7-.57c-.1-.3-.4-.44-.57-.69h0l-.42,0C8.47,47,7.93,47.53,8.66,47.82Z"/><path class="cls-195" d="M10.13,48c-.61-.5-1,.46-1.51.27C9.26,48.91,9.72,48.55,10.13,48Z"/><path class="cls-196" d="M13.25,50.62l-.4-.26c-.17.47-.63.87-.35,1.45l.21,0c.39-.27,1-.43.65-1.11A.52.52,0,0,0,13.25,50.62Z"/><path class="cls-197" d="M21.39,76.51a1.84,1.84,0,0,0,.71.7C22.15,76.57,22.15,76.57,21.39,76.51Z"/><path class="cls-9" d="M20.52,75.08,19.84,75c.52.38.52.38.68.07Z"/><path class="cls-198" d="M4.51,32.36c-1.12.49-.62,1.45-.65,2.26.33.13.62-.14.94-.11a2,2,0,0,1,2.54.38.66.66,0,0,0,.65.23.34.34,0,0,0,.17-.22c-.06-.44-.45-.81-.21-1.29,0,0,0-.09,0-.1A5.74,5.74,0,0,0,4.51,32.36Z"/><path class="cls-199" d="M4.51,32.36a21.25,21.25,0,0,0,3.1,1c.06,0,.1.23.15.36.29.57.63,1,1.31.45a.5.5,0,0,0,0-.32c-.73-.54-.95-1.62-2-1.86a6,6,0,0,1-2.53-1.86.73.73,0,0,0-.86-.42,2.6,2.6,0,0,0-.36,1.44c.37-.29.64-.54,1.13,0S4.81,32,4.51,32.36Z"/><path class="cls-200" d="M4.74,34.29c-.38-.13-.62.13-.88.33-.58,0-.21.54-.39.79s.19.79-.41.89c-.05,0-.07.15-.1.23,1.12.29.31,1.33.73,1.89l.2,0L4.46,37c.06-.39-.37-.78,0-1.18C4.36,35.28,5.2,34.91,4.74,34.29Z"/><path class="cls-199" d="M3.33,31.38c-.36.27-.22.69-.32,1l.36.68a1,1,0,0,1,.65-1C3.79,31.77,3.26,31.87,3.33,31.38Z"/><path class="cls-201" d="M6.64,38.51l1.49-.07c.56,0,.56-.23.36-.63-.13-.24-.44-.32-.54-.6.22-.22.72.1.76-.35s-.34-.48-.65-.56a2,2,0,0,1-.48-.17c-.27-.28,0-.87-.57-1a.88.88,0,0,0-.74.1A3.63,3.63,0,0,0,6.64,38.51Z"/><path class="cls-202" d="M7.3,36.24c.29.49,1,.07,1.33.68a1.24,1.24,0,0,0-1.3.22c.31.25.63.48.94.72s.18.46-.14.58c0,.14,0,.28,0,.42.15.15,0,.42.22.54,1.19-.29,2.11-1.36,1.95-2.26-.42-.28-1-.37-1.18-.93a.57.57,0,0,0-.27-.13C8.3,36.11,7.77,35.89,7.3,36.24Z"/><path class="cls-203" d="M6.64,38.51c0-1.08-.58-2.11-.31-3.21-.18-.18-.36-.13-.55,0s-.46.32-.65.51c-.41.41-.91.83-.08,1.31.32.19.21.58.38.84a1.82,1.82,0,0,1-.32,1c.41,0,.82.06,1.23.13C7.15,39.25,6.76,38.82,6.64,38.51Z"/><path class="cls-204" d="M6.14,41.42l.2,0c.74.11.34.75.53,1.11h0l.42.05c.52-.11,1.1-.08,1.48-.56.21-.27.06-.44-.17-.58-.43-.19-.42-.66-.65-1-.8-.33-1,.57-1.58.75Z"/><path class="cls-205" d="M6.37,41.23c.63,0,1-.48,1.55-.69.15-.17.15-.42.28-.6s.25-.41.06-.64a.45.45,0,0,0-.17-.44c-.11.21-.23.61-.32.6C6.4,39.36,6.53,40.41,6.37,41.23Z"/><path class="cls-181" d="M6.94,18.83l0-.21-.42,0h0c-.32.25-1,.1-1,.76.12.25.69.14.49.64a.64.64,0,0,0-.1.24.45.45,0,0,1-.45.17l.75.92a.51.51,0,0,0,.4-.37c.15-.48.1-1,.22-1.48C6.84,19.25,6.59,19,6.94,18.83Z"/><path class="cls-206" d="M5.14,22.26c.52,0,1-.23,1.55,0A.26.26,0,0,0,6.9,22a.65.65,0,0,0-.37-.6.42.42,0,0,0-.29,0C5.83,21.68,5.35,21.77,5.14,22.26Z"/><path class="cls-188" d="M6.24,21.49l.23,0a1.18,1.18,0,0,0,.92-.73c.14-.32.08-.54-.32-.54s-.4.42-.55.67l-.26.4C6.25,21.37,6.25,21.43,6.24,21.49Z"/><path class="cls-126" d="M13.3,50.2l-.05.42h0c.06.24.54.45.06.75s-.46.84-.27,1.34a.42.42,0,0,1-.25.4c-.42.67-1.53.19-1.81,1.09l.65-.15a2.56,2.56,0,0,0,1.84-.58c.64-.62.93-1.55,1.73-2,.28-.9.11-1.09-1.11-1.32C13.84,50.26,13.54,50,13.3,50.2Z"/><path class="cls-207" d="M12.08,51.77a1.79,1.79,0,0,1-1-.32c0,.49-.21.69-.73.45s-1-.22-1.37-.66a4.5,4.5,0,0,0,2.39,1.7C12,52.86,12,52.27,12.08,51.77Z"/><path class="cls-194" d="M13,52.71c.07-.61,0-1.33.86-1.43-.05-.43-.42-.47-.65-.66.28.61-.55.72-.54,1.21S12.67,52.52,13,52.71Z"/><path class="cls-208" d="M8.63,41.88c-.31.51-1.06.17-1.34.72.52.29-.1,1.19.71,1.34.69.86,1.52.28,2.3.23A4.56,4.56,0,0,0,8.63,41.88Z"/><path class="cls-209" d="M12.32,55.6a.45.45,0,0,0-.44.17,2.21,2.21,0,0,0-.1,1c.05.15.11.3.16.44.21.42.4.84,1,.74a.19.19,0,0,0,.08-.14c0-.06,0-.09,0-.09-.15-.2-.4-.33-.44-.62s0-.73.4-.86.48.19.65.4a1.14,1.14,0,0,0,.49.35,1.28,1.28,0,0,0,.75,0,5.07,5.07,0,0,1,.79-.36c.22-.1.45-.2.49-.48a.48.48,0,0,0-.7-.35c-.38.16-.53-.13-.76-.3s-.45.1-.67.19l-.2,0A1.54,1.54,0,0,0,12.32,55.6Z"/><path class="cls-210" d="M14,55.77l.65-.14a.4.4,0,0,0,.41.13c.19-.1.33-.24.26-.49-.64.18-.7-.74-1.29-.67,0-.09,0-.21.05-.27a.52.52,0,0,1,.66-.14c.44.2.73.21.73-.38-.64-.33-1.27.36-1.9,0-.1.45-.29.89.4,1.12S14.13,55.49,14,55.77Z"/><path class="cls-148" d="M13.4,53.38c-.5.48-1.28.17-1.77.67l-.57,1.43c.84-.55,1.35-1.59,2.5-1.66l0-.2a.22.22,0,0,0,.08-.15q0-.09,0-.09A.17.17,0,0,0,13.4,53.38Z"/><path class="cls-92" d="M12.32,55.6l1.48.15a1.1,1.1,0,0,0-1.46-.35A1.23,1.23,0,0,1,12.32,55.6Z"/><path class="cls-211" d="M5.43,38c.05-.43.57-1-.37-1.12-.38-.05-.23-.26-.12-.52.2-.45.85-.34.95-.86-.31-.34-.68-.19-1-.12s-.44.27-.68.37c-.09.48-.28,1,.29,1.3C4.78,37.33,4.85,37.91,5.43,38Z"/><path class="cls-212" d="M6.81,22l-.12.21.09.18c.11.17.19.37.41.42a1.81,1.81,0,0,1,1.25.37c.54.43,1.18.83,1.88.21a.31.31,0,0,1,0-.19.25.25,0,0,0-.19-.33,1.44,1.44,0,0,0-.94-.09,1.12,1.12,0,0,1,.79,0l.14,0c0-.09,0-.27-.08-.28a4.27,4.27,0,0,1-2.13-1C7.33,21.15,7.07,21.57,6.81,22Z"/><path class="cls-213" d="M5.11,24.37c0,.07,0,.14,0,.21a1.41,1.41,0,0,0,1.1.72c.14,0,.36-.08.35-.19a2.49,2.49,0,0,1,1.07-2,.44.44,0,0,0-.46-.3c-.68.06-1.31.18-1.49,1A1.73,1.73,0,0,1,5.11,24.37Z"/><path class="cls-214" d="M3.85,26.36l0,.42c.15.09.27,0,.4-.06a.46.46,0,0,1,.72,0,2.5,2.5,0,0,0,1,.56,1.31,1.31,0,0,0,.28.09.6.6,0,0,0,.56-.13c0-.31-.18-.45-.38-.6-.68-.32-1-1.17-1.8-1.27a.76.76,0,0,0-.43.14Z"/><path class="cls-215" d="M5.78,24a1.78,1.78,0,0,1,1.39-1.15q.12,0,.09-.12s0-.06-.07-.06l-.41-.28c-.07.57-.57.36-.88.45-.6.16-1,.42-.75,1.1A.45.45,0,0,0,5.78,24Z"/><path class="cls-216" d="M4.15,25.55l.41,0a7.33,7.33,0,0,1,2.73,1.3.8.8,0,0,0,.3-.06.45.45,0,0,0,.16-.24c0-.37-.31-.49-.51-.71a2.33,2.33,0,0,0-.61-.46,1,1,0,0,0-.3-.07c-.58,0-1.1-.61-1.72-.17A.67.67,0,0,0,4.15,25.55Z"/><path class="cls-217" d="M4.61,25.17a7.35,7.35,0,0,1,1.86.4c.15-.23,0-.33-.17-.45-.52.09-.69-.62-1.21-.54Z"/><path class="cls-218" d="M5.78,24,5.15,24l0,.42C5.42,24.4,5.72,24.44,5.78,24Z"/><path class="cls-219" d="M14,59.8c0,.15.45.31,0,.42s-.6.35-.42.75-.63,1.12,0,1.2c.42,0,1-.71,1.26-1.37,0-.09.07-.17.1-.26a.6.6,0,0,0-.18-.77A.65.65,0,0,0,14,59.8Z"/><path class="cls-220" d="M15.5,61.86l0-.21a3,3,0,0,0,.17-1.26c-.22-.13-.37,0-.48.17-.17,1-.24,2-1.64,2.07-.09,0-.18.19-.27.29C14.67,63.42,14.72,63.39,15.5,61.86Z"/><path class="cls-221" d="M15.21,60.56l.44-.17a1.28,1.28,0,0,0,.26-.47c.53-1.28.15-1.67-1.43-1.48-.31.19-.15.35,0,.5s1,0,.63.8a.51.51,0,0,0-.29.15l.14.65Z"/><path class="cls-222" d="M14.86,59.89l.41,0c.12-.44-.32-.49-.49-.74-.15,0-.29-.15-.45,0,.11-.16.31,0,.43-.11a.17.17,0,0,0,0-.24.46.46,0,0,1-.4-.25.37.37,0,0,0-.42-.11c-.21.26-.06.74-.5.86a.75.75,0,0,0,.37.46l.22,0Z"/><path class="cls-110" d="M6,20.22l.2,0c.27-.82-.16-.87-.77-.72h0l0,.42Z"/><path class="cls-223" d="M16.09,64.46c1-.29,1.14-.39,1.17-1.15L15.82,63c-.78.24-.53.89-.57,1.43C15.53,64.41,15.79,64.64,16.09,64.46Z"/><path class="cls-95" d="M13,57.79c0,.07,0,.14,0,.21.28.06.63,0,.81.29h0c.32.15.45-.06.59-.29a.54.54,0,0,0-.11-.56.71.71,0,0,0-.28-.09.7.7,0,0,0-.27.08C13.46,57.58,13.15,57.57,13,57.79Z"/><path class="cls-224" d="M11.53,59.53c.29,0,.58.19.88,0-.16-.44-.56-.31-.87-.38Z"/><path class="cls-225" d="M4.61,10.34l-.4,0a.44.44,0,0,1-.44.16c.11.23.23.45.35.67.44.13.53.34.15.65a.56.56,0,0,1-.07.63c.23,0,.48.09.65-.14s.4,0,.54-.2.41-.35-.07-.4C4.54,11.52,4.81,10.8,4.61,10.34Z"/><path class="cls-226" d="M5.32,11.67c.23.5-.42.31-.47.6.57,0,1.21.2,1.14-.73l-.61-.07Z"/><path class="cls-227" d="M14.21,57.92a.74.74,0,0,1-.46.37,1.49,1.49,0,0,0,0,.21q.07.16.21,0l.41,0,.52,0c1.27.13,1.27.13.83,1.36.22.14.31-.07.44-.17s.24-.38.27-.61c.34-.81-.45-.91-.8-1.29a1.08,1.08,0,0,0-.71-.27A1.11,1.11,0,0,0,14.21,57.92Z"/><path class="cls-221" d="M13.94,58.53l-.21,0a1.52,1.52,0,0,1-.3.82C14,59.31,13.86,58.85,13.94,58.53Z"/><path class="cls-82" d="M6.87,42.55c-.06-.42.55-1.16-.53-1.11C6.76,41.7,6.6,42.23,6.87,42.55Z"/><path class="cls-92" d="M11.78,56.82c.33-.32.1-.69.1-1C11.63,56.1,11.31,56.42,11.78,56.82Z"/><path class="cls-228" d="M4,26.59l-.23.19,0,.2a1.82,1.82,0,0,0-.17,1c.38.36.87.15,1.3.25a2.37,2.37,0,0,0,1.76-.45c.2-.59-.47-.29-.58-.56h0C5.36,27.16,4.82,26.48,4,26.59Z"/><path class="cls-229" d="M3.68,28c0-.35.07-.7.1-1.06-.46.48-.26,1.1-.34,1.65l.17,0A.44.44,0,0,0,3.68,28Z"/><path class="cls-230" d="M16.67,67.06c.2-.23-.36-.74.29-.82-.09-.59-.47-.4-.81-.29-.8.13-.52.59-.32,1C16.11,67,16.41,66.83,16.67,67.06Z"/><path class="cls-190" d="M18,64.86c-.28,0-.54-.26-.84-.08-.09.27-.19.54-.29.81.06.2.16.34.4.26C17.29,65.39,18.15,65.52,18,64.86Z"/><path class="cls-231" d="M17.22,65.85l-.4-.26a.63.63,0,0,0-.67.36c.28.06.63,0,.81.29.27,0,.62.15.7-.23C17.69,65.86,17.38,65.88,17.22,65.85Z"/><path class="cls-232" d="M5.62,19.33l.92-.75A1.23,1.23,0,0,0,5.23,19c-.2.23,0,.27.18.31S5.54,19.42,5.62,19.33Z"/><path class="cls-101" d="M5.62,19.33l-.21,0c0,.07,0,.14,0,.21.54-.07.74.23.77.72C6.78,19.45,6.38,19.29,5.62,19.33Z"/><path class="cls-182" d="M6.05,15.14l-.42,0a8.22,8.22,0,0,0,.77,2.83c.32-.14.41-.25.25-.68C6.39,16.57,5.84,16,6.05,15.14Z"/><path class="cls-233" d="M3.68,28l-.07.63.19.23c.5.4,1.12.6,1.62,1.06a2.72,2.72,0,0,1,1.07,1.77A1.72,1.72,0,0,0,8,32c.23-.15.2-.34.07-.54-.71-.1-.38-.8-.67-1.15a2.56,2.56,0,0,0,0-.55c0-1.24-.68-1.62-1.81-1.52A.77.77,0,0,1,5,28,2.15,2.15,0,0,0,3.68,28Z"/><path class="cls-234" d="M8.16,31.88C7.61,31.73,7,32,6.5,31.5a3.11,3.11,0,0,0-2.73-2.18c0,.14,0,.28,0,.42.88.59,1.28,1.72,2.39,2.08.32.1.59.37,1,.37a2.6,2.6,0,0,0,1,.18A.38.38,0,0,0,8.24,32Z"/><path class="cls-235" d="M3.77,29.32A5.4,5.4,0,0,1,6.5,31.5c.09-1.11-1.28-2.43-2.7-2.6Z"/><path class="cls-236" d="M12.42,31.68c.26-.64.4-1.37,1.22-1.57-.06-.47-.46-.66-.76-.93a.64.64,0,0,0-.67.36c-.57.22-1.12.58-1.78.33a3.86,3.86,0,0,0-2.29-1.34.58.58,0,0,0-.26.06c-.09.27-.49.44-.24.81A2.12,2.12,0,0,1,9,30.82a3.12,3.12,0,0,0,1.29,1,1,1,0,0,0,.76,0,.29.29,0,0,0,.15-.24c-.12-.22-.14-.48-.25-.75.44.17,0,.69.38.85A1,1,0,0,0,12.42,31.68Z"/><path class="cls-237" d="M11.46,28.61c.28-.62.12-1.55,1.2-1.63.33,0,.31-.51.52-.73a.63.63,0,0,0-.23-.2.81.81,0,0,0-.78.12,2.5,2.5,0,0,1-1.77.7c-.35,0-.5.31-.6.61a6.87,6.87,0,0,0,0,.79c.39.15.35.73.82.8A1.09,1.09,0,0,0,11.46,28.61Z"/><path class="cls-238" d="M11.46,28.61c-.36-.06-.58.25-.88.34-.8.22-.45.76-.34,1.23.75.09,1.51.16,2-.64Z"/><path class="cls-239" d="M13,26.22l.21,0,1.47.14c-.09-.28-.25-.61.29-.6.28,0,.6.14.84-.13a1.43,1.43,0,0,1-.82-.29c-.53-.34-1,.08-1.47.15C13.24,25.7,12.93,25.83,13,26.22Z"/><path class="cls-240" d="M16.9,35.52c.3-.09.52-.4.88-.33,0-.22.79-.58-.07-.63-.68,0-.57-.52-.51-.85.16-1,.08-1.06-.83-.81-.23.07-.47.11-.71.16a.18.18,0,0,0-.25,0c-.12.57.24,1,.38,1.55A1.52,1.52,0,0,0,16.9,35.52Z"/><path class="cls-241" d="M15.94,34.58A6.4,6.4,0,0,0,15.46,33a.48.48,0,0,0,.07-.62l-2.11-.22a.45.45,0,0,0-.34.6c.3.35.72.56,1,.91C14.7,34,15,34.91,15.94,34.58Z"/><path class="cls-242" d="M13.15,32.81l.27-.61L13.24,32c-.19-.33-.53-.23-.82-.29l-1.26-.13,0,.21c.26.27.59.51.5,1a.84.84,0,0,0,.47.38A1,1,0,0,0,13.15,32.81Z"/><path class="cls-243" d="M15.63,31.37a1.19,1.19,0,0,1-.67-.24c-.68-.58-1-.22-1.05.49C14.58,32.19,15.13,32,15.63,31.37Z"/><path class="cls-244" d="M15.53,32.42c0,.21,0,.41-.07.62l.2,0C15.8,32.81,16.07,32.53,15.53,32.42Z"/><path class="cls-148" d="M13.7,46.21l-.57-.69a1.16,1.16,0,0,1-.33-.88h0c-.43-.1-.49.22-.56.51a1.33,1.33,0,0,0,.35.65c.29.33.56.7,1.08.66a.16.16,0,0,0,.07-.16C13.73,46.24,13.72,46.21,13.7,46.21Z"/><path class="cls-245" d="M12.32,45.22l.48-.58c-.08-.52.49-.75.55-1.22a.66.66,0,0,0,0-.85c-.47-.17-.83.22-1.28.23s-.61.47-.31.69c.5.37-.05.56,0,.83S11.79,45.14,12.32,45.22Z"/><path class="cls-246" d="M15,41.68,14.86,41c-.5,0-.93-.36-1.45-.22a.55.55,0,0,0-.18.22,1,1,0,0,0,0,.3c.12.39.71.62.36,1.15l.09.12C14.05,42.23,14.78,42.33,15,41.68Z"/><path class="cls-246" d="M13.22,42.56a1.43,1.43,0,0,1,.13.86c.33-.19.23-.53.29-.82h0a.26.26,0,0,0-.42,0Z"/><path class="cls-247" d="M13.39,40.88c.5,0,.91.75,1.47.15a.42.42,0,0,0,.44-.16c-.72.26-.41-.59-.77-.72A.91.91,0,0,0,13.45,40,.65.65,0,0,0,13.39,40.88Z"/><path class="cls-248" d="M13.48,40.05l1,.1c-.24-.7-.23-1.31.58-1.63,0-.22,0-.48-.21-.55-.83-.3-.29-.63-.06-1-.41-.47-1-.23-1.49-.4a2.24,2.24,0,0,0-.93,0c-.31.11-.6.3-.56.64s.38.34.64.41.8.1.66.67c.12.43-.37.34-.49.57a1,1,0,0,0,.14,1.17.66.66,0,0,0,.26.11A.5.5,0,0,0,13.48,40.05Z"/><path class="cls-249" d="M15.94,34.58c-.8,0-1.09-.89-1.8-1-.08.07-.15.24-.11.26.74.36.28.78.05,1.15-.55.92.1,1.19.75,1.49a.34.34,0,0,0,.29-.05c.21.25.39.55.79.5a.66.66,0,0,1,.2-.92c.34-.24.54.14.86.3,0-.31,0-.53-.07-.76C16.75,35,16.13,35,15.94,34.58Z"/><path class="cls-250" d="M15.12,36.4l-.21,0a9.18,9.18,0,0,0-1.7-.57c-.5.44-.4.78.17,1s1,0,1.46.15C15.11,36.88,15.09,36.63,15.12,36.4Z"/><path class="cls-251" d="M17.2,47.2c-.59-.09-.91-.93-1.74-.51a.93.93,0,0,0-.63.91.65.65,0,0,0,.24.43c1.19.55,1.94.26,2.13-.83Z"/><path class="cls-252" d="M15,47.83l-.19-.23c-.63-.27-.12-1-.5-1.33h0c-.72,1-.43,2,.67,2.2A.51.51,0,0,0,15,47.83Z"/><path class="cls-153" d="M15,47.83l-.07.63a.65.65,0,0,0,.4.55c.41,0,.8.29,1.23.09-.26-.7.37-.38.6-.53l.1-.09c-.07-.2-.48-.37,0-.61s.18-.47-.07-.67C16.64,48.18,16.23,48.29,15,47.83Z"/><path class="cls-253" d="M17.62,49.36a.59.59,0,0,0,.69-.56l-1-.32h0c0,.28.21.66-.33.69.08.25.23.31.46.17h.21Z"/><path class="cls-254" d="M15.33,48.92,15,48.46a1.67,1.67,0,0,1-.62-2.18l-.63-.07,0,.21c-.67,1.44-.66,1.49.16,2.08a2.1,2.1,0,0,1,.67.59c.15.11.09.29.15.43a.43.43,0,0,0,.61,0l0-.42c.08,0,.11-.08.09-.13S15.36,48.92,15.33,48.92Z"/><path class="cls-255" d="M13.4,53.38l.21,0c.32.08.48,0,.46-.38a3.61,3.61,0,0,0,1.36-.92.66.66,0,0,0,.11-.65.36.36,0,0,0-.46,0c-.29.1-.9-.17-.64.57.1.27-.18.33-.36.41A1,1,0,0,0,13.4,53.38Z"/><path class="cls-159" d="M14.07,53a.75.75,0,0,1-.46.38l0,.21a5.53,5.53,0,0,0,1.74-.46Z"/><path class="cls-158" d="M15.5,51.48l-.07.63.51-.8h0C15.71,51.15,15.53,51.12,15.5,51.48Z"/><path class="cls-256" d="M15.33,48.92c0,.07,0,.14,0,.21a.43.43,0,0,1,.4.25c.56,0,1.15.77,1.7,0a.43.43,0,0,1-.4-.25.28.28,0,0,0-.42,0C16.17,49,15.77,48.79,15.33,48.92Z"/><path class="cls-257" d="M15.5,51.48a.43.43,0,0,1,.44-.17,1.6,1.6,0,0,0-.48-1.53c-.21-.26-1,.45-.8-.5.15-.06.16-.13,0-.21a1.09,1.09,0,0,0-.74-.34c-.54.5-.28,1,0,1.53.53.25,1.55,0,1.16,1.18Z"/><path class="cls-258" d="M14.66,49.28c-.3.13-.6.31-.28.66s.72-.06,1.08-.16l-.19-.23C15,49.52,14.79,49.54,14.66,49.28Z"/><path class="cls-259" d="M18.07,55.34l-.44.17c-.37.18-.31.42-.1.68l.1.11.12.07c.37-.14.92-.11.72-.78Z"/><path class="cls-259" d="M17.25,57.16l.21,0,.29-.82h0a.48.48,0,0,0-.7.2C16.89,56.82,17,57,17.25,57.16Z"/><path class="cls-260" d="M6.81,22c.41-.11.64-.6,1.13-.53.16-.87.84-1.16,2-.86l.42,0A5,5,0,0,0,7.68,20c-.18.23-.42.16-.65.15a.14.14,0,0,0,0,.2c.3.05.33.22.16.43s-.46.5-.7.76C6.59,21.67,6.7,21.84,6.81,22Z"/><path class="cls-261" d="M10.15,23l.2.25c.75.32.74-.49,1.09-.75a.65.65,0,0,0-.86-.1l-.43.4h0c-.08,0-.11.09-.08.14A.09.09,0,0,0,10.15,23Z"/><path class="cls-262" d="M10.58,22.36l.86.1h0c.2-.12.49.1.66-.15a.88.88,0,0,1,0-.16L11.7,22C11.33,22.16,10.8,21.71,10.58,22.36Z"/><path class="cls-44" d="M12.1,22.31c-.23,0-.48-.08-.66.15.33.25.63.32.86-.11Z"/><path class="cls-263" d="M17.25,57.16c-.3-.55.12-.66.5-.79l0-.21c-.17-.16-.42-.16-.62-.28-.42-.09-.82-.13-1.07.32l-.46.37c.21.31.46.6.17,1-.2.76.67.76.87,1.24l.42,0c.07-.36-.25-.58-.33-.88a.9.9,0,0,1,.27-.61Z"/><path class="cls-264" d="M16.66,58.8c.18-.67-1-.62-.71-1.34l-.13-.06c-.29.12-.45.31-.35.64s1,.46.94,1.16A.44.44,0,0,0,16.66,58.8Z"/><path class="cls-264" d="M16.14,59.81,15.7,60l0,.41c0,.43-.42.81-.13,1.26.23,0,.46-.07.36-.35C15.69,60.74,16,60.29,16.14,59.81Z"/><path class="cls-259" d="M17,57.35c-.24.14-.61.21-.27.61C17,57.83,17,57.58,17,57.35Z"/><path class="cls-265" d="M16.08,56.2a1.78,1.78,0,0,1,1.07-.11c.18-.38-.26-.43-.36-.67h0c-.26-.72.79-.61.76-1.19-.23-.39.15-.56.29-.82a3,3,0,0,0-1.57.9c-.54.33-.33,1.32-1.2,1.36l-.42,0c0,.5.21.87.77.5C15.71,56,15.87,56.09,16.08,56.2Z"/><path class="cls-251" d="M15.07,55.67c1.42.45.88-.84,1.2-1.36-.54.11-1.08.21-.95,1Z"/><path class="cls-266" d="M17.55,54.23c-.31.26-.81.2-1,.68-.13.32-.08.45.24.51.34-.16.68-.33,1-.46s.6-.1.49-.51S17.86,54.11,17.55,54.23Z"/><path class="cls-267" d="M16.79,55.42c-.07.33.25.44.36.67l.62.07c-.1-.21-.41-.37-.14-.65Z"/><path class="cls-268" d="M13.45,25.64c.56.22,1-.25,1.51-.27l-.14-.65-.42,0c-.71.36-1.41,0-2.12,0s-.67.43-.43.92A1.51,1.51,0,0,0,13.45,25.64Z"/><path class="cls-269" d="M11.78,25.47c.16-.27.33-.53.5-.8,0-.29.88-.1.38-.5-.3-.25.25-1.19-.67-.8a2.52,2.52,0,0,1-1.29.51.25.25,0,0,0-.1.24.91.91,0,0,0,.38.42c.46.18.11.7.39,1A.36.36,0,0,0,11.78,25.47Z"/><path class="cls-270" d="M10.66,24.06a.39.39,0,0,1,0-.18l-.38-.48a1.75,1.75,0,0,1-1.86-.51c-.41-.57-.8-.45-1.27-.21a1.1,1.1,0,0,0,0,.18l.39.29c.33.32.71.6,1.06.92a4,4,0,0,0,1.46.5C10.43,24.62,10.84,24.66,10.66,24.06Z"/><path class="cls-271" d="M7,20.32a1.36,1.36,0,0,1,0-.2l-.15-.66a1.84,1.84,0,0,0-.36,1.45Z"/><path class="cls-272" d="M12.32,45.22c-.29-.24-.12-.75-.55-.9-.27-.38-1.22-.33-.78-1.18,0-.75-.63-.58-1-.72-.19-.07-.44-.16-.4-.4s.3-.23.5-.25c.41,0,.8.23,1.22.08a.27.27,0,0,0,.18-.25,2,2,0,0,0-3,0c.08.07.4-.06.19.23a14,14,0,0,0,1.67,2.29.72.72,0,0,1,.38.46c.66.67,1.79.91,1.93,2,.07.6-.14,1.23.23,1.78l.19.24c.1.05.26,0,.25,0-.15-1,.38-2.13-.59-3A.73.73,0,0,0,12.32,45.22Z"/><path class="cls-76" d="M8.79,46.56a.59.59,0,0,0,.57.69c.2.08.38.38.63.07s.35-.57-.19-.65C9.47,46.62,9.13,46.6,8.79,46.56Z"/><path class="cls-273" d="M10,46.34c.25.16.47.42.79.16a.27.27,0,0,0,0-.26A.52.52,0,0,0,10,46.34Z"/><path class="cls-274" d="M12.69,45.69a5.58,5.58,0,0,1,.34,3,1.91,1.91,0,0,1,.27,1.51c.21-.05.39.28.62.06.26-.47-.37-1,.15-1.47a.28.28,0,0,0,0-.42c-.63-.21-.8-.59-.51-1.21.1-.21.39-.46.08-.74Z"/><path class="cls-275" d="M8.07,34.84l0,.21c-.16.77.34,1,.94,1.15H9c.18.54.69.59,1.12.75.51.32.45,1.23,1.26,1.25a.62.62,0,0,0,.35-1,7.42,7.42,0,0,1-.58-1.53c-.56-.38-.86-1.23-1.77-1C8.93,34.66,8.47,34.51,8.07,34.84Z"/><path class="cls-276" d="M9,36.2a2.52,2.52,0,0,1-.94-1.15c-.3,0-.46-.25-.66-.45a2,2,0,0,0-2.65-.31l-.57,1.42.65-.14c1.09-1.11,1.12-1.11,2.35-.19,0,.29.08.57.13.86A3.23,3.23,0,0,0,9,36.2Z"/><path class="cls-277" d="M8.07,34.84,9.54,35c.27-.58,0-.8-.54-.91-.57.47-.86-.1-1.24-.33A.88.88,0,0,0,8.07,34.84Z"/><path class="cls-278" d="M9,34.08c.2.29.54.5.54.91.35-.15.7-.2.78.28s.48.46.83.52c.38.27.4.92,1,1,.45-.87.35-1.11-.75-1.73a1.61,1.61,0,0,1-.86-.88,1.43,1.43,0,0,0-.31-.34c-.42-.17-.86-.64-1.22.07Z"/><path class="cls-279" d="M9,33.87c.47-.43.84.1,1.26.13.2-.32.32-.64,0-1a16.4,16.4,0,0,1-2.18-.73c-.36,0-.68-.3-1-.11a2.19,2.19,0,0,1,1,1A.91.91,0,0,0,9,33.87Z"/><path class="cls-280" d="M7.17,35.38c-.29-.48-.41-1.15-1.23-1a1.25,1.25,0,0,0-1.12,1.16l1.07-.11a.42.42,0,0,1,.44-.16Z"/><path class="cls-281" d="M11.34,38.13c-.58-.29-.64-1-1.13-1.38a.28.28,0,0,0,0,.42C10.12,38.41,9,38.7,8.26,39.3L8,39.91c.44.61.87.18,1.3,0,.47-.58.92-1.07,1.82-.76.29.1.72-.14,1.1-.17a.39.39,0,0,0,.23-.19.44.44,0,0,0-.07-.44C12.05,38.13,11.74,37.92,11.34,38.13Z"/><path class="cls-276" d="M10.17,37.17c0-.14,0-.28,0-.42-.36-.29-.93-.11-1.22-.55C9,37,9.52,37.16,10.17,37.17Z"/><path class="cls-282" d="M9.26,39.83c-.43-.13-.83.39-1.28.08-.35.18-.1.42-.06.63,0,.46-.06.94.52,1.11a2.42,2.42,0,0,1,3,.09c.92-.22,1.08-1.08,1.45-1.76,0-.36-.07-.71-.11-1.07.06-.11,0-.21-.08-.23s-.24.09-.34.19h0c-.57,1-1.6.71-2.46.89A4.43,4.43,0,0,0,9.26,39.83Z"/><path class="cls-283" d="M13.71,56.59c0-.56-.36-.82-.82-.64a.9.9,0,0,0-.53,1.35,1,1,0,0,0,1.47.15h0C14,57.13,13.82,56.87,13.71,56.59Z"/><path class="cls-264" d="M16,57.46c.91-.69,0-.67-.33-.89-.31,0-.61-.06-.68.36a.52.52,0,0,0,.18.18c.26.15.58.18.83.35Z"/><path class="cls-284" d="M15.15,57l-.21,0-.84-.08a.45.45,0,0,0-.06.62.45.45,0,0,1,.17.45c.23,0,.47.08.65-.15C14.85,57.46,15.29,57.31,15.15,57Z"/><path class="cls-285" d="M13.83,57.45a1.36,1.36,0,0,1-1.47-.15c0,.43.28.46.59.49S13.71,58,13.83,57.45Z"/><path class="cls-285" d="M14,57.47l.06-.62-.39-.26a1.34,1.34,0,0,0,.12.86Z"/><path class="cls-286" d="M10.15,23a.67.67,0,0,1,0-.2c-.41-.34-.83-.26-1.44,0Z"/><path class="cls-287" d="M8.58,23.88a.88.88,0,0,0-1-.73c-1.12.21-1.19,1.09-1.26,2l.17.45.21,0,.1,0c.65,0,0-1,.68-.95.47,0,1,.21,1.42,0C9.14,24.22,8.76,24.09,8.58,23.88Z"/><path class="cls-288" d="M9.8,28.23a.58.58,0,0,0,.07-.63.7.7,0,0,0-.21-.21c-.66-.26-1.45-.15-2-.65l-.21,0c-.33.28-.74-.28-1.07.1l.38.47a8.11,8.11,0,0,0,1,.74C8.37,28.37,9,29,9.8,28.23Z"/><path class="cls-289" d="M6.34,26.82c.34-.19.77.52,1.07-.1a4.9,4.9,0,0,0-2.28-1.23c-.22,0-.41-.1-.57.09C5.34,25.73,5.5,26.77,6.34,26.82Z"/><path class="cls-236" d="M7.73,27.81a1,1,0,0,0-1-.52l-.63-.07.59.48c.28.46.37,1.15,1.17,1h0C8.17,28.33,8,28.06,7.73,27.81Z"/><path class="cls-290" d="M4,26.59a3.83,3.83,0,0,0,2.05.63c-.36-.34-.9-.39-1.22-.86S4.28,26.35,4,26.59Z"/><path class="cls-291" d="M8.93,24.53c-.38,0-.76-.09-1.15-.1s-1.5-.71-.76.67c.05.08-.22.32-.34.49l.38.46a2.42,2.42,0,0,0,2.5-.86.58.58,0,0,0-.11-.42A.52.52,0,0,0,8.93,24.53Z"/><path class="cls-292" d="M9.49,25.06c-.63.77-1.58.77-2.43,1l.58.48a1.38,1.38,0,0,0,1.15.5,2.24,2.24,0,0,0,1.72-1C10.41,25.43,10.14,25,9.49,25.06Z"/><path class="cls-293" d="M8.88,26.87l-1.24-.34,0,.21c.35,1.09,1.37.53,2,.84.16-.11.38-.21.22-.46S9.25,26.81,8.88,26.87Z"/><path class="cls-294" d="M14.75,58.82l0,.2c.08.13.22.13.34.15-.12,0-.25,0-.36.07-.09.45.45.4.56.69C15.8,59,15.8,59,14.75,58.82Z"/><path class="cls-295" d="M14.71,59.24l.28-.08L14.73,59c-.1,0-.2,0-.29,0a1.81,1.81,0,0,0-.28.12Z"/><path class="cls-296" d="M15.15,57c-.53.6-.53.6-.29.82l.61.27.48-.58C15.83,57.06,15.51,57,15.15,57Z"/><path class="cls-297" d="M7.85,28.67c-.31-.11-.7-.11-.65-.63,0-.37-.31-.28-.52-.34-.59,0-1.11.45-1.72.25.1.14.21.39.31.38a1.77,1.77,0,0,1,2,1.56c.14.13.32.15.42,0s0-.42-.14-.61C7.72,29.1,8.05,29,7.85,28.67Z"/><path class="cls-298" d="M10.3,31.67l-1.17-1c-.65-.38-1.28-.81-2.08-.43,0,.31.45.4.11,1s.55,0,.83.2.54.26.51.63A.71.71,0,0,0,9,32.4a2,2,0,0,0,.73.05C10.15,32.39,10.06,31.9,10.3,31.67Z"/><path class="cls-299" d="M7.05,30.28c.76-.18,1.3.7,2.08.43,0-1-.63-1.39-1.55-1.43-.1.2.28.62-.28.61Z"/><path class="cls-300" d="M8.58,31.92c.3-.75-.39-.32-.59-.48l.17.44h0A.28.28,0,0,0,8.58,31.92Z"/><path class="cls-301" d="M8.58,31.92l-.42,0c0,.14,0,.28,0,.42.53.84,1.41.78,2.24.86a1.79,1.79,0,0,0,1.71,0,.22.22,0,0,0,0-.27l-.4-.25a1.61,1.61,0,0,0-1.4-.36c-.45.14-.91.36-1.3-.12A.45.45,0,0,1,8.58,31.92Z"/><path class="cls-302" d="M7.73,27.81a1.5,1.5,0,0,1,.12.86,3.3,3.3,0,0,1,2.39,1.51c0-.43-.11-.91.34-1.23-.39-.11-.19-.84-.78-.72C9,28.56,8.39,28.1,7.73,27.81Z"/><path class="cls-300" d="M10,32.49l1.67.17c.92-1-.2-.7-.54-.9l-.84-.09c-.59-.16-.56.2-.48.59C9.75,32.44,9.78,32.55,10,32.49Z"/><path class="cls-303" d="M10.91,30.47c-.24,0-.55.05-.45.27a3.77,3.77,0,0,0,.7.81c.12-.17.33-.33.33-.49C11.49,30.71,11.21,30.55,10.91,30.47Z"/><path class="cls-304" d="M8.88,26.87c.21.29,1.12-.18.78.71l.21,0c.28-.3.45-.73,1.06-.48s.81-.3,1.12-.57a1.07,1.07,0,0,1,.92-.33c.15-.2.49-.25.48-.58l-1.67-.17-.42,0a.71.71,0,0,0-.41.05,1,1,0,0,0-.5.49Z"/><path class="cls-305" d="M12.08,32.91l0,.21c-.06.38-.62.61-.32,1.09.51.27.91-.23,1.45-.15-.4.25-.64.53-.18.92.19.17.16.44.2.68l.06.13a1.76,1.76,0,0,0,1.64.59c-.11-.14-.19-.36-.32-.39-.55-.1-.69-.34-.34-.8a1.18,1.18,0,0,0-.11-1.64,1,1,0,0,0-1-.74Z"/><path class="cls-247" d="M12.85,40c-.74.38-.78,1.33-1.45,1.76l-.21,0c-.14.15-.32.08-.49.08a.37.37,0,0,0-.39.27c-.09.27.13.36.33.42.47.12.77.27.19.68-.12.2-.55.24-.33.63s.8.47,1.27.52a1.8,1.8,0,0,1,.3-.26c.15-.08.44.21.49-.13s-.19-.34-.39-.41-.4,0-.33-.28.2-.39.45-.25c.52.29.62-.29.93-.43l.21,0c.13-.32-.06-.43-.33-.48s-.51.32-.62-.06.26-.43.51-.53a1,1,0,0,0,.36-.21c0-.07,0-.14,0-.21A2.91,2.91,0,0,1,13.06,40Z"/><path class="cls-245" d="M13.35,41.3c-.34,0-.71-.15-1,.18s-.51.5-.29.8.48.48.84.08.4,0,.5.22l.21,0A1.16,1.16,0,0,0,13.35,41.3Z"/><path class="cls-245" d="M13.06,40c-.61.57-.05.8.31,1.09l0-.21.09-.83Z"/><path class="cls-306" d="M11.34,38.13l1,.32a.72.72,0,0,0,.84.09c.17-.23.6-.32.4-.73s-.57-.35-.9-.38-1,0-.38-.68a.13.13,0,0,0-.21,0c-.34-.29-.27-1-1-.94-.1.37-.31.68.13,1.06S11.89,37.69,11.34,38.13Z"/><path class="cls-274" d="M12.12,36.73l.21,0,1.05.11c-.46-.32-.23-.7-.11-1.07h0c-.11-.38-.47-.53-.72-.77a1,1,0,0,0-1.33.14C11.78,35.53,12.55,35.79,12.12,36.73Z"/><path class="cls-307" d="M13.21,38.54l-.84-.09,0,.42c.15,0,.31-.2.42,0C13,38.87,13.33,39,13.21,38.54Z"/><path class="cls-308" d="M16.59,49.05l.42,0,.69.07-.42-.68C17,48.64,16,47.86,16.59,49.05Z"/><path class="cls-258" d="M14.11,48.37l0,.42c.13.26.38.24.61.28A1.36,1.36,0,0,0,14.11,48.37Z"/><path class="cls-309" d="M8.93,24.53l.35.27c.59.23,1.07.85,1.82.49.31-.36.16-.66-.11-.94l-.33-.29c-.15.64-.53.21-.8.16-.43-.09-.85-.23-1.28-.34Z"/><path class="cls-268" d="M11,24.35l.13.85a.3.3,0,0,0,0,.41l.24-.18C11.47,25,11.89,24.44,11,24.35Z"/><path class="cls-310" d="M10.83,43.17c.4.08.81-.07.78-.46-.06-.68-.85-.13-1.14-.54,0-.51.73.1.72-.45-.45,0-.82-.44-1.3-.22-.29.13-.83-.1-.8.44a.92.92,0,0,0,.89.81C10.34,42.8,10.77,42.54,10.83,43.17Z"/><path class="cls-234" d="M11.74,34.15a1,1,0,0,1,.44-.65c.24-.21.15-.33-.12-.38l-1.7,0c0,.28-.26.54-.08.84l.18.23a.8.8,0,0,0,.74.25A.83.83,0,0,0,11.74,34.15Z"/><path class="cls-311" d="M11.3,34.32l-.84-.09c-.17.66.44.68.76.93.42.05.89-.4,1.26.12.32-.37.31-.64-.11-.8A1.52,1.52,0,0,0,11.3,34.32Z"/><path class="cls-307" d="M9.26,39.83c.91.71,1.76-.13,2.65-.13.47,0,.64-.37.41-.83C11.83,38.6,11,39,11,39c-.6-1-.94.16-1.39.16C9.32,39.14,9.29,39.55,9.26,39.83Z"/><path class="cls-312" d="M12.89,57.05c0,.25.12.29.26.29a.24.24,0,0,0,.25-.26c0-.18-.09-.27-.24-.23A.79.79,0,0,0,12.89,57.05Z"/><path class="cls-313" d="M11.12,25.61V25.2l-1.84-.4.21.26,1,.91Z"/><path class="cls-233" d="M10,32.49l-.19-.23L9,32.18C9.15,32.85,9.5,32.91,10,32.49Z"/><path class="cls-314" d="M11.3,34.32c.35.12.71.21,1,.36s.49.32.13.6l.79.51c.3-.53.38-1-.36-1.21.2-.43,1-.15.83-.67s-.73-.08-1.12-.06-.53.36-.88.3A.45.45,0,0,0,11.3,34.32Z"/><path class="cls-301" d="M10.8,33.74c.15,0,.26.11.33.08s.09-.14.13-.22-.13-.08-.17-.07A1.67,1.67,0,0,0,10.8,33.74Z"/></g></g></svg>