<?xml version="1.0" encoding="UTF-8"?>
<svg width="49px" height="49px" viewBox="0 0 49 49" version="1.1" xmlns="http://www.w3.org/2000/svg" xmlns:xlink="http://www.w3.org/1999/xlink">
    <!-- Generator: Sketch 51.3 (57544) - http://www.bohemiancoding.com/sketch -->
    <title>Group 4</title>
    <desc>Created with Sketch.</desc>
    <defs></defs>
    <g id="Page-1" stroke="none" stroke-width="1" fill="none" fill-rule="evenodd">
        <g id="Group-4" stroke="#D44D5C" stroke-width="1.5">
            <circle id="Oval-2-Copy-3" cx="24.5" cy="24.5" r="23.75"></circle>
            <path d="M42.4238461,18.3967177 C42.4015237,18.4157558 42.3832282,18.415039 42.3447888,18.3219489 C42.2115974,17.9993944 41.8688158,17.5353383 41.3419626,16.9837492 C40.2551186,15.8458776 38.4829572,14.4305571 36.4027676,13.0370856 C31.8067767,9.95833636 26.9331729,7.75 24.369129,7.75 C21.7809807,7.75 16.8826875,9.93779719 12.4340665,12.9350393 C10.3794001,14.3193632 8.6721313,15.7187781 7.66368425,16.8510036 C7.17674313,17.3977127 6.87622685,17.8577909 6.77909462,18.1768498 C6.72989937,18.3384459 6.72844188,18.3334313 6.77648922,18.3633517 C7.2190834,18.6389669 8.91339582,18.9284153 11.4623565,19.1343948 L12.2031208,19.1942554 L12.1500303,19.9355357 C11.3488526,31.1220451 11.5060293,37.5540284 12.405907,38.4761972 C14.1022504,40.2145609 34.1970674,40.2145609 36.3946166,38.419192 C37.5167819,37.5023976 37.7116214,31.1043694 36.705309,19.9175911 L36.6371149,19.1595038 L37.3961258,19.1025019 C40.1211102,18.897855 41.9698687,18.6203542 42.4301049,18.381107 Z" id="Combined-Shape"></path>
            <path d="M20.6812367,39.25 L28.3144564,39.25 C28.6292865,35.6893856 28.7864771,32.8999649 28.7864771,30.8868869 C28.7864771,28.921365 28.6196421,27.7126111 28.4263838,27.4831815 C27.6631116,26.5770515 21.4133287,26.5998205 20.5441423,27.5161483 C20.3509845,27.7197824 20.1731326,28.909276 20.1731326,30.8581546 C20.1731326,32.8708924 20.3423289,35.6700479 20.6812367,39.25 Z" id="Rectangle-6"></path>
        </g>
    </g>
</svg>