<svg id="圖層_1" data-name="圖層 1" xmlns="http://www.w3.org/2000/svg" viewBox="0 0 205 82"><defs><style>.cls-1{fill:#f5e9e2;}.cls-2{fill:#e3b5a4;}.cls-3{fill:#d44d5c;}</style></defs><title>工作區域 1</title><path class="cls-1" d="M48.88,56.41a2.14,2.14,0,0,1-2.3,2.09,2.17,2.17,0,0,1-2.38-2.09v-.07c.08-3.6.08-7.42.08-10.88,0-4.68,0-8.64-.08-10.51,0-1.44-.57-1.73-1.29-1.73-2.74-.07-8.64-.14-14.48-.14s-11.59.07-14.25.14c-.94,0-1.59.07-1.59,1.44-.07,2-.14,6.41-.14,11.59,0,3.17,0,6.63.14,10.09v.07a2.15,2.15,0,0,1-2.3,2.16A2.16,2.16,0,0,1,8,56.41v-.07c.15-7.92.22-17.72.22-26.93,0-8-.07-15.56-.22-21.1V8.24A2.22,2.22,0,0,1,10.29,6a2.22,2.22,0,0,1,2.3,2.24v.07c-.07,3-.14,6.12-.14,9,0,4.39.07,8.21.14,10.08,0,1.3.58,1.51,1.3,1.58,1.8.08,7.78.15,14,.15s12.67-.07,15.26-.15c.94,0,1.08-.64,1.08-1.51.08-1.73.15-5.62.15-10.08,0-2.88-.07-6-.15-9.07V8.24A2.18,2.18,0,0,1,46.51,6a2.23,2.23,0,0,1,2.37,2.24v.07c-.07,6.12-.14,15.34-.14,24.41s.07,18,.14,23.62Z"/><path class="cls-1" d="M120.3,8.09c-.14,6.48-.14,14.19-.14,21.6,0,6.05,0,11.88.07,16.56v.22c0,8.28-5.83,12.39-13.25,12.39a22.55,22.55,0,0,1-6.4-.94,2.62,2.62,0,0,1-2-2.52,2.19,2.19,0,0,1,2.3-2.3,4.51,4.51,0,0,1,1.3.21,16.84,16.84,0,0,0,5.4,1c4.61,0,8-2.52,8.06-8.21.08-4.32.08-9.5.08-15,0-7.7-.08-15.91-.22-22.89V8.16a2.3,2.3,0,0,1,2.45-2.3A2.17,2.17,0,0,1,120.3,8Z"/><path class="cls-1" d="M130.45,77.22a2.15,2.15,0,0,1-2.3-2.16A2.19,2.19,0,0,1,130.6,73c5.83,0,8.35-4,12.17-12.82a2.55,2.55,0,0,0,.21-.93,3.41,3.41,0,0,0-.36-1.37C140.39,52.3,132.25,33,130.45,28.11a2.36,2.36,0,0,1-.14-.94,2.09,2.09,0,0,1,2.16-2,2,2,0,0,1,2,1.44c1.8,4.82,8.06,20.95,10.15,25.7.29.65.5,1,.72,1,1.22,0,10.58-26.21,10.66-26.5a2.16,2.16,0,0,1,2.16-1.58,2.2,2.2,0,0,1,2.37,2.09,2.51,2.51,0,0,1-.21.93c-3.53,8.64-10.08,24-14.48,34.57C142.12,71.89,138.37,77.22,130.45,77.22Z"/><path class="cls-1" d="M190.14,53.17c-2.16,3.67-7,5.9-11.37,5.9-7.28,0-11.67-5-11.67-9.93,0-3.61,2.38-7.28,7.71-8.93a116.46,116.46,0,0,1,13.32-3c.86-.14,1.15-.36,1.15-.86s.07-.79.07-1.15c0-4-1.65-7.06-7.49-7.06a11.35,11.35,0,0,0-8.42,3.46,2,2,0,0,1-1.51.72,2,2,0,0,1-2-1.95c0-2.73,6.05-5.83,12.24-5.83,6.7,0,11.23,3,11.23,11a20,20,0,0,1-.07,2c-.21,2.38-.36,5.62-.36,8,0,6,1.15,7.41,4,8.93a1.51,1.51,0,0,1,.8,1.44,2.28,2.28,0,0,1-2.16,2.23,6.68,6.68,0,0,1-5-5c-.08-.22-.08-.29-.22-.29A.56.56,0,0,0,190.14,53.17Zm-1-9c0-.8.07-1.59.07-2.45,0-.58-.22-.79-.72-.79h-.22C177,42.73,171,44.17,171,49.21c0,3,2.88,6,7.71,6C185.32,55.26,189.14,50.29,189.14,44.17Z"/><path class="cls-2" d="M89.18,50.44v6.5H59.48V35.82a14.52,14.52,0,0,1,4.35-10.35,15,15,0,0,1,10.5-4.28A14.74,14.74,0,0,1,89.18,35.82Z"/><path class="cls-3" d="M59.48,50.44h29.7v6.5H59.48Z"/><path class="cls-1" d="M89.18,58.57a1.64,1.64,0,0,0,1.65-1.63V35.82a16.39,16.39,0,0,0-16.5-16.25,16.56,16.56,0,0,0-11.67,4.76,16,16,0,0,0-4.83,11.49V56.94a1.64,1.64,0,0,0,1.65,1.63ZM65,26.63a13.24,13.24,0,0,1,22.53,9.19v13H69.38a1.63,1.63,0,1,0,0,3.25H87.53v3.25H61.13V52.07h1.65a1.63,1.63,0,1,0,0-3.25H61.13V39.88a2.4,2.4,0,0,1,.72-1.72,2.52,2.52,0,0,1,1.76-.72,2.46,2.46,0,0,1,2.47,2.44v4.06a1.65,1.65,0,0,0,3.3,0V39.88a5.74,5.74,0,0,0-5.77-5.69,5.85,5.85,0,0,0-2.42.53A12.81,12.81,0,0,1,65,26.63Z"/></svg>