<svg xmlns="http://www.w3.org/2000/svg" viewBox="0 0 23 25"><defs><style>.cls-1{fill:#fe612c;}.cls-2{fill:#fe5c31;}.cls-3{fill:#fe947b;}.cls-4{fill:#fd6d17;}.cls-5{fill:#fe6517;}.cls-6{fill:#fe5a17;}.cls-7{fill:#fe772e;}.cls-8{fill:#fe6215;}.cls-9{fill:#1b4a0e;}.cls-10{fill:#fc6515;}.cls-11{fill:#fe5814;}.cls-12{fill:#fe4510;}.cls-13{fill:#fe3110;}.cls-14{fill:#2c5b1d;}.cls-15{fill:#225313;}.cls-16{fill:#fe4312;}.cls-17{fill:#fe672d;}.cls-18{fill:#336423;}.cls-19{fill:#fe3710;}.cls-20{fill:#fe5213;}.cls-21{fill:#e86d1b;}.cls-22{fill:#215113;}.cls-23{fill:#1e4c11;}.cls-24{fill:#fe722d;}.cls-25{fill:#689756;}.cls-26{fill:#598e44;}.cls-27{fill:#3a6e28;}.cls-28{fill:#7a6328;}.cls-29{fill:#fe6d26;}.cls-30{fill:#3b6a2b;}.cls-31{fill:#487737;}.cls-32{fill:#fe641d;}.cls-33{fill:#fe702b;}.cls-34{fill:#fe6014;}.cls-35{fill:#f97a16;}.cls-36{fill:#fe5012;}.cls-37{fill:#376021;}.cls-38{fill:#274813;}.cls-39{fill:#fe5811;}.cls-40{fill:#fe6c17;}.cls-41{fill:#fe4e14;}.cls-42{fill:#fe7a35;}.cls-43{fill:#fe6c19;}.cls-44{fill:#fe7928;}.cls-45{fill:#4a8a2b;}.cls-46{fill:#69a647;}.cls-47{fill:#579139;}.cls-48{fill:#3b7124;}.cls-49{fill:#458726;}.cls-50{fill:#18430d;}.cls-51{fill:#173a0a;}.cls-52{fill:#fe3012;}.cls-53{fill:#fe260e;}.cls-54{fill:#1e4914;}.cls-55{fill:#1b4311;}.cls-56{fill:#b8cdaf;}.cls-57{fill:#29591b;}.cls-58{fill:#143d0a;}.cls-59{fill:#50853a;}.cls-60{fill:#2d5d1d;}.cls-61{fill:#699053;}.cls-62{fill:#467536;}.cls-63{fill:#fe500f;}.cls-64{fill:#597b3d;}.cls-65{fill:#153709;}.cls-66{fill:#403e11;}.cls-67{fill:#69a946;}.cls-68{fill:#589737;}.cls-69{fill:#5b933d;}.cls-70{fill:#fe440e;}</style></defs><title>deco02工作區域 1</title><g id="cook_food" data-name="cook food"><path class="cls-1" d="M20.41,18.66c-.37-.1-.47.33-.75.4s-.25-.2-.26-.38.28-.51.41-.77c.65-.45.37-1.27.73-1.83.36-.18.7-.25,1,.11A5.14,5.14,0,0,1,21,17.6c0,.22-.3.34-.26.6Z"/><path class="cls-2" d="M20.91,17.61a3,3,0,0,1,.59-1.44c-.38-.82-.31-1,.46-.92.12.62-.41,1.1-.33,1.71l-.22.31C21.17,17.28,21.16,17.62,20.91,17.61Z"/><path class="cls-3" d="M20.91,17.61c.15-.13.22-.39.5-.34l-.67.93C20.63,18,20.82,17.8,20.91,17.61Z"/><path class="cls-4" d="M12.47,7.64a7.93,7.93,0,0,1,6.14,1.14,19,19,0,0,0-.42,3.2s0,0,.11,0c.34,0,.86-.38,1,.14a1.09,1.09,0,0,1-.84,1.22c-.76.12-1,.63-1.33,1.15-.2.3-.4.79-.85.55s-.18-.72,0-1.09.46-.7.29-1.17c-.06.38,0,.94-.57.88-.89-.1-.77-.84-.74-1.48-.33,0-.36.25-.51.39s-.28.51-.57.38-.23-.48-.17-.76c.09-.49.49-.79.7-1.09-1.48.9-3.26,1.25-4.9,2a1.51,1.51,0,0,0-1.81,1c-.3.72-.55,1.26.36,1.67.41.19.3.59.23.92a.87.87,0,0,1-1,.8.75.75,0,0,1-.35-.41c-.06-.73-.83-1.11-.88-1.84a1.17,1.17,0,0,1,.33-1.05c.64-.29.51-.88.51-1.4,0-.93.05-1,1-1a3.74,3.74,0,0,0,.75-.06c.21,0,.38-.15.22-.39s-.33-.73.11-1,.64.25.93.45.4.65.81.53.32-.56.37-.89,0-.49.06-.74A6.3,6.3,0,0,1,12,8C12.12,7.78,12.23,7.62,12.47,7.64Z"/><path class="cls-5" d="M9.65,12.81c.61-.44,1.62-.07,2-1,.62.42,1-.9,1.71-.22.2.19.51-.26.77-.42s.27-.73.75-.84c.56,1.09-1.22,1.45-.73,2.52a8.52,8.52,0,0,0,.61-.87c.12-.21.19-.41.48-.28a.45.45,0,0,1,.25.56,5.36,5.36,0,0,0-.14.54.62.62,0,0,0,.54.68c.44.08.43-.3.36-.57-.09-.43.23-.53.51-.79a2.8,2.8,0,0,1-.45,2.14c-.13.2-.24.46,0,.6s.42-.17.54-.36a8.16,8.16,0,0,0,.62-1c.15-.28.06-.57.64-.28s.74-.66,1.19-1.05c-.57-.33-1.07.5-1.56-.12l.47-.73c-.51-.16-.28-1.53.43-2.53a5.92,5.92,0,0,1,2,1.83c.15.25-.06.73.47.75a.09.09,0,0,1,.07.12.64.64,0,0,0,.26.62l.24.64a.8.8,0,0,1-.5.69,4.78,4.78,0,0,0-3.66,2c-.49.74-1,.69-1.65.29a3.26,3.26,0,0,1-2.9-1.78.85.85,0,0,0-1-.47,4,4,0,0,1-2-.24A.58.58,0,0,1,9.65,12.81Z"/><path class="cls-6" d="M15.93,15.45c.38-.1.74.58.83.34.25-.63,1.07-.68,1.2-1.32a.79.79,0,0,1,.93-.69,1.23,1.23,0,0,0,1.05-.42c.34-.34.82-.21,1.23,0,.64.07.62.65.82,1.06l0,.83c-.74,0-.43.55-.46.92l-.95,0c0,.25-.16.32-.37.35s-.3-.06-.36,0c-1,1.21-2.55,1.2-3.76,1.93-.67.07-.88.42-.64,1.06a2.21,2.21,0,0,1,.13.63c0,.24,0,.55-.23.65s-.42-.14-.54-.37a1.08,1.08,0,0,0-1.24-.57c-.57,0-1.17.53-1.66-.16a.58.58,0,0,1,.15-.37,7.81,7.81,0,0,0,2.09-2.12c.38-.44.93-.28,1.42-.42C14.94,16.15,15.44,15.8,15.93,15.45Z"/><path class="cls-7" d="M13.53,19.79c.76-.37,1.26-.09,1.65.95.28-.13.08-.4.18-.57a4.11,4.11,0,0,1,1.32-1.1c.81-1,1.8-.67,2.78-.38l.2.37A24.89,24.89,0,0,1,11,23.6a16.29,16.29,0,0,1-1-1.48c-.08-.27-.14-.54.15-.74a1.49,1.49,0,0,1,.93.11c.24.11.28.41.53.51.44-.2.59-1,1.29-.59a.31.31,0,0,1,0,.13s0-.09,0-.15a.38.38,0,0,1,.37-.35c.35,0,.29-.22.27-.43s-.08-.47-.11-.7A.5.5,0,0,1,13.53,19.79Z"/><path class="cls-8" d="M10.25,21.43c-.2.22,0,.45,0,.68-.46.53-.76.59-1.13.22,0,0,0-.11,0,0s0,.14.06.23c0,.73-.44,1-1.11.92-.41-.24-.93-.22-1.33-.57s-.58.24-.91.24c-1.92-.84-2.84-2.54-3.66-4.31-.12-.24-.32-.48-.25-.79.62-.16,1,0,1.21.67,0,.17,0,.41.31.37.52-.07.77,0,.85.67s.73.34,1.13.45a.29.29,0,0,1,.13.22c0,.71.41.84,1,.91,1,.12,1.89-.34,2.86-.26a1.78,1.78,0,0,1,.65.07A.39.39,0,0,1,10.25,21.43Z"/><path class="cls-9" d="M7.32.4c1.22.66,1.58,1.89,2,3.07-.19.34.5.58.13.9a.68.68,0,0,1-1.12-.14,6.6,6.6,0,0,1-.6-1.15c-.26-.58-.53-.56-.79,0,0,.12-.07.24-.11.36-.08.32-.06.66-.12,1-.2,1.35-.21,1.36-1.32,1.17a1.31,1.31,0,0,1,.12-.85c.37-.14.37-.43.33-.76-.07-.51-.17-1-.23-1.53a1.77,1.77,0,0,1,.3-1.14s0-.08,0-.09A3.61,3.61,0,0,0,7.32.4Z"/><path class="cls-10" d="M6.75,14.24c-.3.28-.21.65-.25,1-.71-.34-1.43-.57-1.42-1.64a1.64,1.64,0,0,0-1-1.43c-.56-.26-.83-.89-1.19-1.39l.27-.28a16.21,16.21,0,0,1,1.94-.38c.35,0,.7-.08,1,.22a.8.8,0,0,1-.07.93c-.52.72-.36,1,.75,1.44.11,0,.24,0,.34.1A1.48,1.48,0,0,1,6.75,14.24Z"/><path class="cls-11" d="M2.9,10.78a11.74,11.74,0,0,1,1,.86A3.8,3.8,0,0,1,5.09,13c0,.1.26.19.24.24-.34,1.1.79,1.34,1.17,2,0,.7,1,1,.84,1.76-.45.06-.51-.36-.74-.58a2.29,2.29,0,0,0-2.28-.83.24.24,0,0,1-.13-.2,1.23,1.23,0,0,1,.64-1A1.39,1.39,0,0,1,4,13.2c0-.35-.26-.37-.54-.34a.68.68,0,0,1-.75-.24c-.26-.41-.62-.31-1-.25A2.75,2.75,0,0,1,2.9,10.78Z"/><path class="cls-12" d="M1.74,12.37c.38-.53.75-.75,1.07,0,.14.35.39.35.68.19.41.08.7.23.59.75-.14.72.47,1.39.15,2.13h0c.07.29-.06.57,0,.87a.59.59,0,0,1-.26.57c-.71.13-.77-.45-.66-.81.19-.57-.27-.5-.49-.68,0,0,0-.07,0-.1.09-1.07-.05-2-1.23-2.44A.46.46,0,0,1,1.74,12.37Z"/><path class="cls-13" d="M1.58,12.89c.38.28,1-.06,1.23.29s0,1.14.33,1.69c0,.11-.18.37-.28.56a.64.64,0,0,1-.58.78.8.8,0,0,1-.81-.62,1.82,1.82,0,0,0-.23-.6A3.4,3.4,0,0,1,1.58,12.89Z"/><path class="cls-14" d="M11.52,3.41c.46-.35.93-.68,1.54-.37,1.11.56,1.15,1.45.1,2.24-.32.23-.66-.21-1,0a1.4,1.4,0,0,1-.34.13c-.33,0-.54.41-.9.37a.4.4,0,0,1-.26-.42.77.77,0,0,1,.07-.26.65.65,0,0,1,.31-.26C12.27,4.72,11.46,3.93,11.52,3.41Z"/><path class="cls-15" d="M6.79,3.06c-.18-.56.32-.61.61-.72s.4.29.51.51c.21.38.38.78.56,1.18s.57.44.95.19c-.06-.36-.61-.18-.56-.56s.33-.08.48-.19c.56.19.18,1.2,1,1.17-.13.6-.72.62-1.12.89a1,1,0,0,1-.39,0c-.37-.18-.6-.56-1-.69,0-.92-.69-.45-1.11-.48l-.12,0c0-.32,0-.64,0-1,.14,0,.3-.06.36-.19S6.86,3.11,6.79,3.06Z"/><path class="cls-16" d="M1.51,17c-.09-.17-.19-.33-.1-.53a1.32,1.32,0,0,1,.8-.21c.37,0,.66.06.56.5s.23.66.54.88C4.48,18,5,19.27,6.11,19.77a16.19,16.19,0,0,1,2.17.83.38.38,0,0,1,.13.22c-.31.48-.63.51-1.23.36a3.31,3.31,0,0,1-1.74-.87A18,18,0,0,1,1.51,17Z"/><path class="cls-17" d="M9.17,22.28l.17.21c.16-.45.58-.27.89-.38A2.36,2.36,0,0,1,11,23.6a5.67,5.67,0,0,1-3.08.18c-.32-.18-.21-.33,0-.48.65.08.91-.34,1.09-.86A.12.12,0,0,1,9.17,22.28Z"/><path class="cls-18" d="M12.47,7.64,12.16,8a.82.82,0,0,1-.24.46c-.42.22-.76-.35-1.18-.12a.76.76,0,0,1-.26,0,.69.69,0,0,1-.25-.1.46.46,0,0,1-.2-.35c.25-.2.35-.4,0-.62.11-.59.7-.63,1.06-.93a2.2,2.2,0,0,1,.32-.21.81.81,0,0,1,.93,0,.49.49,0,0,1,.23.53A1.18,1.18,0,0,0,12.47,7.64Z"/><path class="cls-19" d="M3.26,17.81c-.33-.29-1.26-.19-.67-1.07.15-.23-.07-.36-.28-.3a1.73,1.73,0,0,1-.9,0A2.49,2.49,0,0,1,1.24,15a4.71,4.71,0,0,1,.36.42c.56.87.61.87,1.26,0l.7,0c.11.52-.52,1.2.36,1.51,0,.05,0,.1,0,.15A.87.87,0,0,1,3.26,17.81Z"/><path class="cls-15" d="M5.41,5.6c1,.11,1-.62,1.2-1.27h0c.46,0,.68.61,1.19.55-.06.44-.23.86-.29,1.3a3.47,3.47,0,0,1-1.15.54c-.26-.37-.33,0-.47.12a1.14,1.14,0,0,1-.49.22.89.89,0,0,1-.76-.27c-.13-.28-.37-.55-.1-.88C5,6.25,5.21,5.94,5.41,5.6Z"/><path class="cls-20" d="M1.51,17c.55,0,.75.54,1.09.82a13,13,0,0,0,2.88,2.22s0,.17,0,.25c-.42-.12-1,.37-1.28-.2S3.69,19,2.89,19.37c0-.05-.08-.12-.07-.16.27-.89-.43-1-1-1.19A1.55,1.55,0,0,1,1.51,17Z"/><path class="cls-21" d="M6,10.42a1.75,1.75,0,0,0-1.52,0,2.11,2.11,0,0,1-1.31,0A6.37,6.37,0,0,1,5.78,9.13C6,9,6.29,9,6.36,9.3S6.48,10.17,6,10.42Z"/><path class="cls-22" d="M3.25,7.05,2.66,6.6c0-.26-.29-.3-.43-.45h0c0-.31.24-.56.16-.88a3.39,3.39,0,0,1,1.73.51c.46.36.24.67-.08,1A.82.82,0,0,1,3.25,7.05Z"/><path class="cls-23" d="M9.11,5.41l1.24-.77,1.17-1.23a3.46,3.46,0,0,1,.35.53c.38.89.21,1.1-.8,1-.06-.06-.07-.24-.15-.19s-.08.33-.07.5l-.11.16-.12,0a1.13,1.13,0,0,1-.26,0C10,5.22,9.51,6,9.11,5.41Z"/><path class="cls-24" d="M8,23.3a.41.41,0,0,0,0,.48,3.71,3.71,0,0,1-2.18-.66c.38-.52.72-1.21,1.33-.16C7.25,23.25,7.86,22.68,8,23.3Z"/><path class="cls-25" d="M12.59,6.74l-.35-.48a6.06,6.06,0,0,0-.15-1c.41-.8.71.21,1.07.06.55.22.56.49.09.83A6.55,6.55,0,0,0,12.59,6.74Z"/><path class="cls-26" d="M3.25,7.05a1.18,1.18,0,0,0,.6-.48c.47-.07.67.36,1,.54a1.06,1.06,0,0,1,.2.17,4.38,4.38,0,0,0,.7.59c.29.26.57.52.5,1C6.16,9,6,9,5.87,8.94A1.56,1.56,0,0,0,4.73,7.82,3.75,3.75,0,0,1,3.25,7.05Z"/><path class="cls-15" d="M5.63,2.46a4.23,4.23,0,0,1,.52,2c.11.75-.27.5-.62.29A4.55,4.55,0,0,1,5.63,2.46Z"/><path class="cls-27" d="M7.32.4c0,.06-.08.11-.08.16.13,1-.22,1.32-1.13.73,0,0-.12,0-.18,0A1.06,1.06,0,0,1,7.32.4Z"/><path class="cls-28" d="M5.87,8.94l.27,0c.48,0,.53.35.58.7a2.12,2.12,0,0,1-.1,1c-.21.36-.09.9-.6,1.08-.2-.07-.37-.16-.2-.41A1,1,0,0,0,6,10.42c0-.44.68-1-.22-1.29Z"/><path class="cls-29" d="M22,14.42l-.82-1.06c0-.31.29-.42.44-.62A2.62,2.62,0,0,1,22,14.42Z"/><path class="cls-30" d="M4.78,7.2c-.49,0-.53-.56-.93-.63.36-.17.5-.41.27-.79a.46.46,0,0,1,.43.13c0,.27.24.49.14.78S5.06,7,4.78,7.2Z"/><path class="cls-29" d="M21,11.36c-.11,0-.26.06-.32.14s-.09.42-.36.29-.14-.3-.05-.48.17-.47.26-.7A1.33,1.33,0,0,1,21,11.36Z"/><path class="cls-31" d="M2.39,5.27c.39.38.06.62-.16.88C1.81,5.76,2.16,5.53,2.39,5.27Z"/><path class="cls-29" d="M21.37,12.1c-.48,0-.56-.25-.26-.62A.71.71,0,0,1,21.37,12.1Z"/><path class="cls-31" d="M2.23,6.15c.25,0,.68-.08.43.45C2.49,6.48,2.23,6.44,2.23,6.15Z"/><path class="cls-32" d="M19.46,18.69c-.52-.05-1,.33-1.57-.11-.27-.22-.53,0-.61.34s-.22.34-.46.19c0-.71-.57-.51-.93-.66a2.68,2.68,0,0,1,2.08-.9c.72.06.87-.7,1.35-1,.31-.21.5-.46.85-.14,0,.18-.08.28-.21.37-.64.41-.58.85-.06,1.3A.65.65,0,0,1,19.46,18.69Z"/><path class="cls-33" d="M19.9,18.06c-.13-.29-.62.34-.65-.25,0-.44-.06-.88.35-1.17.17-.11.43-.05.57-.25a.42.42,0,0,0,.38-.2C20.55,16.89,20.68,17.63,19.9,18.06Z"/><path class="cls-34" d="M9.65,12.81,10,13a.59.59,0,0,1-.16.52,1.52,1.52,0,0,1-.44.31c-.34.44-1.13.83,0,1.32.31.13.28.6.13.94a2.46,2.46,0,0,0-.39.9c.55-.47,1.19.14,1.64-.41A.49.49,0,0,1,11,16.5a7.54,7.54,0,0,0,.82,0c.31,0,.57.11.33.51-.22.16-.42.35-.66.5-.56.37-1.11.74-.63,1.54.06.11-.06.23-.15.31a.53.53,0,0,1-.28,0,1.17,1.17,0,0,1-.26-.1C9.73,19,9.2,19,8.79,18.79s-.67-.43-1-.66-.52-.38-.25-.75c1.11-.58,1.17-1.22,0-1.88-.56-.33-.4-.47-.19-.81a1.56,1.56,0,0,0,.26-.39C8,13.32,8.38,12.51,9.65,12.81Z"/><path class="cls-35" d="M6.75,14.24c.1-.47.21-.94.31-1.41-.24-.32-.66-.55-.54-1.06a.87.87,0,0,1,.15-.24,3.55,3.55,0,0,0,.93-1.38,2.69,2.69,0,0,1,.28-.53c.22-.28.41-.6.84-.61s.5.32.71.54a3.08,3.08,0,0,1,.75,1.22A.2.2,0,0,1,10,11c-.09-.08-.2-.15-.29-.24s-.27-.5-.56-.16-.11.41.1.56c.94.67,0,.85-.3.8-1.45-.23-1.83.4-1.62,1.71C7.4,14,7.26,14.35,6.75,14.24Z"/><path class="cls-36" d="M7.54,17.38c.16.78,1,.76,1.43,1.26a.42.42,0,0,1-.13.39.45.45,0,0,1-.4.08,5.48,5.48,0,0,1-1.6-1.58c-.56-1-1.48-1-2.39-1.08-.14,0-.27,0-.35-.13-.38-.35,0-.58.13-.84,1.67-.31,1.88-.21,2.83,1.28.06.1.19.16.28.24Z"/><path class="cls-37" d="M10.09,10.85,9.3,9.69c.07-.41-.2-.87.18-1.24.35,0,.4.44.73.43s.06-.48.33-.58l.11-.15c.37.1.6.65,1.11.36l.4-.49-.6,1.73c-.35,0-.38.19-.33.48.13.66,0,1.11-.77.62C10.36,10.79,10.22,10.85,10.09,10.85Z"/><path class="cls-38" d="M10.09,10.85c.36-1.12.59.06,1,.05,0-.28,0-.56-.08-.84s-.16-.47.11-.55.31.15.47.24a4.7,4.7,0,0,1,0,.75c-.06.46,0,1-.58,1.19s-.66-.46-1-.71A.83.83,0,0,0,10.09,10.85Z"/><path class="cls-39" d="M9.62,13.5,10,13c.77,0,1.5.44,2.31,0,.42-.23.66.35.8.62a3.11,3.11,0,0,0,2.87,1.78.13.13,0,0,1,0,.09c-.32.49-.71,1,.11,1.45l-1.83.24c-.46.21-.88.72-1.42.33-.24-.18-.35-.55-.75-.51A.22.22,0,0,1,12,17l.06-.07c-.06-.43-.33-.29-.54-.18s-.47.12-.61-.17a1.81,1.81,0,0,1,1.71-.7c.24,0,.37,0,.44-.23s.19-.42-.18-.49-.22-.34-.3-.54A.9.9,0,0,0,11.33,14C10.66,14.26,10,14.32,9.62,13.5Z"/><path class="cls-40" d="M12.09,16.9a2.15,2.15,0,0,0,2.1.33c.11.12.26.31.12.4-.8.55-1.23,1.53-2.2,1.85-.4-.08-.53.35-.84.44A.47.47,0,0,1,11,20a.59.59,0,0,1-.42-.64,1.27,1.27,0,0,0,.06-.18c0-.39-.72-.64-.3-1S11.3,17,12.09,16.9Z"/><path class="cls-41" d="M10.59,19.33l.5.59a3.91,3.91,0,0,0,.68-.14h.12c.54.22,1.09-.23,1.64,0h0c-.22,1-.51,1.23-1.42,1.23-.28,0-.55,0-.83,0s-.7-.26-1,0a.69.69,0,0,1-.25,0c-.22,0-.44,0-.55-.23a.43.43,0,0,1,.1-.24c.6-.23.61-.77.69-1.28a.26.26,0,0,1,.19-.15Z"/><path class="cls-42" d="M15.89,18.45a1.1,1.1,0,0,0,.18,0c.3-.08.58-.5.87-.22s-.15.56-.12.86c-.34.57-1,.72-1.46,1.06-.08-.33-.15-.66-.24-1C14.91,18.45,15.08,18.12,15.89,18.45Z"/><path class="cls-34" d="M11.2,19.77c.3-.1.43-.76.91-.29l-.22.31h0C11.66,19.84,11.41,20.27,11.2,19.77Z"/><path class="cls-6" d="M11.11,20.87c.21,0,.46-.18.63-.13.95.32,1.38-.28,1.79-.95a.59.59,0,0,1,.23.65c-.06.56-.55.63-.94.77a4,4,0,0,1-1.73.35,1.12,1.12,0,0,1-.84-.13l-.31-.23c0-.09,0-.14.11-.15h0A2.15,2.15,0,0,1,11.11,20.87Z"/><path class="cls-43" d="M11.09,21.56c.52-.49,1.25-.26,1.84-.53a5.72,5.72,0,0,0,.83-.59c.15.48.38,1-.53.81-.06,0-.16.17-.24.27h0c-.47-.23-.69.15-.9.42s-.11.61-.48.56-.19-.42-.35-.61A3.41,3.41,0,0,1,11.09,21.56Z"/><path class="cls-43" d="M13,21.52c.12.13.28.27,0,.42-.08,0-.31,0-.32,0-.06-.22.21-.24.28-.4Z"/><path class="cls-20" d="M10.05,21.05l-.11.15c-1.24.14-2.48.23-3.71.41-.68.1-.7-.65-1.21-.79-.14,0,.33-.28.42-.51.06,0,.14,0,.18,0,.54.3,1.34.31,1.65.55.57.45.76.17,1.1-.07.41-.4.76-.24,1.11.09Z"/><path class="cls-44" d="M9.17,22.28l-.11.16c-.16-.16-.56-.08-.51-.46a.29.29,0,0,1,.36-.23C9.25,21.79,9.34,22,9.17,22.28Z"/><path class="cls-45" d="M6.79,3.06,7.3,2.9c0,.09,0,.19,0,.26-.15.28-.36.43-.67.21Z"/><path class="cls-4" d="M6.62,11.81c0,.39.48.6.44,1-.31.11-.62.3-.84-.15a.59.59,0,0,0-.31-.31c-.72-.24-.75-.46-.09-1.11a.38.38,0,0,0,.24.35C6.27,11.61,6.5,11.55,6.62,11.81Z"/><path class="cls-36" d="M4.23,15.48c-.09-.81-.59-1.56-.31-2.43,0-.09-.28-.3-.43-.45.54-.1.87,0,.76.68,0,.14,0,.41.08.45C5.75,14.4,4.35,14.9,4.23,15.48Z"/><path class="cls-19" d="M4.1,16.32l.26-.05c.6.06.56.43.4.84-.42.47-.62.08-.84-.22h0Z"/><path class="cls-46" d="M12.09,5.22c.53.28.53.63.15,1l-.69,0c-.39-.45-.13-.73.25-1Z"/><path class="cls-47" d="M11.8,5.25a1.08,1.08,0,0,0-.25,1l-.21.28A.33.33,0,0,1,11,6.41a.77.77,0,0,1-.11-.51l.06-.12C11.25,5.67,11.36,5.18,11.8,5.25Z"/><path class="cls-15" d="M10.85,5.26c-.74-.57-.09-.67.28-.91.18.26-.1.41-.06.6Z"/><path class="cls-48" d="M10.74,5.42l.19.36,0,0c-.07.27-.22.35-.47.21-.2-.32-.05-.5.25-.62Z"/><path class="cls-49" d="M7.45,6.09a.94.94,0,0,1,.34-1.16c0-.09,0-.14.13-.13.58-.16.75.24.9.66a.5.5,0,0,1,0,.27c-.22.63-.76.54-1.25.55A.24.24,0,0,1,7.45,6.09Z"/><path class="cls-50" d="M8.74,5.61a1.09,1.09,0,0,0,.08-.15l.29,0c.51.23.94-.64,1.47-.1,0,.29-.31.5-.22.81a.69.69,0,0,1-.67.52,1,1,0,0,1-.55-.24C8.87,6.21,8.84,5.89,8.74,5.61Z"/><path class="cls-51" d="M7.92,4.8l-.13.13c-.33-.11-.53.26-.88.25,0-.31.11-.69-.29-.85.14,0,.29-.12.44-.16.33-.08.63-.51.93-.31S7.74,4.46,7.92,4.8Z"/><path class="cls-52" d="M3.92,16.89c.31-.07.39.44.73.28h.13c.61.18.8.77,1.18,1.17,0,.27-.37.33-.3.72.21-.18.87.34.53-.51a.31.31,0,0,1,.32-.32c.25.32.57-.09.84.08s.44.37.71.49.24.22.43.18l.26,0a.45.45,0,0,1,.48.23c0,.74-.43.64-.89.46s-.92-.45-1.4.09c.54.18,1.15.26,1.28.94-1.41,0-2.37-1.06-3.62-1.44,0,0-.07,0-.07-.06,0-.88-.92-.84-1.27-1.36Z"/><path class="cls-53" d="M8.22,20.67a2.69,2.69,0,0,0-1.85-.77c.58-.72,1.15-1,1.91-.55.34.19.66.43.94-.07.25-.71.7-.1,1.06-.17l.14.11-.1.15c-.16.5-.21,1.05-.73,1.35l-.11.15-1.11-.09Z"/><path class="cls-48" d="M9.72,6.51A1,1,0,0,0,10.29,6a.21.21,0,0,1,.21.09c.12.21.34.15.53.21l.31.19c-.4.29-.91.39-1.24.78,0,.28-.18.4-.39.5a.46.46,0,0,1-.26,0c0-.42,0-.42-.46-.3a.63.63,0,0,1-.45,0c-.46-.69-.38-1,.3-1.22C9.11,6.47,9.37,6.66,9.72,6.51Z"/><path class="cls-54" d="M9.62,7.65l.48-.35c.51.24.2.46,0,.68a.71.71,0,0,0,.17.57c.08.15.19.29,0,.46-.76.57-.42-.55-.82-.52-.16-.05-.17-.17-.16-.31S9.64,7.9,9.62,7.65Z"/><path class="cls-55" d="M11.76,8.51c-.23.17-.54.22-.73.58-.22-.32,0-.76-.38-.94A.78.78,0,0,1,11.76,8.51Z"/><path class="cls-56" d="M10.29,9,10,8.66a.4.4,0,0,1,.35-.45l.15.09C10.72,8.9,10.7,9,10.29,9Z"/><path class="cls-57" d="M10.39,8.21,10,8.66c-.29-.24-.37-.47,0-.68Z"/><path class="cls-58" d="M7.45,6.09l.16.1A.91.91,0,0,1,6.22,7a.19.19,0,0,1,.07-.26C6.54,6.22,7.06,6.3,7.45,6.09Z"/><path class="cls-30" d="M5.6,8c-.24-.22-.63-.29-.67-.7A.59.59,0,0,1,5.42,7a.37.37,0,0,1,.38-.19A.18.18,0,0,1,6,6.93,1.82,1.82,0,0,1,5.6,8Z"/><path class="cls-59" d="M5.94,6.89a.71.71,0,0,0-.14-.1A.87.87,0,0,1,6,6.54c.23-.17-.16-.82.39-.64s-.24.51,0,.8l-.07.15C6.15,7,6.06,7,5.94,6.89Z"/><path class="cls-60" d="M5.42,7c-.13.16-.23.37-.49.35L4.78,7.2l-.09-.51Z"/><path class="cls-15" d="M10.44,6.12,10.29,6c-.1-.32.16-.5.29-.72l.16.1c-.11.17-.29.32-.21.56S10.54,6.11,10.44,6.12Z"/><path class="cls-60" d="M5.94,6.89l.28,0c.79.49.91-.47,1.39-.66s1,.08,1.13-.58l.5.61c0,.23-.11.4-.38.19-.59.2-.63.54-.25,1,0,.17.12.33.16.5,0,.41.79.81,0,1.24-.43,0-.49.44-.74.65-.5-.24-.52.55-1,.44a.86.86,0,0,1-.57-.59c0-.29-.06-.6-.39-.75A1.18,1.18,0,0,0,5.6,8,1.39,1.39,0,0,1,5.94,6.89Z"/><path class="cls-61" d="M6.62,11.81l-.56-.2.36-1.14c.42-.26.85-.56,1,.23a6.05,6.05,0,0,1-.75,1Z"/><path class="cls-62" d="M7.42,10.7c-.22-.58-.65-.24-1-.23.2-.25,0-.56.11-.83l.79.56a.3.3,0,0,1,.33.2A.27.27,0,0,1,7.42,10.7Z"/><path class="cls-63" d="M9.62,13.5c.57.32,1.09.76,1.8.19.4-.33,1.26.19,1.42.79.07.24-.14.7.47.52a1.09,1.09,0,0,1-.09,1c-.16.18-.31.72-.63.15-.22-.39-.35,0-.5,0-.39.13-.77.28-1.15.43a1.16,1.16,0,0,1-.37.07c-1,0-1.11-.06-1.07-1.13A3.7,3.7,0,0,1,9.61,15c-.26-.17-.8.21-.84-.27a1,1,0,0,1,.48-1Z"/><path class="cls-39" d="M9.25,13.69a6.46,6.46,0,0,0-.27.6c-.05.16-.22.36,0,.5s.36,0,.5-.13.27-.32.47-.16.07.39,0,.56a1.19,1.19,0,0,0-.25.79c0,.37,0,.77.55.45.33-.18.45.3.74.25-.33.16-.24,1.64-1,.34-.32.54-.73.33-1.19.09.16-.28.34-.56.49-.85s.5-.87-.36-.82c-.23,0-.43-.15-.34-.33C8.7,14.53,8.58,13.87,9.25,13.69Z"/><path class="cls-12" d="M10.28,19.11c-.33.24-.76-.21-1.06.17L8.75,19,9,18.64C9.39,18.85,9.94,18.68,10.28,19.11Z"/><path class="cls-64" d="M8.79,9.14c.54-.55-.51-.83-.22-1.34,0-.16.15-.15.27-.11s.54.19.58.54c0,.08,0,.17.05.26-.17.38.39.87-.17,1.2Z"/><path class="cls-65" d="M7.61,10.39l-.29-.19c.08-.25-.16-.58.19-.74s.42.11.54.33l-.29.47C7.77,10.36,7.72,10.41,7.61,10.39Z"/><path class="cls-66" d="M7.61,10.39l.15-.13c-.25.55-.38,1.18-1,1.42,0-.52.34-.75.71-1Z"/><path class="cls-12" d="M8.49,19a.4.4,0,0,1-.42-.06c-.34-.07-.42-.5-.77-.56s-.47.36-.69,0c-.39-.27-.92-.33-1.12-.87-.14-.36-.56-.19-.84-.31h0c-.06-.31.19-.72-.29-.9.47-.13,1-.42,1.27.25a.56.56,0,0,0,.11.15c1.31-.83.92.79,1.51,1.08S8.08,18.57,8.49,19Z"/><path class="cls-6" d="M11.2,19.77c.22.2.46,0,.69,0-.22.37-.48.41-.8.13Z"/><path class="cls-52" d="M9.59,20.72a3.94,3.94,0,0,1,.73-1.35C10.39,20,10.6,20.69,9.59,20.72Z"/><path class="cls-20" d="M11.11,20.87a1.94,1.94,0,0,1-1.06.18C10.38,20.83,10.65,20.25,11.11,20.87Z"/><path class="cls-67" d="M10.44,6.12A.24.24,0,0,0,10.53,6c.18.06.3,0,.43-.15,0,.17,0,.34.07.51-.15.17-.33.32-.57.2S10.4,6.26,10.44,6.12Z"/><path class="cls-68" d="M8.86,6.41l.38-.19.48.29C9.39,6.85,9.08,7.05,8.86,6.41Z"/><path class="cls-19" d="M4.65,17.17c.53-.18,1.08-.49,1.17.5,0,.31.7.23.79.68a.38.38,0,0,0-.37.2.26.26,0,0,1-.31-.22C5.21,18.27,5.21,17.41,4.65,17.17Z"/><path class="cls-53" d="M5.93,18.33l.31.22.63.38c-.56.25-1.14.74-1.58.17S5.7,18.59,5.93,18.33Z"/><path class="cls-19" d="M7.3,18.37c.46-.11.59.26.77.56C7.6,19,7.48,18.67,7.3,18.37Z"/><path class="cls-69" d="M8.79,7.75l-.22,0c-.1-.14,0-.27,0-.4.33.06,1-.67.89.4C9.24,8.19,9,7.83,8.79,7.75Z"/><path class="cls-57" d="M8.79,7.75l.71,0,.12-.15c.09.25-.07.41-.2.58C9.26,8,8.78,8.21,8.79,7.75Z"/><path class="cls-70" d="M12.16,15.5a1.75,1.75,0,0,1-2,.1c-.25-.29.22-1.08.78-1.21a4.09,4.09,0,0,1,1.21-.06C12.59,14.36,12.61,14.93,12.16,15.5Z"/></g></svg>