<svg xmlns="http://www.w3.org/2000/svg" viewBox="0 0 37 40"><defs><style>.cls-1{fill:#fe5a29;}.cls-2{fill:#fe6a3d;}.cls-3{fill:#fea691;}.cls-4{fill:#fe6c18;}.cls-5{fill:#fe741c;}.cls-6{fill:#fe6313;}.cls-7{fill:#fe5b12;}.cls-8{fill:#225214;}.cls-9{fill:#fe533b;}.cls-10{fill:#fe5437;}.cls-11{fill:#fe4319;}.cls-12{fill:#fe5530;}.cls-13{fill:#fd761e;}.cls-14{fill:#f3751e;}.cls-15{fill:#fe583f;}.cls-16{fill:#fe7449;}.cls-17{fill:#fe6f1e;}.cls-18{fill:#d23d12;}.cls-19{fill:#fe5d20;}.cls-20{fill:#7ca56b;}.cls-21{fill:#fe5b3f;}.cls-22{fill:#113507;}.cls-23{fill:#fe592a;}.cls-24{fill:#fe7852;}.cls-25{fill:#235015;}.cls-26{fill:#2c5d1d;}.cls-27{fill:#fe6442;}.cls-28{fill:#659652;}.cls-29{fill:#366925;}.cls-30{fill:#598d43;}.cls-31{fill:#fe644b;}.cls-32{fill:#dd7121;}.cls-33{fill:#14390b;}.cls-34{fill:#e97422;}.cls-35{fill:#316221;}.cls-36{fill:#37521b;}.cls-37{fill:#fe6f25;}.cls-38{fill:#fe693c;}.cls-39{fill:#e64417;}.cls-40{fill:#fa592a;}.cls-41{fill:#fe8060;}.cls-42{fill:#5a8f46;}.cls-43{fill:#fe5e46;}.cls-44{fill:#336521;}.cls-45{fill:#477736;}.cls-46{fill:#235414;}.cls-47{fill:#316122;}.cls-48{fill:#e3ebdf;}.cls-49{fill:#fe8875;}.cls-50{fill:#dbe6d7;}.cls-51{fill:#f3f2ee;}.cls-52{fill:#99b488;}.cls-53{fill:#c64520;}.cls-54{fill:#fe7917;}.cls-55{fill:#fe7d20;}.cls-56{fill:#fe6e19;}.cls-57{fill:#fe761e;}.cls-58{fill:#fe8221;}.cls-59{fill:#fe5c17;}.cls-60{fill:#fe5f14;}.cls-61{fill:#fe5413;}.cls-62{fill:#fe4e11;}.cls-63{fill:#fe6a19;}.cls-64{fill:#2b6314;}.cls-65{fill:#438625;}.cls-66{fill:#36721c;}.cls-67{fill:#12380a;}.cls-68{fill:#30691a;}.cls-69{fill:#0b2604;}.cls-70{fill:#143b0b;}.cls-71{fill:#3c801d;}.cls-72{fill:#416d34;}.cls-73{fill:#598748;}.cls-74{fill:#fe4d2d;}.cls-75{fill:#fe552d;}.cls-76{fill:#fe5b42;}.cls-77{fill:#fe5627;}.cls-78{fill:#fe3813;}.cls-79{fill:#fe3312;}.cls-80{fill:#fe6a1f;}.cls-81{fill:#fe4d1f;}.cls-82{fill:#fe5a24;}.cls-83{fill:#f7811f;}.cls-84{fill:#f17b1e;}.cls-85{fill:#fe693a;}.cls-86{fill:#de3c12;}.cls-87{fill:#d04f13;}.cls-88{fill:#3e6928;}.cls-89{fill:#5ba338;}.cls-90{fill:#326223;}.cls-91{fill:#337118;}.cls-92{fill:#fd3e14;}.cls-93{fill:#fe653a;}.cls-94{fill:#4f833b;}.cls-95{fill:#3f742b;}.cls-96{fill:#709b5f;}.cls-97{fill:#4a9526;}.cls-98{fill:#3a692b;}.cls-99{fill:#386524;}.cls-100{fill:#f24615;}.cls-101{fill:#fe811f;}.cls-102{fill:#fe741d;}.cls-103{fill:#fe891f;}.cls-104{fill:#fe8f23;}.cls-105{fill:#fe6c1a;}.cls-106{fill:#fe4916;}.cls-107{fill:#fe4b18;}.cls-108{fill:#ef6a18;}.cls-109{fill:#fc5316;}.cls-110{fill:#fe5412;}.cls-111{fill:#54a02e;}.cls-112{fill:#15350b;}.cls-113{fill:#549e2f;}.cls-114{fill:#62a93d;}.cls-115{fill:#234e15;}.cls-116{fill:#14370b;}.cls-117{fill:#234e16;}.cls-118{fill:#53a02d;}.cls-119{fill:#fe5026;}.cls-120{fill:#fe4117;}.cls-121{fill:#fe3e15;}.cls-122{fill:#fe3211;}.cls-123{fill:#fb741b;}.cls-124{fill:#e86e1a;}.cls-125{fill:#274b14;}.cls-126{fill:#ea5315;}.cls-127{fill:#d16314;}.cls-128{fill:#ea5f16;}.cls-129{fill:#fd4714;}.cls-130{fill:#1e3d0d;}.cls-131{fill:#fe6b1e;}.cls-132{fill:#1c4313;}.cls-133{fill:#fe5c1b;}.cls-134{fill:#fe751a;}.cls-135{fill:#fe751b;}.cls-136{fill:#f15a18;}.cls-137{fill:#fe3a14;}.cls-138{fill:#ec721a;}.cls-139{fill:#e56f17;}.cls-140{fill:#da6a15;}.cls-141{fill:#76b155;}.cls-142{fill:#2b541e;}.cls-143{fill:#345e27;}.cls-144{fill:#4d783d;}.cls-145{fill:#336025;}.cls-146{fill:#3d6529;}.cls-147{fill:#fe6c16;}.cls-148{fill:#2f5b22;}.cls-149{fill:#fc5119;}</style></defs><title>deco03工作區域 1</title><g id="cook_food" data-name="cook food"><path class="cls-1" d="M2.78,14.46A13.65,13.65,0,0,1,4.49,12.1a.57.57,0,0,1,.12.66C4,14.05,3.46,15.39,2.84,16.68a.79.79,0,0,1-.74-.46l.22-.8C2.64,15.18,2.48,14.71,2.78,14.46Z"/><path class="cls-2" d="M2.1,16.22a1.41,1.41,0,0,1,.74.42.58.58,0,0,1,.08.59,13.19,13.19,0,0,0-.66,3.52c-.18.16-.36.26-.58.09A3.68,3.68,0,0,1,2,18.1c.22-.38.33-.76-.11-1.08Z"/><path class="cls-3" d="M2.78,14.46c-.12.34,0,.77-.46,1l.27-1Z"/><path class="cls-4" d="M35.76,24.31a6.44,6.44,0,0,1-.18,4.06c-.42.94-.33,2.14-1,3.07a.72.72,0,0,1-.22.17c-.51,0-.86.35-1.31.49-.7.21-1.29.09-1.5-.62-.31-1-1.23-1.09-2-1.4a.59.59,0,0,0-.71.28.65.65,0,0,1-1,.11c-.44-.35,0-.6.17-.85a.82.82,0,0,0,.19-.67,4.69,4.69,0,0,1,1.88-4.11,1.68,1.68,0,0,1,1-.46c.84,0,1-.57,1-1.27,0-1,.1-1.13,1.1-1,1.6.25,1.73.34,2,1.85C35.27,24.47,35.69,24,35.76,24.31Z"/><path class="cls-5" d="M35.76,24.31c-.43.06-.86.29-1.31,0,0-.46.47-.15.49-.18.09-1.72-1.13-1.64-2.13-1.87-.49-.11-.62,0-.53.52.24,1.3,0,1.64-1.27,1.78-.52,0-.78.47-1.05.74A4.3,4.3,0,0,0,28.47,29c0,.44-.44.32-.69.45A3,3,0,0,1,26,29.18c.7.24,1,.55.76,1.06s-.62.4-1,.17-1.14,0-1.71-.13-1.31-.05-1.31-.83.66-.79,1.22-.84a1.71,1.71,0,0,0,.59-.15,1.59,1.59,0,0,1,.43-.06c.66.25,1.3-.62,1.95,0-.05-.42.56-.77.37-1-.62-.81.14-.82.52-1.08-.38-.24-1.07-.24-.81-1a.64.64,0,0,1,.21-.19c.93.08,1.51-.55,2.14-1.05.4-.32,0-.77.09-1.15a3.86,3.86,0,0,1,0-.58,1.58,1.58,0,0,0-.1-1.73,2,2,0,0,1-.29-1c0-.21,0-.5.22-.51.7,0,1.6-.35,2,.31.7,1.06,1.72.92,2.79,1.14-.31-1.15-1.71-1-2-2,0-.81.6-.85,1.14-1,.48.15.94.32.57,1-.23.4.15.27.25.3a1.24,1.24,0,0,1,1.08,1.37,14.15,14.15,0,0,0,.29,2.32A5.08,5.08,0,0,1,35.76,24.31Z"/><path class="cls-6" d="M27.76,29.22l.71-.23c.37.68-.48.79-.59,1.26.22.14.56.38.68.09.2-.45.53-.8.9-.6.71.37,1.67.27,2.14,1.06.8,1.32.79,1.34,2.19.72.27-.12.44-.15.61.09-.51.2-.52.84-1,1.08-1,1.06-2.44,1.28-3.55,2.11a.76.76,0,0,1-.49-.09c-1-.37-1.06-.37-.48-1.3.13-.22.26-.43.06-.65a5.12,5.12,0,0,1-.87-1.35c-.26-.55-.73-.19-1,.11a1.77,1.77,0,0,1-1.74.62c-.52-.33-.61-1-.1-1.06C26.5,30.89,27.07,30,27.76,29.22Z"/><path class="cls-7" d="M25.49,32a2.65,2.65,0,0,0,1.56-.82c.67-.77,1.24-.55,1.46.46a.61.61,0,0,0,.19.41c.64.53,1.31,1.06.11,1.74-.24.13-.1.42.24.38s.45.5.82.53c.08,0,.1.08.07.12s-.06.06-.08.06a1.66,1.66,0,0,1-1.22.74.48.48,0,0,1-.28.1,8.63,8.63,0,0,0-1.53-.07c-.61-.09-1-.34-1.11-1,0-1,1-.47,1.41-.92A.93.93,0,0,0,26,33.39a2.69,2.69,0,0,1-1.81-.12,5.78,5.78,0,0,0-2.4-.55,2,2,0,0,1-1.3-.58,5.25,5.25,0,0,0-1.22-.53c-.32-.16-.25-.5-.34-.76-.15-1.27.73-.49,1.17-.59a.94.94,0,0,1,.92.5,1.91,1.91,0,0,0,1,.79,11.75,11.75,0,0,0,1.86.67l.25.13c.5.21,1,.73,1.38-.18A.57.57,0,0,0,25.49,32Z"/><path class="cls-8" d="M25.06,4.44c.13.86.69,0,1,.23a.36.36,0,0,1,.27,0c.47.22,1,.37,1.19.93a1.84,1.84,0,0,1,.24,1,1.26,1.26,0,0,1-.16.71c-.21.22-.55.23-.79.4s-.47.56,0,.81c.47.07.55.35.39.75a.48.48,0,0,1-.06.42c-.66-.15-1.23-1-2-.27a.66.66,0,0,1-.56.1.51.51,0,0,1-.24-.35c.07-.53-.17-.76-.7-.68-.34,0-.5.41-.86.39-.8-.31-.46-.84-.26-1.34a.79.79,0,0,1,.35-.3c.1,0,.24-.07.29,0,.55.66.43-.17.62-.28.64-.52,1-.18,1.2.45.2-.45.68-.42.92-.58a9.32,9.32,0,0,0-2.42-.71c-.43,0-.94,0-.57-.68a1.38,1.38,0,0,0,.59-1.08,9.4,9.4,0,0,0-.15-1.75.4.4,0,0,1,.35-.2A1.81,1.81,0,0,1,25.06,4.44Z"/><path class="cls-9" d="M15.83,38.39a27.36,27.36,0,0,1-4.1-1.54c-.54-.27-1-.55-.68-1.31.09-.21-.09-.45-.21-.65a.54.54,0,0,1-.07-.27c.31-1,.31-1,1.2-.61.2.09.22-.21.38-.25a.64.64,0,0,1,.43,0c.31.16.63.27.93.45a1.56,1.56,0,0,1,.84,1.18.91.91,0,0,1-.16.47c.4-.12.23-.47.32-.7.56-.33.83,0,1,.45a10.36,10.36,0,0,1-.5,1.24.1.1,0,0,1-.14,0c.07.09.12,0,.2,0,.48.06,1,.61,1.37-.26.17-.4.51-.08.59.27C17.43,37.68,16.84,38.27,15.83,38.39Z"/><path class="cls-10" d="M8.79,35.67a2.56,2.56,0,0,1-1.31-.58c-.11-.49-.62-.42-.92-.66l-.45-.61a.82.82,0,0,1-.29-.92c.58-1.27.48-1.18,2.1-.94.16,0,.25-.07.37-.13.61-.36,1,0,1.2.49a.29.29,0,0,0,.3.19c1.07,0,1.25.17,1.18,1.27,0,.27-.94,0-.32.56a.6.6,0,0,1,.16.36h0c-.25,1.33-.5,1.44-1.74.8-.16-.47.86-.74.2-1.25.05.43-.78.79-.16,1.34C9,35.74,8.94,35.83,8.79,35.67Z"/><path class="cls-11" d="M2.17,20.74c-.36-1.46.31-2.76.67-4.1,0-1.42,1-2.46,1.41-3.71a4.65,4.65,0,0,0,.24-.83.65.65,0,0,1,.4-.48c.41-.21.94,0,1.2-.69.18-.47.67-.34.9.16.32,1-.43,1.36-1.09,1.7s-1,.5-.69,1.3-.46,1.13-.89,1.48a1.52,1.52,0,0,0-.68,1.83c.22.69-.43,1.38-.12,2.12a.77.77,0,0,1-.06.69.92.92,0,0,0-.64.59C2.59,20.94,2.36,21,2.17,20.74Z"/><path class="cls-12" d="M15.66,35.81c-.23-.31-.4-.77-.94-.47,0,.19-.09.24-.25.14l-.79-1.07a1.91,1.91,0,0,0-.94-.47l-.4-.11c-.17-.17-.28-.35,0-.53a1.2,1.2,0,0,1,.65,0,31.38,31.38,0,0,0,6.3,2.2c.45.24,1,.13,1.44.46a2.35,2.35,0,0,0,2.56,1.22,1.89,1.89,0,0,1,1,0,.43.43,0,0,1,.2.38l-.54.26a5.45,5.45,0,0,1-4.44-.78c-.46-.26-.66-.18-.89.19a.61.61,0,0,1-.4.16,1.89,1.89,0,0,0-1.74-1.22A1,1,0,0,1,15.66,35.81Z"/><path class="cls-13" d="M33.28,17.63c-.21.51-1.15.19-1.12,1-.14.06-.31.06-.37-.07a6.16,6.16,0,0,0-2.47-2.75.31.31,0,0,1,0-.28.78.78,0,0,1,.24-.16c1.21-.09,2.32-.63,3.51-.78.4.44,1,.71,1.11,1.37-.13.45-.64.76-.38,1.37C33.92,17.64,33.45,17.51,33.28,17.63Z"/><path class="cls-14" d="M33,14.57a7.7,7.7,0,0,1-3.48,1c-.3-.39-.45-.87-1-1.12s-.31-.59.1-.82a3.19,3.19,0,0,1,1.64-1,1.49,1.49,0,0,1,1.78.83C32.33,13.89,33,14,33,14.57Z"/><path class="cls-15" d="M15.66,35.81c.65-.18,1.15.39,1.85.3.48-.06.68.71.74,1.26a1,1,0,0,1-.47,1,2,2,0,0,1-2,.06c.68-.35,1.47-.64,1.16-1.75-.46.19,0,1.09-.68.91a2.07,2.07,0,0,1-1.17-.6h0C15.15,36.5,15.09,36,15.66,35.81Z"/><path class="cls-16" d="M2.17,20.74l.64,0c.53-.07.6.31.3.52-.67.49-.44,1.07-.36,1.67a10,10,0,0,1,.1,2.25A6.14,6.14,0,0,0,3,26.49c0,.27.07.53-.19.72-.62.15-.7-.38-.91-.74A2.3,2.3,0,0,1,1.67,25a38.3,38.3,0,0,0,0-4.15Z"/><path class="cls-17" d="M33.28,17.63c-.17-.39.62-.07.34-.36-.9-.92.26-.93.53-1.33A17.71,17.71,0,0,1,35.4,22.5a4.48,4.48,0,0,1-.4-2.18c0-.92-.44-1.31-1.3-1.26a.47.47,0,0,1-.56-.45c0-.51.39-.18.62-.28A1.47,1.47,0,0,0,33.28,17.63Z"/><path class="cls-18" d="M11.92,6.86A1.82,1.82,0,0,1,13,6.7c.24,0,.47.22.71,0,.6,0,1,.43,1.55.59a.65.65,0,0,1,.21.16c.23.25.73.26.69.76a3.06,3.06,0,0,1-1.64,1,1.1,1.1,0,0,1-1.09-.42C13,8.13,12.34,7.68,11.93,7,11.93,7,11.92,6.91,11.92,6.86Z"/><path class="cls-19" d="M24.47,37.59l-.19-.3c-.28-.38-.11-.79-.09-1.19,0-.21.2-.37.2-.58,0-.68.52-.73.79-.37.74,1,1.66.72,2.59.53.21,0,.41,0,.62-.06l.25,0C27.13,36.05,26.17,37.62,24.47,37.59Z"/><path class="cls-20" d="M15.3,7c-.23-.85-1.15-1.33-1.17-2.28,0-.44-.25-1,.45-1.13a1.32,1.32,0,0,0,1.18.81c.37,0,.77.1.73.63-.06.34-.27.61-.35.93a.41.41,0,0,0,.19.55.8.8,0,0,1,0,1.35.36.36,0,0,1-.27,0,.73.73,0,0,1-.28-.3A1.72,1.72,0,0,0,15.3,7Z"/><path class="cls-21" d="M18.5,37.22c0-.55.29-1,.75-.61,1.08,1,2.49.82,3.7,1.3.27.11.65,0,1-.06a3.91,3.91,0,0,1-2.56.82C20.41,38.21,19.46,37.71,18.5,37.22Z"/><path class="cls-22" d="M23.39,2.69c.59.43.19,1.1.4,1.62-.64.08-.63.69-.88,1.09a.76.76,0,0,1-.3,0A1.75,1.75,0,0,1,22,5.05c-.42-.82-.42-.87.14-1.78-.29-.2-.76-.12-.92-.54l.14-.38a1.24,1.24,0,0,1,1.31-.07A3.33,3.33,0,0,1,23.39,2.69Z"/><path class="cls-23" d="M6.93,11.1c-.23-.21-.73-.42-.71-.09.07,1.49-.89.44-1.33.61L6.14,10A6.34,6.34,0,0,0,8.38,8h0c.33-.07.48.07.47.4-.24.43-.7.77-.53,1.36a1.91,1.91,0,0,1-1.25,1.27Z"/><path class="cls-24" d="M1.85,26.47c.3.24.48.65.93.67.24,0,.34.13.44.3a3.16,3.16,0,0,0,.4,1,5.16,5.16,0,0,1,.15,1.79.4.4,0,0,1-.24.2A.83.83,0,0,1,3,30.23,7.82,7.82,0,0,1,1.85,26.47Z"/><path class="cls-25" d="M21.2,2.73l1.48.4c-.54.5-1.19,1-.54,1.81.12.26.08.5-.2.57a.57.57,0,0,1-.72-.42c-.26-.25-.83.14-.93-.45C20.6,4,20.9,3.37,21.2,2.73Z"/><path class="cls-26" d="M27.29,5.69c-.15-.52-.81-.47-1-.91.43-.2,1,.06,1.37-.31h0a1,1,0,0,0,1.32,0l.39.11c.13.19.38.3.39.58-.15.47-.47.9-.37,1.43a2.75,2.75,0,0,1-.2.38l-.26.14c-.79-.12-.81-.91-1.14-1.4S27.44,5.71,27.29,5.69Z"/><path class="cls-27" d="M3.61,30.38l.06-.2c.57-.17.81.35,1.2.57.52.44,1,.87.62,1.68-.13.27.39.24.43.51l.19.88a3.6,3.6,0,0,1-1.92-1.58c-.08-.41,0-.85-.44-1.15A.5.5,0,0,1,3.61,30.38Z"/><path class="cls-28" d="M16.31,5.07c0-.77-.59-.31-.88-.44-.49-.23-1.24-.18-.85-1.07a7.32,7.32,0,0,1,2.71.29.22.22,0,0,1,0,.22.43.43,0,0,0-.09.42l.06.24a.38.38,0,0,1-.17.46C16.81,5.27,16.53,5.37,16.31,5.07Z"/><path class="cls-29" d="M27.29,5.69c.36-1.06.56.21.86.06-.11.64.52.86.74,1.31a4.21,4.21,0,0,1-1.54.77c-.16,0-.32,0-.4.16s-.31.3-.14.54c-.23,0-.6.24-.61-.23,0-.31,0-.7.42-.84a8.08,8.08,0,0,1,.88-.22c.27-.21.1-.41,0-.62C27.6,6.28,27.35,6,27.29,5.69Z"/><path class="cls-30" d="M20.29,4.64c.37.59.86-.33,1.24.11-.39.34-.25.73-.13,1.13-.1,1-.69,1.15-1.52,1a.71.71,0,0,1-.38-.23,1.06,1.06,0,0,1-.08-.74c.29-.35.48-.69-.15-.89-.16-.12-.35-.22-.24-.47C19.45,4.57,19.84,5,20.29,4.64Z"/><path class="cls-31" d="M18.5,37.22a4.19,4.19,0,0,1,2.87,1.45,2.27,2.27,0,0,1-1.34.06,2.08,2.08,0,0,0-1.85-.32l-.4-.08a1.62,1.62,0,0,1,.47-1Z"/><path class="cls-15" d="M8.79,35.67l.3-.15h0c.79.18,1.46.11,1.72-.82.34.07.61.23.51.62a1.4,1.4,0,0,0,.41,1.53A14.93,14.93,0,0,1,8.79,35.67Z"/><path class="cls-25" d="M22.77,2.54a3.33,3.33,0,0,0-1.43-.19A3.25,3.25,0,0,1,22.62.73c.33.17.51-.08.71-.25s.14-.16.26-.09c.39.63.08,1.18-.19,1.74A.6.6,0,0,1,22.77,2.54Z"/><path class="cls-32" d="M27.78,10.43c.79.62,1.92.73,2.53,1.63-.28.67-.87.36-1.34.42-.52-.15-.74-.65-1.13-1a3.27,3.27,0,0,1-.35-.7C27.4,10.57,27.4,10.35,27.78,10.43Z"/><path class="cls-33" d="M23.36,2.06,23.59.39a1.29,1.29,0,0,1,1.35,1.43,1.44,1.44,0,0,1-1.21.46A.52.52,0,0,1,23.36,2.06Z"/><path class="cls-34" d="M28.91,12.37c.43-.3,1,0,1.4-.31a1.71,1.71,0,0,0,1.06.55c.43.09.77.3.75.82-1.08-1-2-1-2.93.23a.51.51,0,0,1-.45.18c0-.05,0-.09,0-.14C28.88,13.28,28.73,12.8,28.91,12.37Z"/><path class="cls-35" d="M23.76,2.14l1.18-.32a5.66,5.66,0,0,1,.12,2.62,2.29,2.29,0,0,0-1.41-1.89A.28.28,0,0,1,23.76,2.14Z"/><path class="cls-36" d="M27.78,10.43c-.38.38.37.59.14,1,.06.26.24.49.17.78s-.13.49-.4.54-.43-.19-.46-.43c-.08-.63-.84-1.06-.52-1.79a2.16,2.16,0,0,1,.35-.77l.14-.43A2.51,2.51,0,0,0,27.78,10.43Z"/><path class="cls-37" d="M29.86,34.92c0-.06,0-.12,0-.18.58-.29.68-1.43,1.72-.94.17.08.47-.14.57-.36.27-.55.78-.62,1.28-.75a4.41,4.41,0,0,1-2.65,1.7A2.57,2.57,0,0,0,29.86,34.92Z"/><path class="cls-38" d="M8.38,8c-.14.57-.66.93-.78,1.59-.06.39-1,.13-1.46.41C6.42,8.83,7.48,8.51,8.38,8Z"/><path class="cls-39" d="M10.58,7.17a3,3,0,0,1,1.34-.31l.05.07c.31.87-.34,1.15-.9,1.49-.64-.07-.79-.46-.71-1A.54.54,0,0,1,10.58,7.17Z"/><path class="cls-40" d="M10.58,7.17c0,.06,0,.13-.05.19a5.65,5.65,0,0,0-.75.87c-.29.34-.52.9-1.09.34A.42.42,0,0,0,8.38,8C9.05,7.59,9.63,6.89,10.58,7.17Z"/><path class="cls-41" d="M3.61,30.38c.06.28.16.6.41.69.87.3.39.74.17,1.17a5.74,5.74,0,0,1-1.24-2Z"/><path class="cls-42" d="M29.6,5l-.27-.51a11.7,11.7,0,0,1,1.19.13c.38.08.75.23.53.76-.33.15-.69.24-1,.42C29.54,5.78,29.75,5.31,29.6,5Z"/><path class="cls-43" d="M18.18,38.41a1.13,1.13,0,0,1,1.85.32A2.78,2.78,0,0,1,18.18,38.41Z"/><path class="cls-44" d="M17.22,4a1.22,1.22,0,0,1,.07-.17c.41.1.86.1,1.17.46-.13.3-.48.36-.67.6a.63.63,0,0,1-.69-.29h-.05A2.43,2.43,0,0,1,17.22,4Z"/><path class="cls-29" d="M28.94,4.42l-.07.08c-.64.94-.64.94-1.25,0A3.09,3.09,0,0,1,28.94,4.42Z"/><path class="cls-45" d="M19,4.54l.35.31c-.31.29.34.92-.37,1.07a.62.62,0,0,1-.63-.43c-.05-.34-.14-.69.23-.92Z"/><path class="cls-46" d="M18.61,4.57l-.05.89a.46.46,0,0,1-.25.08A.53.53,0,0,1,17.84,5l0-.13c0-.42.36-.4.59-.53C18.61,4.34,18.62,4.45,18.61,4.57Z"/><path class="cls-29" d="M29.15,6.92l.09-.47c0-.48.41-.51.76-.57s.49-.21.68.09A5,5,0,0,1,29.15,6.92Z"/><path class="cls-47" d="M30.68,6,30,6c-.05-.06-.06-.11,0-.16s.05-.07.07-.06c.14-.65.58-.47,1-.36C31.06,5.69,31,5.91,30.68,6Z"/><path class="cls-48" d="M30.17,10.12a4.65,4.65,0,0,1,1.67,1.16,3.48,3.48,0,0,1-1.67-1.16Z"/><path class="cls-29" d="M27.62,4.47c-.33.66-.87.38-1.37.31L26,4.67A3,3,0,0,1,27.62,4.47Z"/><path class="cls-49" d="M6.56,34.43c.37.14,1.23-.4.92.66A1.36,1.36,0,0,1,6.56,34.43Z"/><path class="cls-33" d="M23.33.48c-.11.25,0,.67-.4.7-.22,0-.27-.26-.31-.45A.69.69,0,0,1,23.33.48Z"/><path class="cls-50" d="M30.17,10.12c-.53,0-.87-.49-1.33-.67a1.53,1.53,0,0,1,1.33.67Z"/><path class="cls-51" d="M15.88,7.48l.13.28a.68.68,0,0,1-.79-.25l0-.19V7.23C15.63,6.94,15.73,7.27,15.88,7.48Z"/><path class="cls-8" d="M27,8c-.11-.11-.14-.22,0-.31a.24.24,0,0,1,.38.15A.41.41,0,0,1,27,8Z"/><path class="cls-52" d="M15.88,7.48c-.19-.1-.35-.29-.61-.25l0-.26C15.49,7.14,16.17,6.76,15.88,7.48Z"/><path class="cls-53" d="M13.71,6.73c-.26.55-.48.11-.71,0C13.24,6.56,13.48,6.68,13.71,6.73Z"/><path class="cls-54" d="M33.06,29.14c.26,0,.62,0,.59.45s-.33.43-.6.58c-.5.26-.85.7-1.52.14s-.42-.77.08-1A1.37,1.37,0,0,1,33.06,29.14Z"/><path class="cls-55" d="M27.15,25.19c-.24,1.19.89.58,1.26,1,.06.23-.09.29-.26.34-.77.23-.77.23-.3.76,0,0,.06.12.09.18-.65.26-.61.9-.77,1.43a.24.24,0,0,1-.18,0c-.58-1.05-1.42.1-2.08-.25-.44-.48.13-.74.3-1.07a3.08,3.08,0,0,0-1-.35,3.38,3.38,0,0,1-.42-.13c-1-.31-1.43-1.25-2.16-1.86-.45-.37,0-.8.36-1.07.65-.1,1-.29.86-1.14A1.22,1.22,0,0,1,24,21.55a.72.72,0,0,1,.75.2,4,4,0,0,0,.33.39C26.05,23,27,23.78,27.15,25.19Z"/><path class="cls-55" d="M29.3,15.68c.82.26,1.69.45,1.77,1.55l0,.09c1-.1.71.86,1.06,1.29a8,8,0,0,0,1.59.9c.73.19.49.94.89,1.65a5.25,5.25,0,0,0-2.25-.58c-.31,0-.71,0-.85-.45-.26-.74-.73-1.06-1.51-.74-.28.12-.48-.24-.79-.13,0,1.09,1.37,2,.38,3.17-.63,0-1.35.21-1.69-.61.44-1.13.2-2.42.95-3.52a1.58,1.58,0,0,0-.11-2.15.5.5,0,0,1-.13-.57A.41.41,0,0,1,29.3,15.68Z"/><path class="cls-56" d="M27.76,29.22a3.56,3.56,0,0,1-1.45,2,.68.68,0,0,1-.55.08c-.18,0-.43-.23-.53,0s-.14.62.26.75h0c-.2,1-.76.86-1.41.47h0c-.08-.12-.21-.2-.3-.31-.13-.53-.56-.64-1-.72a3.6,3.6,0,0,1-1.61-.8,2.18,2.18,0,0,1-.91-1.61.37.37,0,0,1,.1-.26c.13,0,0,0,.08-.07.43-.38,1.4.1,1.44-.62a5.49,5.49,0,0,0-.48-1.48c-.11-.32-.33-.62,0-.93.59-.12.74.35,1,.71s.26.84.5,1.21A1,1,0,0,0,24,28.1a.66.66,0,0,1,.5.45c.06.66-.37.26-.6.28-.47,0-1,.16-1,.65s.57.42,1,.54c.77.24,1.7-.53,2.37.39.08.1.32-.07.39-.23a.5.5,0,0,0-.18-.64c-.27-.25-.68.05-1-.3C26.23,28.71,27,29.5,27.76,29.22Z"/><path class="cls-57" d="M24.51,28.55,24,28.19a1.53,1.53,0,0,1-1.2-.33c-.52-.4-.38-1.12-.77-1.61a1.08,1.08,0,0,0-.6-.48c-.72,0-.89-.39-.73-1a1.33,1.33,0,0,0-.42-1.47,2.47,2.47,0,0,1-.58-1.69.36.36,0,0,1,.15-.23,1.44,1.44,0,0,1,1.63,1.12c.14.57.81.9.64,1.57l-.05.14c-.26.44-.62.77.19,1.19.62.32.89,1.21,1.66,1.46,0,.13,0,.31.16.35s.14-.17.24-.24l1.53.42c-.28.52-1.1.55-.91,1.25Z"/><path class="cls-58" d="M28.07,21.79c.31.7,1.12.21,1.55.64l.09.45a1.45,1.45,0,0,0-1.07,1,1.84,1.84,0,0,1-1.49,1.35c-.27-.08-.7-.2-.61-.44.51-1.31-.74-1.46-1.31-2-.37-.36-.42-1.18-1.23-1a.52.52,0,0,0-.11-.1c-.23-.5-.38-1,.22-1.33.41-.22,1.52.33,1.67.76a3.89,3.89,0,0,0,.18.58,5.84,5.84,0,0,0,.46.81,4.1,4.1,0,0,0,.5.52,1.89,1.89,0,0,0,.91-1.29A.17.17,0,0,1,28.07,21.79Z"/><path class="cls-55" d="M27.15,25.19c.56-.53,1.24-1,1.37-1.84s.66-.63,1.19-.47a.94.94,0,0,0,0,.8c.22.38.38.74-.34.65-.15,0-.44.08-.45.16C28.75,25.78,27.79,25.08,27.15,25.19Z"/><path class="cls-59" d="M20.73,36.12c-.42-.28-1,0-1.39-.39,0-.5-.58-.71-.71-1.07-.41-1.19-1.37-1.35-2.39-1.47-.1,0-.27,0-.26-.12.2-.84-.8-1-.9-1.76-.06-.4-.31-.79-.86-.63a.88.88,0,0,1-.27.06c-.65.06-.12,1.09-.84,1-.51,0-.81-.62-1.37-.6a.51.51,0,0,1-.2,0c-.39-.12-.32-.68-.73-.8a10.44,10.44,0,0,0-1.88-4.49,13.15,13.15,0,0,1-.77-1.91,1.45,1.45,0,0,1,.23-1.28,2,2,0,0,0,.38-1.26,6.24,6.24,0,0,1,1.4-4.78,2.43,2.43,0,0,0,.26-.44,1.08,1.08,0,0,0,.08-.19c.12-.46-.58-.87-.12-1.33A5.06,5.06,0,0,1,12,13.46a3,3,0,0,0,1.19-.92.89.89,0,0,1,.78.64.64.64,0,0,1-.5.78c-.68.17-1,.78-1.57,1.12-.12.08-.25.18-.23.32.19,1.46-1,2.35-1.46,3.52A3.75,3.75,0,0,0,9.83,21a2.24,2.24,0,0,1-.42,1.74c.1.9-.1,1.83.55,2.63a2.8,2.8,0,0,0,1,.86c1.11.56,1.26,1,.79,2.15-.18.47,0,.77.41.88a12.79,12.79,0,0,0,1.52.46c-.13-1.19-.91-2.14-.92-3.27a.56.56,0,0,1,.15-.4c.64.22,1.32.11,2,.3-.46,1,.26,1.53.79,2.16a7.24,7.24,0,0,0,1.14.67,2.68,2.68,0,0,1,.58.42c.06.07,1.69,1.33,1.76,1.35l.09.46c.19.66.54,1.09,1.3,1a1,1,0,0,1,.68.23c.39.32.6.69-.1.84s-.5.41-.33.81.51.92.27,1.47A.61.61,0,0,1,20.73,36.12Z"/><path class="cls-60" d="M19.13,31c-.25.1-.51,0-.78.09a.85.85,0,0,1-1-.43c.19-1.38-1.06-1.23-1.69-1.71a1.37,1.37,0,0,1-.19-.23c1.05-.36,1.81.51,2.87.68a2.84,2.84,0,0,1-.65-1.88c0-.89-.7-1.37-1.12-2-.68-1-.64-1.26.42-1.79.41-.2.77-.34.82-.91s.46-.57.88-.51a2.19,2.19,0,0,1,1.17.62c.25.24.54.51.41.89s-.52.36-.87.3,0,.25-.19.28a.55.55,0,0,1-.28.09c-.44,0-1,0-1,.63a1.44,1.44,0,0,0,.92,1.36.68.68,0,0,0,.92-.67c0-.31-.21-.7.26-.88a1.3,1.3,0,0,1,.44,1.86.91.91,0,0,0-.09,1.07.86.86,0,0,1-.08,1.13h0a1.89,1.89,0,0,0-.23,1.65,2.62,2.62,0,0,1-.48-.13C18.93,30.12,19.12,30.61,19.13,31Z"/><path class="cls-61" d="M20.85,35.71c.3-.47-.22-.8-.24-1.23s-.58-.34-.25-1,.77.18,1-.35c-.19-.43-.59-.48-1.1-.47-.85,0-1.29-.37-1-1.28a3.57,3.57,0,0,1,1.49.58,2.19,2.19,0,0,0,1.8.46,4.44,4.44,0,0,1,2,.65,1.34,1.34,0,0,0,1.09.12c.66-.3,1.21-.42,1.67.31.09.12.55-.11.47.32-.05.26-.4.12-.5.23-.38.44-1.22-.17-1.41.63-.47.24-.79,0-1-.37A1.17,1.17,0,0,0,23.6,34c-.39.06-.87.2-.5.81a.78.78,0,0,1-.08,1A1.9,1.9,0,0,1,20.85,35.71Z"/><path class="cls-62" d="M23,35.66c.22-.64-.28-1-.62-1.42.64-.28,1.14-.83,1.95-.56.2.07.42,0,.5.27a1.12,1.12,0,0,0,1,.76,1.41,1.41,0,0,0,1.74.73.79.79,0,0,1,.81.18,3.44,3.44,0,0,1-2.54.44c-.12-.05-.32-.05-.36-.13-.91-1.81-.88-.21-1.14.31C23.24,36.09,23.24,36.09,23,35.66Z"/><path class="cls-63" d="M20.1,30.57c-1-.71-.3-1.16.23-1.65.46.39.29,1.07.9,1.52a4.13,4.13,0,0,0,2.31.88c.67.05.15.67.39.94a4.53,4.53,0,0,1-2-.54c-.53-.13-1.05-.24-1.16-.93C20.7,30.43,20.36,30.53,20.1,30.57Z"/><path class="cls-6" d="M24.08,32.51A1,1,0,0,0,25.49,32c.34.08.63.2.24.56A1,1,0,0,1,24.08,32.51Z"/><path class="cls-6" d="M21.93,31.72l2,.54.15.25C23.38,32.21,22.52,32.33,21.93,31.72Z"/><path class="cls-64" d="M19.93,6.69c.77.15,1.26-.09,1.34-.92.4-.37,1.09.12,1.41-.47l.21,0c.18,0,.24.09.15.26-.21.69.42.14.53.36a.81.81,0,0,1,.33,1.16c-.07,1.06-.56.27-.89.2-.29.09-1-.51-.74.48.06.54-.14.89-.73.91A6.22,6.22,0,0,0,19.73,8C18.82,7.39,19.49,7.06,19.93,6.69Z"/><path class="cls-65" d="M24.56,9.45l.47-.1c.29.29.13.53-.1.76-.44.42-1.07.35-1.57.62s-.82-.45-1.29-.16-.19,1-.83,1c-.18-.15-.15-.36-.14-.57,0-1,0-1-.9-.57-.45-.21-.35-.59-.31-1a.58.58,0,0,1,.19-.25c.5-.15,1,0,1.52-.11s1,.48,1.62.43c.26-.07.45-.28.71-.34A2.77,2.77,0,0,1,24.56,9.45Z"/><path class="cls-66" d="M23.9,7.12A2.81,2.81,0,0,0,23.57,6c.06-.11.13-.33.26-.18s.28.86.65.08c.07-.15.78-.13.77.17,0,1,.51.45.87.38.2,0,.45-.12.53.14s-.25.25-.4.34c-.52.29-1.19.35-1.47,1.09C24.63,7.42,25,6.47,23.9,7.12Z"/><path class="cls-67" d="M24.86,10A.64.64,0,0,0,25,9.35c.27-.11.14-.74.38-.56.52.38,1.53-.13,1.65.92,0,.21.22.47-.15.59a2,2,0,0,1-1.86.14C24.9,10.31,24.66,10.22,24.86,10Z"/><path class="cls-68" d="M23.38,9.79c-.73.34-1.15-.49-1.79-.49-.44-.22-.26-.44,0-.66s.73-.42.45-.94c.11-.47.38-.42.71-.24,0,.47-.71,1.07.26,1.35a.76.76,0,0,0,.08.11C23.18,9.21,23.43,9.45,23.38,9.79Z"/><path class="cls-69" d="M23,5.6l-.15-.26c.06-.56-.36-1.54.9-1C23.62,4.79,23.75,5.44,23,5.6Z"/><path class="cls-70" d="M23.58,8.33c.32,0,.65-.31,1,.06s.14.57-.12.8-.39,0-.58,0A.76.76,0,0,1,23.57,9,.57.57,0,0,1,23.58,8.33Z"/><path class="cls-71" d="M22.75,7.46A1.21,1.21,0,0,0,22,7.7c-.52,0-.37-.3-.15-.48.37-.3.8-.43,1.12.1Z"/><path class="cls-68" d="M23.58,8.33l.06.63A.42.42,0,0,1,23,8.85l0,0C23.18,8.62,23,8,23.58,8.33Z"/><path class="cls-72" d="M23.76,2.14l-.11.41-.26.14c-.23,0-.49.21-.62-.15l.59-.49Z"/><path class="cls-73" d="M27.5,6.62c.15,0,.39-.09.34.16s.15.6-.34.46Z"/><path class="cls-68" d="M23.8,9l.61.15.15.26a.59.59,0,0,1-.62-.15C23.76,9.28,23.72,9.2,23.8,9Z"/><path class="cls-74" d="M12.25,33.37l.09.46c-.05.23-.09.46-.14.69-.06,0-.15,0-.18,0-.58-.79-.58-.79-.95,0,0,.08-.17.11-.26.16l-.14-.25a.43.43,0,0,1,.16-.6c-.08-1.24-.12-1.25-1.12-.92-.62.21-.47-.24-.41-.57s-.12-.91.5-1a.55.55,0,0,1,.39.12c.15.29.44.29.7.33A16,16,0,0,1,12.25,33.37Z"/><path class="cls-15" d="M14.47,35.48l.25-.14c.32.63.13.87-.9.94Z"/><path class="cls-15" d="M15.14,37c-.1.21-.16.51-.49.36a.36.36,0,0,1-.09-.35c.16-.31.38-.17.58,0Z"/><path class="cls-74" d="M12.74,33.94c.54-.3.7.16.94.47C13.36,34.27,12.93,34.34,12.74,33.94Z"/><path class="cls-75" d="M9.78,31.41c-.53.14.19.88-.48.95-.53-1-1-.27-1.35.09-.34-.1-.48-.89-.58-.54-.17.59-1.6-.5-.93.82.18.35-.4,0-.52.21-.46-.12-1-.07-.51-.87.28-.46-.37-.8-.65-1.16-.09-.61.39-.56.73-.58a2.09,2.09,0,0,0,1.35-.4.81.81,0,0,1,.74,0,.36.36,0,0,1,0,.55c.43-.21.67-.86,1.31-.87C9.2,30.17,10,30.51,9.78,31.41Z"/><path class="cls-15" d="M9.09,35.52c-.39-.11-1-.18-.34-.71.43-.36.25-.86.38-1.48.54.65.23,1.43,1.19,1.77-.67.11-1.15-.15-1.23.42Z"/><path class="cls-76" d="M6.92,32.88c.55.13.79.65,1.24.88s.13.45,0,.61-.27,0-.4-.1C7.38,33.88,6.58,33.75,6.92,32.88Z"/><path class="cls-15" d="M10.83,33.85l-.16.6c-.27,0-.56.14-.62-.28,0-.18-.07-.35.08-.48S10.62,33.67,10.83,33.85Z"/><path class="cls-77" d="M6.94,30a.85.85,0,0,1-1.11.6c-.35-.07-.84-.2-1.07.32l-1.09-.73a4.21,4.21,0,0,1-.18-1.76c0-.37.16-.8-.37-1l-.34-.31c0-.21,0-.43,0-.65-.15-.43.57-.91-.07-1.31a20.52,20.52,0,0,0-.34-3.13.7.7,0,0,1,.51-.88c.43-.16.22-.33,0-.47,0-.21-.19-.48,0-.62s.35.08.52.14c1.14.75,1.2.87.74,1.67-.14.18-.54,0-.55.31s.34.24.55.28a.55.55,0,0,1,.24.15.63.63,0,0,1,.14.47c-.14.68.1,1,.82,1a.75.75,0,0,1,.66.39.86.86,0,0,1,.07.7,1.36,1.36,0,0,0,.5,1.15A1.25,1.25,0,0,1,7,27.76a.38.38,0,0,0,.06.39C7.89,28.82,7.26,29.39,6.94,30Z"/><path class="cls-78" d="M3.34,19.57a1.1,1.1,0,0,1-.08-1.17c.06-.11.17-.27.13-.37-.65-1.7.55-2.53,1.58-3.46.34-.31-.06-.55-.13-.82-.14-.5-.24-.83.52-1A1.78,1.78,0,0,0,6.93,11.1h0c.5-.08.3.7.78.63.28.44.07.71-.31.92A2.55,2.55,0,0,0,5.87,15c.49-.46.88-1.11,1.69-.83.15-.57,1-.64,1-1.41,0-.55.64-1.14-.09-1.67.42-.68,1.06-.4,1.5-.17s.07.71-.13,1c-.32.5-.06,1.14-.36,1.58a2.44,2.44,0,0,0-.36,2.34c.22.65-.37,1.28-.9,1.6s-.68.57-.6,1.11a1.12,1.12,0,0,1-.37.83c-.38.24-.5.89-1.14.76-.12-.07-.18-.21-.3-.28-.34-.21-1-.12-.84-.8s-.15-1.5,1-1.56c-.24-.43-.85-.52-.71-1s.52-.19.84-.3c-.72,0-2,.87-1.87,1.48C4.36,18.63,3.68,19,3.34,19.57Z"/><path class="cls-79" d="M3.34,19.57c.16-.38-.16-1.05.62-1.06-.3-.79.56-1.36.56-1.81,0-1.09.79-.52,1.13-.77s.83,0,1,.57l-1.28.08c0,.41.39.4.65.5s.42.12.4.38-.26.28-.45.34-.61-.07-.71.29.1.89-.19,1.32c-.07.11.35.07.53.14s.76,0,.38.52a6.56,6.56,0,0,0,.16,2.75c.1.26.22.69-.21.78s-1,.43-1.49.19c-.19-.08-.14-.29-.09-.46s.19-.53-.13-.73h0c-.2-.2-.48-.37-.24-.71.63-.87-.64-1-.62-1.67Z"/><path class="cls-80" d="M14.06,30.65c.11-.27.23-.54.59-.33a1.35,1.35,0,0,1,.78,1.1c0,.2-.11.5.16.45,1.49-.28.14.75.71,1,.6-.1,1.29.53,2.14.46.15,0,.37.09.17.32-.51.57.06.77.38,1s.76.54.35,1.07A14.68,14.68,0,0,1,16,34.92c-1.08-.3-2.08-1-3.15-1.38a4.18,4.18,0,0,1-1.35-1.33.73.73,0,0,1,.09-1.16,2.09,2.09,0,0,1,.48-.08c.51,0,1.43,1.42,1.35-.46,0-.29.44,0,.64.14,0,.06,0,.12.07.18A1.34,1.34,0,0,0,14.06,30.65Z"/><path class="cls-81" d="M23,35.66c.34.43.95.26,1.34.58,0,.35-.05.7-.07,1-1.33.45-2.54-.14-3.77-.52.06-.18.37-.34.22-.65l.12-.41C21.56,35.62,22.3,36.06,23,35.66Z"/><path class="cls-82" d="M11.59,31.05c-.36,1.22.86,1.65,1.26,2.49l-.6-.17a3.39,3.39,0,0,1-1.53-1.49,1.17,1.17,0,0,1-.23-.46c-.06-.3-.23-.59-.09-.9a.46.46,0,0,1,.5-.09C11.45,30.27,11.27,30.94,11.59,31.05Z"/><path class="cls-83" d="M29.3,15.68c-.22,0-.44-.15-.65,0-1.32.3-2.7,0-4,.44-.57-.19-1.14-.39-.49-1.12.15-.07.38-.06.47-.18,1.1-1.5,2.57-.51,3.87-.55.69,0,1,.49.87,1.17Z"/><path class="cls-84" d="M29.36,15.48c-.39-1.06-.87-1.37-1.91-1.05a3,3,0,0,1-1.19,0c-.38,0-1.2-.81-1,.52,0,.31-.62.18-1,.21-.26-.16-.86,0-.64-.64.47-.48.43-1.29,1.08-1.66a.8.8,0,0,1,.31,0,5.63,5.63,0,0,0,2.14.46c.55,0,1.16-.13,1.56.44v0c0,.12-.61.22-.07.36.75.2.89.7.89,1.34Z"/><path class="cls-85" d="M2.67,25.18c.71-.11.92.1.46.73-.14.19-.26.39-.39.58A1.91,1.91,0,0,1,2.67,25.18Z"/><path class="cls-86" d="M11.11,8.37c.19-.54.9-.77.86-1.44A4.38,4.38,0,0,1,13.5,8.54c.19.45.68.42,1.06.55a.39.39,0,0,1-.11.46,1.53,1.53,0,0,1-1,0c-.79-.27-1.73-.21-2.3-1C11.14,8.47,11.13,8.42,11.11,8.37Z"/><path class="cls-87" d="M14.45,9.49l.11-.4c.41-.46,1-.53,1.52-.87a.75.75,0,0,1,.78.37c-.28.64-.91.88-1.43,1.25a.93.93,0,0,1-.47,0A.7.7,0,0,1,14.45,9.49Z"/><path class="cls-53" d="M16.83,8.64a1.48,1.48,0,0,1-.75-.42c-.12-.44-.8-.2-.86-.71a1,1,0,0,0,.79.25l.25,0c.42.24,1,.29,1,1A.32.32,0,0,1,16.83,8.64Z"/><path class="cls-88" d="M17.29,8.73c-.31-.35-.89-.4-1-.94.26-.45.41-.9-.13-1.27a.24.24,0,0,1,.06-.25,1.4,1.4,0,0,1,1.19.46c1,.88,1.15.87,1.93-.23a.18.18,0,0,1,.24.09l.38.1c-.1.34-.49.6-.26,1,.07.39.27.78-.06,1.15-.6.23-1.26-.12-1.86.19C17.54,9,17.36,9,17.29,8.73Z"/><path class="cls-89" d="M19.33,6.52c.25.66-.31.83-.68,1.06a.73.73,0,0,1-1-.22,2.84,2.84,0,0,0-1.47-1c-.24,0-.26-.14-.31-.29a1.33,1.33,0,0,1,.45-1h.84a.33.33,0,0,1,.39,0c.3.19,0,.84.6.8C18.51,6.15,19.16,5.89,19.33,6.52Z"/><path class="cls-90" d="M15.86,6l.31.29a1.29,1.29,0,0,0,0,.19C15.68,6.6,15.68,6.59,15.86,6Z"/><path class="cls-91" d="M22.68,5.3c-.13,1.17-.94.32-1.41.47-.54-.5-.09-.75.26-1,0,.23-.23.5.21.6s.29-.25.4-.41Z"/><path class="cls-92" d="M7.06,19.29c0-.06.09-.13.08-.19-.2-1.25.86-1.77,1.49-2.53.11-.13.31-.36.28-.4-1.07-1.36.64-2.43.37-3.68-.13-.67.77-.7.62-1.38a3.24,3.24,0,0,0-1.46,0c0,.31-.22.25-.42.17-.14-.44-.42-.9.35-1.11.19-.05-.26-.21-.2-.43-.27-.58-.13-1,.52-1.14.65.34.65-.43,1-.58.94-.19,1,.6,1.29,1.15a6.43,6.43,0,0,1,.24,1.52,17.22,17.22,0,0,1-1.5,3.6c-.18.32-.24.55,0,.82a1.1,1.1,0,0,1-.09,1.65c-.14.13-.1.32-.11.49a12.39,12.39,0,0,1-2.21,2.25A.38.38,0,0,1,7.06,19.29Z"/><path class="cls-11" d="M8.17,9.71c.23.4.63-.06.94.2-.31.49-1.31.38-1.12,1.26,0,.3-.12.45-.37.54-.55.16-.37-.51-.69-.62C7.08,10.4,8.11,10.49,8.17,9.71Z"/><path class="cls-93" d="M3.12,27.45c.84.05.56.53.37,1C3,28.24,3,27.88,3.12,27.45Z"/><path class="cls-94" d="M30.05,5.78,30,6l-.77.45c-.42-.61.16-1,.36-1.41Z"/><path class="cls-95" d="M17.56,5.19l-.41-.12c0-.15,0-.3,0-.45l.77.22h0C17.94,5.12,17.9,5.29,17.56,5.19Z"/><path class="cls-96" d="M17.22,4c.12.25,0,.43-.17.6C16.81,4.34,16.56,4.05,17.22,4Z"/><path class="cls-97" d="M19.33,6.52c-.42-.22-1-.11-1.32-.55-.09-.33.14-.43.36-.55l.19,0c.09.27.33.3.56.36a.53.53,0,0,1,.38.12c.2.2.09.43.05.65Z"/><path class="cls-98" d="M19.5,5.94c-.19.17-.26-.06-.38-.12.2-.3-.25-.77.26-1,.32.08.71.07.75.55S19.67,5.71,19.5,5.94Z"/><path class="cls-99" d="M28.74,13.81l-1.66-.23c-.25.1-.48-.05-.71-.1a2,2,0,0,0-1-1.35c-.06-.15-.07-.28.1-.37a2.37,2.37,0,0,1,1.44.28c.05,0,0-.24-.05-.1s-.05.05-.09,0c-.48-.6-1.44-.75-1.6-1.66.57.43,1.15-.28,1.72,0-.42.93.88,1.34.55,2.31.68-.35.25-.88.46-1.23.53.14.68.65,1,1C29.08,12.88,29.34,13.39,28.74,13.81Z"/><path class="cls-100" d="M11.11,10.73c-.33-.25-.19-.6-.22-.92C10.8,9,10.6,8.27,9.71,8a1,1,0,0,1,.82-.63.86.86,0,0,0,.58,1h0a9.45,9.45,0,0,1,1.5,2.1c-.1.68.69,1.21.36,1.94a1,1,0,0,1-.89-.19A13.6,13.6,0,0,1,11.11,10.73Z"/><path class="cls-44" d="M18.37,5.42,18,6c-.53.23-.53.23-.45-.78.19,0,.26-.18.31-.35C18,5,18.05,5.35,18.37,5.42Z"/><path class="cls-58" d="M24,21.76a1.06,1.06,0,0,0-.65,1.42.38.38,0,0,1-.11.53c-.34.3-.58.87-1.2.52h0c.33-.59-.43-1.14-.07-1.74a3.9,3.9,0,0,0,.48-.65c.62-1.19.82-1.2,1.55-.08Z"/><path class="cls-5" d="M24.29,27c0,.26.42.26.38.63a1.17,1.17,0,0,1-1.16-.36c-.14-.2.28-.22.38-.38Z"/><path class="cls-101" d="M24.93,16a6.23,6.23,0,0,1,3.72-.28c1.09,1.23,1.05,1.6.21,3.09-.24.43-.77,1-.3,1.68s-.72.72-.49,1.3l-.2-.05c-.58-.3-.39-1-.66-1.4,0-1.46-.36-1.7-1.84-1.44-.52.09-1,.53-1.57.21C24.11,18.05,24.15,16.89,24.93,16Z"/><path class="cls-63" d="M19.22,24.32c-.35-.51.07-.39.34-.45s.45.11.52-.18a.5.5,0,0,0-.23-.53,3.12,3.12,0,0,0-1.14-.69c-.38-.09-.85,0-.74.42.2.7-.21.71-.64.89s-1,.29-1,.72.36,1.16.69,1.24c.84.22.81,1,.85,1.4a2.69,2.69,0,0,0,1.35,2.49c-1.6.16-2.57-.87-3.78-1-.33-.27-.51-.66-.87-.94-.59-.44.18-.9.22-1.39a.29.29,0,0,1,.27.05c.26.37.22.84.44,1.24.31.59.84.64,1.37.74.21,0,.33,0,.34-.26,0-.44.09-1-.28-1.22A8.44,8.44,0,0,1,15.16,25a2.82,2.82,0,0,1,1.53-1.87,1.38,1.38,0,0,0,.84-.83c.48-1.14.7-1.23,1.88-.82a.49.49,0,0,1,.32.24c.32.7.45,1.49,1.17,2a.83.83,0,0,1,.09,1c-.45.65.06.85.41,1.15.32.66.09,1.54.84,2,.14.1.24.31.13.45s-.45.58-.82.55a4.56,4.56,0,0,0-1.22.13.75.75,0,0,0,0-.2,3.35,3.35,0,0,1,0-2.58.76.76,0,0,0-.49-1.2.21.21,0,0,1-.24,0c-.14-.15-.28-.32-.41-.49A.56.56,0,0,0,19.22,24.32Z"/><path class="cls-5" d="M22.77,27.86l1.2.33C23.44,28.54,23.08,28.28,22.77,27.86Z"/><path class="cls-102" d="M19.73,21.67a1.63,1.63,0,0,1-.31,0c-.82-.29-1.55-.4-1.71.78-.08.56-.51.74-1,.9-.78.26-1,1.14-1.52,1.62l-.15,0a3,3,0,0,1,.7-2.83,1.25,1.25,0,0,0,.31-1,4.94,4.94,0,0,1,.66-3.16c.67-.91,1.47-1.68,2.18-2.53a.61.61,0,0,1,.3,0,.56.56,0,0,1,.28.36.7.7,0,0,1,0,.29,1.93,1.93,0,0,0-.22.58c-.11,1.16-.11,1.16-1.31,1.2a3.61,3.61,0,0,0,1.29,1.54,2.85,2.85,0,0,1,1.14,1,.28.28,0,0,1-.14.24,3.52,3.52,0,0,1-2,.24c.46.33,1.29-.26,1.58.62Z"/><path class="cls-55" d="M19.78,21.47A5.3,5.3,0,0,0,17.47,21a6.86,6.86,0,0,1,2.79-.5,2.15,2.15,0,0,1,1.81,2c-.13.57.47,1.15,0,1.71C21.32,23.28,21.36,21.71,19.78,21.47Z"/><path class="cls-103" d="M22.07,22.52c-.2-.31-.4-.63-.62-.93s-.24-1-1-.53c-.22.14-.23-.31-.21-.54h0c.56-1.16.92-1.36,2.28-1.26a1.41,1.41,0,0,0,.5-.07c.27-.05.53-.28.81-.05a4.74,4.74,0,0,1,2.79-.53c.65.14,1.35.25.78,1.2-.08.13,0,.34,0,.51-.5,0-.75-.43-1.14-.62-.2-.1-.4-.14-.52.09s.12.27.24.38c.8.7.75,1-.27,1.62.15-1.13-.9-1-1.46-1.32-.25-.16-.3.22-.31.39a6.8,6.8,0,0,0,.06.9c-.25-.07-.37-.29-.54-.45s-.53-.28-.64.19S22.74,22.49,22.07,22.52Z"/><path class="cls-104" d="M25.71,21.79a5.9,5.9,0,0,1,.37-.47c.44-.46.38-.82-.25-.93-.31-.06-.51,0-.52-.43a.62.62,0,0,1,.42-.63c.26-.14.45-.19.69.12a6.84,6.84,0,0,0,1,.87c.36.4.28.95.47,1.42.37.79-.75,1-.66,1.76,0,.1-.26-.05-.38-.18A6.28,6.28,0,0,1,25.71,21.79Z"/><path class="cls-105" d="M13,26.05l-.1.4H12.7c-.67-.78-1.22-1.65-1.81-2.49a2.38,2.38,0,0,0-1.65-1.2l-.09-.12a2.06,2.06,0,0,0,.44-1.72,3.07,3.07,0,0,1,.64-2.4c.58-.66.5-1.76,1.35-2.3.15-.1,0-.24-.11-.34-.4-.54-.05-.73.32-1.13.62-.66,1.61-.76,2.08-1.56a.27.27,0,0,1,.45-.2c.47.38,1.1.37,1.58.7a1.68,1.68,0,0,1,.71.58c.11.29.05.67-.22.7-.85.1-1.23.92-2,1.18.61,1,.64,1.06-.62,2.41a4.12,4.12,0,0,0-1.32,2.67c0,.69-.46.76-1.28.27-.11-.84-.43-1.71.28-2.47.11-.12.16-.35.31-.39,1.29-.33,1.15-1.23.89-2.14-1.47,1-2,2.59-2.33,4.26-.06.3-.29.61,0,.87s.5-.29.81-.21a1,1,0,0,0,.56.42c.66.21.79.51.15.93-.08.06-.28,0-.12.25.41.53.38,1.32,1,1.75A1.59,1.59,0,0,1,13,26.05Z"/><path class="cls-106" d="M7.26,19.35c.7,0,.52-.7.75-1,.39-.53,1.2-.5,1.36-1.2,0-.75.71-.69,1.07-1a.3.3,0,0,1,.26.11,8.48,8.48,0,0,0-1.16,1.88A4.73,4.73,0,0,0,9,21a1.28,1.28,0,0,1-.08,1.27c-1,1.2-.24,2.31.24,3.36.59,1.27,1.59,2.33,1.82,3.79a2.24,2.24,0,0,1,0,1,.42.42,0,0,1-.45.09,2.29,2.29,0,0,1-.35-.74,2,2,0,0,1,0-.42c.12-1.85-1.19-2.8-2.41-3.79-.52-.42-1.2,0-1.78-.2,0,0,0-.05,0-.08s0-.06,0-.09l0-.65a20.7,20.7,0,0,1,1.84-1.91c.75-.62.68-1.19,0-1.94C7.39,20.32,6.79,20,7.26,19.35Z"/><path class="cls-107" d="M13,26.05a3.66,3.66,0,0,1-.33-1.16,2.39,2.39,0,0,1-.18-2.7c.26-.39.09-.75.07-1.13s-.1-.65.16-1,1-.25.74-1c-.07-.23.64-.3.95,0a1.26,1.26,0,0,1,.41,1.66,2.9,2.9,0,0,0-.16,2.57c.27.7-.17,1.6.57,2.21.08.34.57.76-.17.95l-.1,0-.1,0C14.15,26.48,13.46,26.88,13,26.05Z"/><path class="cls-105" d="M12.85,26.45c.38,1,.78,2.07,1.15,3.11.14.4-.08.65-.47.49-.56-.24-1.15-.37-1.7-.59-.38-.15-.85-.54-.41-1.15.2-.28.73-.46.48-.91a1.81,1.81,0,0,0-1.13-1c-1.13-.2-1.24-1.25-1.51-1.95a2.55,2.55,0,0,1-.11-1.81h0c.19.3.51.13.76.22s.6.35.41.69c-.61,1.13.45,1.63.93,2.22.3.36.86,1,1.59.67Z"/><path class="cls-108" d="M15.82,14c-.69-.14-1.17-.83-2-.75l-.69-.62a.2.2,0,0,1,0-.17c0-.06.05-.08.06-.08a1.45,1.45,0,0,1,.55-.09A.31.31,0,0,0,14,12c0-1,.63-1.22,1.42-1.31a.59.59,0,0,1,.37.22,2.83,2.83,0,0,0,.78,1.4c.09.1.17.29.29.25,1.49-.5.87.92,1.28,1.39A1.47,1.47,0,0,1,16.9,14C16.55,13.92,16.19,13.74,15.82,14Z"/><path class="cls-109" d="M13.24,12.39l-.06.19a.75.75,0,0,1-.6.92,2.92,2.92,0,0,0-1.32.73c-.46.42-1.31.67-.38,1.46.21.17-.09.35-.18.51l-.2-.05c-.52-.38-1-.9-.77-1.5.39-.9.52-2.37,2.15-1.45.16-.53-.26-.69-.26-1s.17-.4.42-.15l1,.27A.13.13,0,0,1,13.24,12.39Z"/><path class="cls-110" d="M19.71,24.88l.2.06c0,.48.51,1,0,1.42s-.85.68-1.4.26-1-1.7-.77-2.1c.41-.58,1-.36,1.5-.2h0C19.36,24.53,19.61,24.64,19.71,24.88Z"/><path class="cls-59" d="M18.59,30.3a.23.23,0,0,1-.32.17c-.2-.06-.23-.24-.23-.42s.15-.19.28-.14A.43.43,0,0,1,18.59,30.3Z"/><path class="cls-111" d="M19.62,8.73c.13-.34-.37-.7.05-1,.64.32,1.57,0,1.92.94-.1.22-.19.44,0,.66-.5.37-1,.13-1.51,0S19.6,9.06,19.62,8.73Z"/><path class="cls-112" d="M19.24,15.56,19,15.48a2.92,2.92,0,0,1-.38-.89,2.07,2.07,0,0,1-.08-.42c-.07-.84-.06-1.68-.18-2.52a2.49,2.49,0,0,1,.09-.6c0-.15.08-.3.13-.44s.2-.58.56-.47.21.42.21.7c.13-.45-.23-.86,0-1.27a.56.56,0,0,1,.21-.22.35.35,0,0,1,.41.16c.05.31.1.63.14.94.37.5.12,1.08.19,1.61a3,3,0,0,0,.1.85A2.19,2.19,0,0,0,21.27,14c-.85-1.47.34-2.36.61-3.47,0-.17.29-.11.45,0a22.4,22.4,0,0,0,.45,2.28,7.57,7.57,0,0,1-.67,2,3.05,3.05,0,0,1-1.71,1.69c-.47.13-.9.18-1.07-.44a1.16,1.16,0,0,1,0-.18c-.13-.46.95,0,.51-.7-.49-.43-.28.21-.44.29A.55.55,0,0,1,19.24,15.56Z"/><path class="cls-113" d="M25.19,10.28c.6.66,1.56,1,2,2.06l-1.78-.48c-.44.12-.74-.19-1.08-.37s-.34-.34-.54-.47a.74.74,0,0,1-.38-.4c.31-.63,1.08-.22,1.47-.66C24.9,10.14,25,10.21,25.19,10.28Z"/><path class="cls-114" d="M20.13,12.17c0-.57,0-1.15,0-1.72a.76.76,0,0,1,1.11-.56c.53.23.12.65.09,1s-.1.47-.15.71a.21.21,0,0,1-.09.23C20.78,11.89,20.47,12.06,20.13,12.17Z"/><path class="cls-115" d="M23.39,10.62l.56.19a1.31,1.31,0,0,1-.28.92,2.44,2.44,0,0,1-.35.43c-.2.19-.37.42-.69.42a2.21,2.21,0,0,1-.31-2c-.06-.17-.31-.14-.35-.32C22.57,9.9,22.88,10.63,23.39,10.62Z"/><path class="cls-116" d="M22,10.24c.16.06.31.13.35.32a3.74,3.74,0,0,0-1.09,2.94c.09.26.89.35.31.71-.34.21-.82-.14-1-.6-.1-.22-.23-.42-.35-.63.42-.33.52-.93,1-1.23a.53.53,0,0,0,.08-.17C21.71,11.26,21.43,10.53,22,10.24Z"/><path class="cls-117" d="M20,9.51l-.38-.11c-.11,0-.2.09-.06.2-.19.45.09,1-.21,1.4-.33-.13.16-.67-.32-.69-.08,0-.16.27-.24.41a.27.27,0,0,1-.24-.13c.06-.7-.53-1.11-.75-1.69.54-.66,1.21,0,1.8-.17.15.19.3.39.46.58Z"/><path class="cls-118" d="M23.8,9c.05.09.1.17.14.26l-.56.49c-.08-.33-.77-.43-.35-.94l.61.11Z"/><path class="cls-119" d="M10.21,29.81c.39.13.32.42.24.71s.3.57.18.91-.26.27-.46.09l-.39-.11c-.08-.74-.94-1-1-1.78a.18.18,0,0,1-.27-.1c-.05-.67.17-1,.83-.55A1.89,1.89,0,0,1,10.21,29.81Z"/><path class="cls-75" d="M10.17,31.52a.43.43,0,0,0,.46-.09.42.42,0,0,1,.09.45c-.19,0-.31.32-.52.18S10.15,31.7,10.17,31.52Z"/><path class="cls-120" d="M5.88,25.2c1.55-.34,2.51.37,3.42,1.59a3.39,3.39,0,0,1,1,2.62c-.5,0-.64-.41-.72-.75a4.93,4.93,0,0,0-1.07-1.73c-.16-.23-.35-.49-.65-.2s-.55.5-.25.87a2.7,2.7,0,0,1,.69,1.57c-.26.24-.13.86-.73.79l-.65,0a2.26,2.26,0,0,1,.06-.7c.17-.36.6-.67-.24-.78-.29,0-.11-.54,0-.84.1-.46.38-1-.46-1-.17,0-.29-.09-.19-.23.42-.54-.11-.57-.37-.79S5.65,25.27,5.88,25.2Z"/><path class="cls-77" d="M7.59,30c.39-.07.08-.76.62-.69a.47.47,0,0,1,.34.3l.21.06L7.58,30.74C7.39,30.39,7.57,30.18,7.59,30Z"/><path class="cls-121" d="M7.26,19.35c-.11.52.24.82.57,1.13.9.86,1,1.67,0,2.44-.57.47-1.22.8-1.45,1.59-.07.23-.36.06-.55,0s-.11-.13-.16-.13c-1.34.07-1.71-.63-1.46-1.82.25,0,.77-.26.4.39-.12.21-.29.45-.1.64s.44,0,.64-.13.53-.06.93,0a8.28,8.28,0,0,1-.52-2.8A.59.59,0,0,1,6,20.07c.62.11.54-.76,1.07-.78Z"/><path class="cls-121" d="M4,21.89l.24.71c-1,.6-.94-.29-1.2-.79C3.37,21.58,3.67,21.86,4,21.89Z"/><path class="cls-122" d="M7.62,11.71,8,11.17a.44.44,0,0,0,.45-.09c.61.12,1.13.21.55,1.05-.16.22-.59.69-.18,1.2.25.3-.16.15-.25.15a.4.4,0,0,0-.43.35c-.12.64-.32,1.06-1,.55-.14-.1-.47,0-.46.07.11.84-.81.46-1,1.12a2.7,2.7,0,0,1,.9-2.64c.23-.17.33-.43.71-.44S7.75,12.11,7.62,11.71Z"/><path class="cls-59" d="M14.06,30.65a.47.47,0,0,1,.34.64.19.19,0,0,1-.33.07.45.45,0,0,1,0-.71Z"/><path class="cls-123" d="M20.37,16.27a4,4,0,0,0,1.52-1.53,4,4,0,0,1,1.91-.13c-.19.5.51.22.49.57-.35.54-.35.54.64.82a12.17,12.17,0,0,1-1.08,3.14l-.71.24c-.56,0-1.21.06-1.29-.78a.52.52,0,0,1,.18-.1c.62-.11,1.24-.26,1.4-1,.1-.42-.18-.64-1.32-1.12a7.81,7.81,0,0,1-.26,2.22c-.65.18-1.19-.15-.92-.72C21.33,17,20.83,16.7,20.37,16.27Z"/><path class="cls-124" d="M23.8,14.61c-.63.17-1.25.51-1.91.13.24-.72.49-1.44.74-2.16.18-.18.28-.46.58-.5a.63.63,0,0,1,.48.1,4.89,4.89,0,0,1,.48.2,1.16,1.16,0,0,1,.48.43l0,.12C24.42,13.51,24.37,14.2,23.8,14.61Z"/><path class="cls-125" d="M25.55,12.1c.53.24,1.38.29.75,1.24A2.33,2.33,0,0,1,24.89,13l-.21-.08.06-.07a.49.49,0,0,1,.31-.53C25.42,12.68,25.35,12.1,25.55,12.1Z"/><path class="cls-124" d="M24.89,13l1.41.33.78.24A2.88,2.88,0,0,1,24.89,13Z"/><path class="cls-126" d="M13.24,12.39l-.2-.06a2.64,2.64,0,0,1-.57-1.87,1.06,1.06,0,0,1,1-1.24l1,.27.6.17c-.14.46-.81.54-.77,1.2,0,.3-.55.09-.79.29-.2.54.88.77.35,1.4Z"/><path class="cls-39" d="M13.45,9.22c-.57.22-.64.83-1,1.24a6.19,6.19,0,0,1-1.36-2.09A5.65,5.65,0,0,0,13.45,9.22Z"/><path class="cls-127" d="M17.82,8.9c.88.29,1,.95.85,1.74a4.53,4.53,0,0,1-3.16-.71.84.84,0,0,1,0-.17,2.57,2.57,0,0,1,1.37-1.12l.46.09Z"/><path class="cls-128" d="M13.84,12.55c.11-.36-.26-.44-.36-.66s-.64-.57-.43-1,.67,0,1.08-.12c-.58-1.05.46-.85.92-1.14l.41.1h0c.09.14.24.26.19.47a1.07,1.07,0,0,1-.27.58c-.61.2-1.13.48-1.1,1.26C14.3,12.34,14.26,12.66,13.84,12.55Z"/><path class="cls-129" d="M12,12.06c-.44.32.08.42.16.61s.42.17.31.45a.54.54,0,0,1-.52.26,3.13,3.13,0,0,1-.81-.06c-.62-.17-.95-.05-.8.67,0,.07.06.18,0,.19-1.23.71-.09,1.32.08,2-.23.5-1,.41-1.13,1-.19-.18-.37-.39,0-.56.71-.37.58-.79.18-1.32-.27-.37-.82-.84.1-1.14-.33-.88,1.22-1.12.7-2.17-.19-.4.78-.62.79-1.21C11.58,11.06,12.09,11.36,12,12.06Z"/><path class="cls-130" d="M25.55,12.1c-.08.25-.08.63-.5.28-.31,0-.59.16-.9.17l-.57-.21c0-.3.13-.52.23-.77a.56.56,0,0,1,.45-.27,2.51,2.51,0,0,1,1.13.56Z"/><path class="cls-102" d="M15,26.4c.51-.28,0-.58,0-.86a.58.58,0,0,1,0-.41.46.46,0,0,1,.2-.19h0c.93.2,1,1.32,1.74,1.68a1.14,1.14,0,0,1,.51.61c.28.6-.08,1-.1,1.49-.61-.32-1.51.14-1.9-.72A2.4,2.4,0,0,1,15,26.4Z"/><path class="cls-60" d="M19.71,24.88a.61.61,0,0,1-.49-.56C19.51,24.4,19.8,24.47,19.71,24.88Z"/><path class="cls-55" d="M21.85,18.6c.26.54.85.54,1.29.78-.12.05-.26.18-.36.15a2.28,2.28,0,0,0-2.52,1c-.59-.78-1.64-1-2.2-1.86-.22-.34-.6-.7-.5-1s.56-.09.88-.05.84-.06.53-.63,0-.75.36-1c.27.36.66.31,1,.29,1.09.28,1.25.66.79,1.56-.36.72.37.59.69.77Z"/><path class="cls-131" d="M15.19,24.94l-.06.2c-.59.11-.48-.3-.47-.64a10.44,10.44,0,0,1-.05-1.84c.32-1.69.31-3.45,1.12-5a2.46,2.46,0,0,1,1.17-1,2.5,2.5,0,0,0,1.29-1.87.7.7,0,0,1,.2-.22.43.43,0,0,1,.44,0,1.72,1.72,0,0,1,.2.92,4.84,4.84,0,0,1-1.39,1.46.94.94,0,0,0-.46.88c0,.26,0,.5-.33.5a.35.35,0,0,0-.2.05c-.32.22-.56,2.57-.24,2.8s.36.49,0,.73C15.19,22.6,15.16,23.76,15.19,24.94Z"/><path class="cls-132" d="M20.08,14.89c.41.8.21,1.13-.71.91l-.13-.24.07-.23A1.8,1.8,0,0,1,20.08,14.89Z"/><path class="cls-133" d="M18.42,14.65c.14,1.45-1.06,1.91-1.9,2.65a2,2,0,0,0-1,1.71c0,.55.49,1.66-.51,2.14a.51.51,0,0,0-.16.37c.1,1.2-.19,2.44.28,3.62l-.11.4c-.18-.2-.55-.43-.53-.59.22-1.47-1.09-2.95.11-4.42.37-.44-.12-1.4-.65-1.5-.2,0-.58.07-.48.19.71.86-.43.53-.52.86,0,.16-.32.31-.29.41.38,1.47-.75,2.93,0,4.4-.47-.3-.92-.64-.82-1.27s-.35-.5-.63-.68c.28-.29.73-.28.95-.68-.29-.27-.9-.2-.93-.77h0c.78.28,1.29.26,1.08-.81-.14-.69.54-1.06.75-1.64s1.07-.6.85-1.39a.21.21,0,0,1,.1-.16c1.82-.3.13-.8.07-1.21a3.24,3.24,0,0,0-.15-.35c.55-.13,1.28,0,1.28-.9,0-.22.27-.21.5-.13a.62.62,0,0,0,.89-.54.32.32,0,0,1,.33.25c.14.47-.21.73-.53,1,1.11.29,1.11.29,1.38-1C18,14.46,18.2,14.39,18.42,14.65Z"/><path class="cls-134" d="M11.19,21.49c-.34.15-.25,1-.92.59s-.37-.77-.23-1.26A15.72,15.72,0,0,1,11,18.06c.06-.11,0-.27.11-.37.5-.68,1.38-1,1.51-2.18.56.81.34,1.53.61,2.15s-.31.81-.79,1a1.49,1.49,0,0,0-1,1.79,1.83,1.83,0,0,1-.23,1.08Z"/><path class="cls-135" d="M12.84,26.45c-.08.21-.25.63-.38.47-.56-.7-1.81-.55-2-1.67,0-.1,0-.26,0-.28-.78-.38-1.26-.78-.3-1.52.12-.09-.07-.29-.24-.36s-.63-.09-.77-.44a1.63,1.63,0,0,1,1.77.92,3.4,3.4,0,0,0,1.29,1.54C12.59,25.3,12.27,26.15,12.84,26.45Z"/><path class="cls-136" d="M16.71,14.62l-.15-.26L15.82,14a.62.62,0,0,1,.92-.29c.47.29,1,.13,1.44.28l.13.07c.17.19.29.39.11.64h0l-.66,0A.94.94,0,0,1,16.71,14.62Z"/><path class="cls-137" d="M8.55,29.57a.41.41,0,0,1-.34-.3,6,6,0,0,0-.93-1.63c-.53-.5.32-.93.63-1.34s.46,0,.67.21a18.56,18.56,0,0,1,1.74,2.9l-.11.4a3.86,3.86,0,0,1-1-.54C8.66,28.66,8.67,29.22,8.55,29.57Z"/><path class="cls-138" d="M18.56,11.69a8.54,8.54,0,0,1,.22,2.62c-.33.1-.41-.22-.6-.36h0c-.28-.38-1.34-.51-.37-1.25-.53-.33-.91.76-1.15.17s-1.37-1-.88-1.93c.06,0,.14-.09.19-.06A8.34,8.34,0,0,0,18.56,11.69Z"/><path class="cls-139" d="M18.56,11.69a2.73,2.73,0,0,1-2.78-.76l-.4-.11c0-.21-.21-.49.17-.6s.81.14,1.16.28c.65.26,1.33.36,2,.58Z"/><path class="cls-140" d="M18.69,11.08c-1.23.39-2.1-.54-3.14-.86l-.09-.45c1,.54,2.17.44,3.21.87l.14.08Z"/><path class="cls-141" d="M21.14,11.75C21,12.32,21,13,20.16,13l0-.81C20.28,11.57,20.66,11.55,21.14,11.75Z"/><path class="cls-142" d="M20.08,14.89c-.12.38-.47.36-.77.44C19.25,14.63,19.51,14.5,20.08,14.89Z"/><path class="cls-108" d="M18.18,14l.6.36c0,.09,0,.17,0,.25l-.41.09Z"/><path class="cls-143" d="M19.58,9.6a3.85,3.85,0,0,1-.48,0,.27.27,0,0,1,0-.16c.17-.19.36,0,.55,0Z"/><path class="cls-144" d="M24.26,11.3l-.3.36c-.14.08-.26.25-.45.08a1.72,1.72,0,0,1,.44-.93A.57.57,0,0,1,24.26,11.3Z"/><path class="cls-145" d="M22.73,11.42c-.16-.07-.13-.21-.1-.34s.08-.28.26-.23.14.21.1.33S22.91,11.45,22.73,11.42Z"/><path class="cls-146" d="M23.51,11.74l.45-.08a1.09,1.09,0,0,1-.38.68l-.38-.26A.43.43,0,0,1,23.51,11.74Z"/><path class="cls-147" d="M21.85,18.6c-.48-.77.09-1.53.06-2.3,0-.54.4,0,.62,0a1.18,1.18,0,0,1,1.28,1.16c.07.57-1,1.19-1.76,1.15a1.77,1.77,0,0,1-.2,0Z"/><path class="cls-148" d="M24.15,12.55c.28-.2.47-.81.9-.17l-.31.48A.81.81,0,0,1,24.15,12.55Z"/><path class="cls-149" d="M16.71,14.62a1.64,1.64,0,0,1,1.05.07c.27,1.39,0,1.72-1.29,1.36-.25-.07-.45-.16-.49-.45s.27-.22.42-.3A.56.56,0,0,0,16.71,14.62Z"/></g></svg>