<?xml version="1.0" encoding="UTF-8"?>
<svg width="55px" height="53px" viewBox="0 0 55 53" version="1.1" xmlns="http://www.w3.org/2000/svg" xmlns:xlink="http://www.w3.org/1999/xlink">
    <!-- Generator: Sketch 51.3 (57544) - http://www.bohemiancoding.com/sketch -->
    <title>Group 6 Copy</title>
    <desc>Created with Sketch.</desc>
    <defs></defs>
    <g id="Page-1" stroke="none" stroke-width="1" fill="none" fill-rule="evenodd">
        <g id="Group-6-Copy" stroke="#D44D5C">
            <path d="M27.0460824,49.9096887 C42.9875393,49.9096887 51.6866845,44.6819971 51.6866845,32.0461707 C51.6866845,16.3148088 41.6166501,2.75 29.9062703,2.75 C17.0682236,2.75 2.75,17.5297697 2.75,32.0461707 C2.75,44.7309195 11.222816,49.9096887 27.0460824,49.9096887 Z" id="Oval-7" stroke-width="5.5"></path>
            <circle id="Oval-8" fill="#D44D5C" cx="17" cy="31" r="2"></circle>
            <circle id="Oval-8-Copy" fill="#D44D5C" cx="35" cy="31" r="2"></circle>
            <path d="M22,40.2634025 C23.5587544,39.2061225 24.8348584,38.1183217 25.8283119,37 C26.8432802,38.1183217 28.4191871,39.2061225 30.5560326,40.2634025" id="Path-9" stroke-width="2" stroke-linecap="round" stroke-linejoin="round"></path>
            <path d="M21.5819571,16.1728357 C23.5589376,11.9892528 24.5474279,9.4115983 24.5474279,8.43987236" id="Path-9-Copy" stroke-width="2" stroke-linecap="round" transform="translate(23.064692, 12.306354) scale(-1, 1) rotate(-58.000000) translate(-23.064692, -12.306354) "></path>
            <path d="M29,9 C30.5473731,11.6102011 31.3210597,13.819335 31.3210597,15.6274018" id="Path-10" stroke-width="2" stroke-linecap="round"></path>
            <path d="M33,9 C35.3275887,10.2955402 36.9324403,12.218564 37.8145549,14.7690714" id="Path-11" stroke-width="2" stroke-linecap="round"></path>
        </g>
    </g>
</svg>