<?xml version="1.0" encoding="UTF-8"?>
<svg width="45px" height="45px" viewBox="0 0 45 45" version="1.1" xmlns="http://www.w3.org/2000/svg" xmlns:xlink="http://www.w3.org/1999/xlink">
    <!-- Generator: Sketch 51.3 (57544) - http://www.bohemiancoding.com/sketch -->
    <title>Group 3</title>
    <desc>Created with Sketch.</desc>
    <defs></defs>
    <g id="Page-1" stroke="none" stroke-width="1" fill="none" fill-rule="evenodd">
        <g id="Group-3" stroke="#D44D5C">
            <circle id="Oval-2" stroke-width="1.5" cx="22.5" cy="22.5" r="21.75"></circle>
            <path d="M15.9825355,7 L13,38.4743838" id="Path-2" stroke-width="2"></path>
            <path d="M18,6 L22,40" id="Path-2-Copy" stroke-width="2"></path>
            <path d="M27.0507407,16.7025531 L27.575365,16.9231553 L27.5041261,17.4877977 C26.9349905,21.9987942 26.5681818,28.2318348 26.5681818,32.0487923 C26.5681818,37.8937689 27.1363764,39.7231863 28.707705,39.7231863 C30.2790337,39.7231863 30.8472282,37.8937689 30.8472282,32.0487923 C30.8472282,26.2086952 30.7510965,21.5832844 30.4334371,17.468991 L30.3913278,16.9235959 L30.8977811,16.7168737 C32.3831064,16.1105991 33.25,14.7847724 33.25,12.8670799 C33.25,9.87723325 31.0304425,6.75 28.9894253,6.75 C26.9529052,6.75 24.75,9.87153805 24.75,12.8670799 C24.75,14.7725441 25.5959778,16.0908316 27.0507407,16.7025531 Z" id="Combined-Shape" stroke-width="1.5"></path>
            <path d="M26.7010697,7.94801584 L26.4023655,8.26482698 L25.9791346,8.16250822 C24.8493781,7.8893824 23.6841121,7.75 22.5,7.75 C14.3537999,7.75 7.75,14.3537999 7.75,22.5 C7.75,30.6462001 14.3537999,37.25 22.5,37.25 C23.6862799,37.25 24.8536415,37.1101067 25.9853268,36.8359934 L26.7500247,36.6507706 L26.8984234,37.4234595 C27.2248127,39.1229176 27.7422489,39.7231863 28.707705,39.7231863 C29.9905778,39.7231863 30.5829902,38.5416055 30.7779024,35.0598558 L30.7979572,34.7016122 L31.0894738,34.4924262 C34.9280929,31.737917 37.25,27.3141342 37.25,22.5 C37.25,18.770257 35.861222,15.2592139 33.3978383,12.5600498 L33.234882,12.3814963 L33.2068658,12.1413896 C32.8790977,9.33232296 30.8342469,6.75 28.9894253,6.75 C28.2405311,6.75 27.4351049,7.16948483 26.7010697,7.94801584 Z" id="Combined-Shape" stroke-width="1.5"></path>
        </g>
    </g>
</svg>